<svg xmlns="http://www.w3.org/2000/svg" width="122" height="28" viewBox="0 0 122 28" fill="none">
    <path d="M26.1641 13.9113C26.1641 6.68628 20.3071 0.829252 13.082 0.829252C5.85703 0.829252 0 6.68628 0 13.9113C0 21.1363 5.85703 26.9933 13.082 26.9933C20.3071 26.9933 26.1641 21.1363 26.1641 13.9113Z" fill="#0098EA"/>
    <path d="M6.39648 10.4043C6.39648 10.4043 8.65781 10.4043 9.93611 10.0683C11.2693 9.71787 12.9406 8.34755 12.9406 8.34755C12.9406 8.34755 14.6122 9.71654 15.945 10.0683C17.2181 10.4043 19.4846 10.4043 19.4846 10.4043" stroke="white" stroke-width="2.24368" stroke-linejoin="round"/>
    <path d="M8.45312 13.3958L12.9405 20.5008L17.4279 13.3958" stroke="white" stroke-width="2.24368" stroke-linejoin="round"/>
    <path d="M35.1615 20.414H38.0921V10.1928H41.8857V7.40854H31.3682V10.1928H35.1615V20.414Z" fill="white"/>
    <path d="M48.8428 20.6338C52.5428 20.6338 55.5652 17.6114 55.5652 13.9113C55.5652 10.2111 52.5428 7.18873 48.8428 7.18873C45.1242 7.18873 42.1201 10.2111 42.1201 13.9113C42.1201 17.6114 45.1242 20.6338 48.8428 20.6338ZM48.8428 17.8129C46.7179 17.8129 45.051 16.0178 45.051 13.9113C45.051 11.8048 46.7179 10.0096 48.8428 10.0096C50.9493 10.0096 52.6162 11.8048 52.6162 13.9113C52.6162 16.0178 50.9493 17.8129 48.8428 17.8129Z" fill="white"/>
    <path d="M68.7273 20.414V7.40854H65.7964V15.4317L59.477 7.40854H56.9675V20.414H59.88V12.3726L66.2178 20.414H68.7273Z" fill="white"/>
    <path d="M75.4761 20.3078V7.44393H79.8229C80.832 7.44393 81.6568 7.62608 82.2975 7.99039C82.9423 8.35051 83.4197 8.83833 83.7296 9.4539C84.0394 10.0694 84.1945 10.7562 84.1945 11.5141C84.1945 12.2721 84.0394 12.9609 83.7296 13.5806C83.4241 14.2004 82.9507 14.6945 82.3101 15.063C81.6694 15.4273 80.8486 15.6094 79.8479 15.6094H76.7323V14.2276H79.7975C80.4886 14.2276 81.0433 14.1082 81.4621 13.8696C81.881 13.6309 82.1844 13.3084 82.373 12.9023C82.5657 12.4919 82.6619 12.0292 82.6619 11.5141C82.6619 10.9991 82.5657 10.5384 82.373 10.1323C82.1844 9.72608 81.8787 9.40785 81.4557 9.17752C81.0328 8.94303 80.4717 8.82577 79.7725 8.82577H77.034V20.3078H75.4761ZM86.2375 20.3078V10.6599H87.6695V12.1171H87.7701C87.9459 11.6398 88.2641 11.2524 88.7247 10.9551C89.1855 10.6578 89.7046 10.5091 90.2826 10.5091C90.3913 10.5091 90.5275 10.5112 90.6907 10.5154C90.8542 10.5196 90.9778 10.5259 91.0614 10.5343V12.0417C91.011 12.0292 90.8959 12.0103 90.716 11.9852C90.54 11.9559 90.3537 11.9412 90.157 11.9412C89.688 11.9412 89.2692 12.0396 88.9007 12.2365C88.5364 12.4291 88.2475 12.6971 88.0339 13.0404C87.8246 13.3796 87.7199 13.767 87.7199 14.2025V20.3078H86.2375ZM96.1791 20.5088C95.3082 20.5088 94.5439 20.3015 93.8864 19.8869C93.2332 19.4723 92.7222 18.8924 92.3538 18.147C91.9894 17.4017 91.8073 16.5307 91.8073 15.5341C91.8073 14.5291 91.9894 13.6518 92.3538 12.9023C92.7222 12.1527 93.2332 11.5706 93.8864 11.1561C94.5439 10.7415 95.3082 10.5343 96.1791 10.5343C97.0501 10.5343 97.8123 10.7415 98.4655 11.1561C99.1228 11.5706 99.6337 12.1527 99.9981 12.9023C100.366 13.6518 100.551 14.5291 100.551 15.5341C100.551 16.5307 100.366 17.4017 99.9981 18.147C99.6337 18.8924 99.1228 19.4723 98.4655 19.8869C97.8123 20.3015 97.0501 20.5088 96.1791 20.5088ZM96.1791 19.1771C96.8408 19.1771 97.385 19.0076 97.8123 18.6684C98.2393 18.3292 98.5555 17.8832 98.7605 17.3305C98.9657 16.7777 99.0683 16.1789 99.0683 15.5341C99.0683 14.8892 98.9657 14.2883 98.7605 13.7314C98.5555 13.1744 98.2393 12.7243 97.8123 12.3809C97.385 12.0376 96.8408 11.8659 96.1791 11.8659C95.5175 11.8659 94.973 12.0376 94.546 12.3809C94.1187 12.7243 93.8027 13.1744 93.5975 13.7314C93.3923 14.2883 93.2897 14.8892 93.2897 15.5341C93.2897 16.1789 93.3923 16.7777 93.5975 17.3305C93.8027 17.8832 94.1187 18.3292 94.546 18.6684C94.973 19.0076 95.5175 19.1771 96.1791 19.1771ZM103.256 10.6599L105.568 14.6045L107.879 10.6599H109.588L106.472 15.4838L109.588 20.3078H107.879L105.568 16.5642L103.256 20.3078H101.548L104.613 15.4838L101.548 10.6599H103.256ZM112.392 23.9257C112.141 23.9257 111.917 23.9048 111.72 23.8629C111.523 23.8252 111.387 23.7875 111.312 23.7498L111.689 22.4433C112.049 22.5355 112.367 22.569 112.644 22.5439C112.92 22.5187 113.165 22.3952 113.379 22.1733C113.596 21.9555 113.795 21.6017 113.975 21.1117L114.252 20.358L110.684 10.6599H112.292L114.955 18.348H115.056L117.719 10.6599H119.327L115.232 21.7147C115.047 22.213 114.819 22.6255 114.547 22.9521C114.275 23.2829 113.958 23.5279 113.598 23.687C113.243 23.8461 112.84 23.9257 112.392 23.9257Z" fill="white"/>
    <path d="M75.4762 20.3077H75.2292V20.5548H75.4762V20.3077ZM75.4762 7.44391V7.19688H75.2292V7.44391H75.4762ZM82.2976 7.99037L82.1756 8.20511L82.1771 8.20606L82.2976 7.99037ZM83.7296 13.5806L83.5088 13.4701L83.5081 13.4713L83.7296 13.5806ZM82.3101 15.063L82.4322 15.2777L82.4335 15.2771L82.3101 15.063ZM76.7324 15.6094H76.4855V15.8565H76.7324V15.6094ZM76.7324 14.2276V13.9805H76.4855V14.2276H76.7324ZM82.3731 12.9022L82.1495 12.7973L82.1489 12.7983L82.3731 12.9022ZM82.3731 10.1322L82.1489 10.2362L82.1497 10.2381L82.3731 10.1322ZM81.4558 9.1775L81.3361 9.39355L81.3379 9.39447L81.4558 9.1775ZM77.0341 8.82575V8.57872H76.7869V8.82575H77.0341ZM77.0341 20.3077V20.5548H77.281V20.3077H77.0341ZM75.7233 20.3077V7.44391H75.2292V20.3077H75.7233ZM75.4762 7.69094H79.8229V7.19688H75.4762V7.69094ZM79.8229 7.69094C80.8044 7.69094 81.5832 7.86835 82.1756 8.20511L82.4196 7.77563C81.7306 7.38376 80.8597 7.19688 79.8229 7.19688V7.69094ZM82.1771 8.20606C82.7822 8.54392 83.223 8.99671 83.5091 9.56495L83.9504 9.34281C83.6168 8.67993 83.1028 8.15706 82.4181 7.77468L82.1771 8.20606ZM83.5091 9.56495C83.8 10.1427 83.9474 10.7908 83.9474 11.5141H84.4417C84.4417 10.7215 84.2792 9.99617 83.9504 9.34281L83.5091 9.56495ZM83.9474 11.5141C83.9474 12.2373 83.8 12.8878 83.5088 13.4701L83.9507 13.6911C84.2792 13.0339 84.4417 12.3067 84.4417 11.5141H83.9474ZM83.5081 13.4713C83.2256 14.044 82.7883 14.503 82.1871 14.8488L82.4335 15.2771C83.1133 14.886 83.6224 14.3567 83.9512 13.6899L83.5081 13.4713ZM82.1881 14.8482C81.5955 15.1851 80.8205 15.3624 79.848 15.3624V15.8565C80.8768 15.8565 81.7434 15.6694 82.4322 15.2777L82.1881 14.8482ZM79.848 15.3624H76.7324V15.8565H79.848V15.3624ZM76.9796 15.6094V14.2276H76.4855V15.6094H76.9796ZM76.7324 14.4746H79.7976V13.9805H76.7324V14.4746ZM79.7976 14.4746C80.514 14.4746 81.1158 14.3513 81.5845 14.0842L81.3399 13.6549C80.9712 13.8651 80.4633 13.9805 79.7976 13.9805V14.4746ZM81.5845 14.0842C82.0443 13.8221 82.3854 13.4626 82.5972 13.0062L82.1489 12.7983C81.9837 13.1543 81.7176 13.4396 81.3399 13.6549L81.5845 14.0842ZM82.5967 13.0072C82.8068 12.5598 82.9088 12.0605 82.9088 11.5141H82.4148C82.4148 11.9978 82.3247 12.4239 82.1495 12.7973L82.5967 13.0072ZM82.9088 11.5141C82.9088 10.9678 82.8068 10.4702 82.5962 10.0264L82.1497 10.2381C82.3245 10.6067 82.4148 11.0303 82.4148 11.5141H82.9088ZM82.5972 10.0283C82.3846 9.57035 82.0397 9.21417 81.574 8.96056L81.3379 9.39447C81.7178 9.60146 81.9844 9.8818 82.1489 10.2362L82.5972 10.0283ZM81.5758 8.96146C81.1035 8.69958 80.4964 8.57872 79.7725 8.57872V9.07281C80.4475 9.07281 80.9625 9.18646 81.3361 9.39355L81.5758 8.96146ZM79.7725 8.57872H77.0341V9.07281H79.7725V8.57872ZM76.7869 8.82575V20.3077H77.281V8.82575H76.7869ZM77.0341 20.0607H75.4762V20.5548H77.0341V20.0607ZM86.2376 20.3077H85.9904V20.5548H86.2376V20.3077ZM86.2376 10.6599V10.4128H85.9904V10.6599H86.2376ZM87.6696 10.6599H87.9168V10.4128H87.6696V10.6599ZM87.6696 12.1171H87.4227V12.3641H87.6696V12.1171ZM87.7702 12.1171V12.3641H87.9423L88.002 12.2025L87.7702 12.1171ZM91.0615 10.5342H91.3084V10.3107L91.0861 10.2884L91.0615 10.5342ZM91.0615 12.0417L91.0016 12.2814L91.3084 12.3581V12.0417H91.0615ZM90.7161 11.9852L90.6754 12.2289L90.6788 12.2294L90.6818 12.2298L90.7161 11.9852ZM88.9008 12.2364L89.0162 12.4548L89.0172 12.4543L88.9008 12.2364ZM88.0339 13.0404L87.8241 12.91L87.8236 12.9107L88.0339 13.0404ZM87.72 20.3077V20.5548H87.9669V20.3077H87.72ZM86.4845 20.3077V10.6599H85.9904V20.3077H86.4845ZM86.2376 10.9069H87.6696V10.4128H86.2376V10.9069ZM87.4227 10.6599V12.1171H87.9168V10.6599H87.4227ZM87.6696 12.3641H87.7702V11.8701H87.6696V12.3641ZM88.002 12.2025C88.1578 11.7794 88.4395 11.4333 88.8588 11.1626L88.591 10.7475C88.089 11.0715 87.7341 11.5001 87.5383 12.0317L88.002 12.2025ZM88.8588 11.1626C89.2774 10.8925 89.7495 10.7561 90.2827 10.7561V10.2621C89.6599 10.2621 89.0937 10.423 88.591 10.7475L88.8588 11.1626ZM90.2827 10.7561C90.3886 10.7561 90.5224 10.7582 90.6846 10.7623L90.6972 10.2684C90.5327 10.2642 90.3942 10.2621 90.2827 10.2621V10.7561ZM90.6846 10.7623C90.8463 10.7665 90.9625 10.7726 91.037 10.78L91.0861 10.2884C90.9929 10.2791 90.8622 10.2727 90.6972 10.2684L90.6846 10.7623ZM90.8144 10.5342V12.0417H91.3084V10.5342H90.8144ZM91.1214 11.802C91.0559 11.7857 90.9264 11.7651 90.7501 11.7405L90.6818 12.2298C90.8655 12.2555 90.9666 12.2726 91.0016 12.2814L91.1214 11.802ZM90.7565 11.7415C90.5659 11.7098 90.3661 11.6942 90.1571 11.6942V12.1883C90.3415 12.1883 90.5142 12.202 90.6754 12.2289L90.7565 11.7415ZM90.1571 11.6942C89.6525 11.6942 89.193 11.8004 88.7844 12.0185L89.0172 12.4543C89.3457 12.2789 89.7236 12.1883 90.1571 12.1883V11.6942ZM88.7854 12.018C88.3832 12.2307 88.0613 12.5287 87.8241 12.91L88.2437 13.1709C88.4338 12.8654 88.6897 12.6274 89.0162 12.4548L88.7854 12.018ZM87.8236 12.9107C87.588 13.2924 87.4728 13.7255 87.4728 14.2024H87.9669C87.9669 13.8084 88.0611 13.4668 88.2443 13.1702L87.8236 12.9107ZM87.4728 14.2024V20.3077H87.9669V14.2024H87.4728ZM87.72 20.0607H86.2376V20.5548H87.72V20.0607ZM93.8865 19.8869L93.7542 20.0955L93.7547 20.0959L93.8865 19.8869ZM92.3539 18.147L92.132 18.2555L92.1325 18.2565L92.3539 18.147ZM92.3539 12.9022L92.1323 12.7932L92.1318 12.7942L92.3539 12.9022ZM93.8865 11.1561L93.7547 10.9471L93.7542 10.9475L93.8865 11.1561ZM98.4656 11.1561L98.333 11.3647L98.3338 11.365L98.4656 11.1561ZM99.9981 12.9022L99.7758 13.0102L99.7763 13.0112L99.9981 12.9022ZM99.9981 18.147L99.7766 18.0375L99.7761 18.0385L99.9981 18.147ZM98.4656 19.8869L98.3338 19.6779L98.333 19.6783L98.4656 19.8869ZM96.1792 20.2617C95.3489 20.2617 94.6315 20.0647 94.0182 19.6779L93.7547 20.0959C94.4562 20.5382 95.2673 20.7558 96.1792 20.7558V20.2617ZM94.019 19.6783C93.4067 19.2898 92.9254 18.7455 92.5754 18.0375L92.1325 18.2565C92.5194 19.0393 93.0598 19.6549 93.7542 20.0955L94.019 19.6783ZM92.5759 18.0385C92.231 17.3331 92.0545 16.5005 92.0545 15.534H91.5604C91.5604 16.5608 91.7482 17.4702 92.132 18.2555L92.5759 18.0385ZM92.0545 15.534C92.0545 14.5589 92.231 13.7199 92.5762 13.0102L92.1318 12.7942C91.748 13.5837 91.5604 14.4992 91.5604 15.534H92.0545ZM92.5757 13.0112C92.9257 12.2991 93.407 11.7529 94.019 11.3647L93.7542 10.9475C93.0595 11.3883 92.5191 12.0063 92.1323 12.7932L92.5757 13.0112ZM94.0182 11.365C94.6315 10.9783 95.3489 10.7813 96.1792 10.7813V10.2872C95.2673 10.2872 94.4562 10.5048 93.7547 10.9471L94.0182 11.365ZM96.1792 10.7813C97.0092 10.7813 97.7243 10.9783 98.333 11.3647L98.5978 10.9475C97.9001 10.5047 97.0908 10.2872 96.1792 10.2872V10.7813ZM98.3338 11.365C98.9494 11.7532 99.4301 12.299 99.7758 13.0102L100.22 12.7942C99.8372 12.0064 99.2966 11.388 98.5973 10.9471L98.3338 11.365ZM99.7763 13.0112C100.125 13.7207 100.304 14.5593 100.304 15.534H100.798C100.798 14.4988 100.608 13.5829 100.22 12.7932L99.7763 13.0112ZM100.304 15.534C100.304 16.5001 100.125 17.3323 99.7766 18.0375L100.219 18.2565C100.608 17.471 100.798 16.5612 100.798 15.534H100.304ZM99.7761 18.0385C99.4306 18.7456 98.9496 19.2895 98.3338 19.6779L98.5973 20.0959C99.2961 19.6552 99.837 19.0392 100.22 18.2555L99.7761 18.0385ZM98.333 19.6783C97.7243 20.0647 97.0092 20.2617 96.1792 20.2617V20.7558C97.0908 20.7558 97.9001 20.5382 98.5978 20.0955L98.333 19.6783ZM96.1792 19.4241C96.8843 19.4241 97.4864 19.2426 97.9659 18.8618L97.6586 18.4749C97.284 18.7725 96.7971 18.9301 96.1792 18.9301V19.4241ZM97.9659 18.8618C98.431 18.4923 98.7728 18.0079 98.9924 17.4164L98.529 17.2445C98.3384 17.7585 98.0475 18.166 97.6586 18.4749L97.9659 18.8618ZM98.9924 17.4164C99.2086 16.8337 99.3155 16.2055 99.3155 15.534H98.8214C98.8214 16.1523 98.7232 16.7217 98.529 17.2445L98.9924 17.4164ZM99.3155 15.534C99.3155 14.8625 99.2086 14.2325 98.9924 13.6459L98.5287 13.8168C98.7232 14.3441 98.8214 14.9158 98.8214 15.534H99.3155ZM98.9924 13.6459C98.7731 13.0506 98.432 12.5621 97.9669 12.1884L97.6575 12.5734C98.0467 12.8864 98.3379 13.2982 98.5287 13.8168L98.9924 13.6459ZM97.9669 12.1884C97.4874 11.8028 96.8849 11.6188 96.1792 11.6188V12.1129C96.7966 12.1129 97.2827 12.2722 97.6575 12.5734L97.9669 12.1884ZM96.1792 11.6188C95.4733 11.6188 94.8707 11.8028 94.3913 12.1884L94.7008 12.5734C95.0754 12.2722 95.5618 12.1129 96.1792 12.1129V11.6188ZM94.3913 12.1884C93.9264 12.5621 93.5851 13.0506 93.3658 13.6459L93.8294 13.8168C94.0205 13.2982 94.3114 12.8864 94.7008 12.5734L94.3913 12.1884ZM93.3658 13.6459C93.1496 14.2325 93.0426 14.8625 93.0426 15.534H93.5367C93.5367 14.9158 93.6352 14.3441 93.8294 13.8168L93.3658 13.6459ZM93.0426 15.534C93.0426 16.2055 93.1496 16.8337 93.366 17.4164L93.8291 17.2445C93.6352 16.7217 93.5367 16.1523 93.5367 15.534H93.0426ZM93.366 17.4164C93.5856 18.0079 93.9271 18.4923 94.3923 18.8618L94.6996 18.4749C94.3107 18.166 94.02 17.7585 93.8291 17.2445L93.366 17.4164ZM94.3923 18.8618C94.872 19.2426 95.4741 19.4241 96.1792 19.4241V18.9301C95.561 18.9301 95.0744 18.7725 94.6996 18.4749L94.3923 18.8618ZM103.257 10.6599L103.47 10.535L103.398 10.4128H103.257V10.6599ZM105.568 14.6044L105.355 14.7293L105.568 15.0931L105.781 14.7293L105.568 14.6044ZM107.879 10.6599V10.4128H107.738L107.666 10.535L107.879 10.6599ZM109.588 10.6599L109.795 10.7939L110.042 10.4128H109.588V10.6599ZM106.472 15.4838L106.265 15.3498L106.178 15.4838L106.265 15.6178L106.472 15.4838ZM109.588 20.3077V20.5548H110.042L109.795 20.1737L109.588 20.3077ZM107.879 20.3077L107.669 20.4375L107.742 20.5548H107.879V20.3077ZM105.568 16.5642L105.778 16.4344L105.568 16.0939L105.358 16.4344L105.568 16.5642ZM103.257 20.3077V20.5548H103.394L103.467 20.4375L103.257 20.3077ZM101.548 20.3077L101.34 20.1752L101.098 20.5548H101.548V20.3077ZM104.613 15.4838L104.822 15.6163L104.906 15.4838L104.822 15.3513L104.613 15.4838ZM101.548 10.6599V10.4128H101.098L101.34 10.7924L101.548 10.6599ZM103.043 10.7848L105.355 14.7293L105.781 14.4795L103.47 10.535L103.043 10.7848ZM105.781 14.7293L108.092 10.7848L107.666 10.535L105.355 14.4795L105.781 14.7293ZM107.879 10.9069H109.588V10.4128H107.879V10.9069ZM109.38 10.5258L106.265 15.3498L106.68 15.6178L109.795 10.7939L109.38 10.5258ZM106.265 15.6178L109.38 20.4417L109.795 20.1737L106.68 15.3498L106.265 15.6178ZM109.588 20.0607H107.879V20.5548H109.588V20.0607ZM108.09 20.1779L105.778 16.4344L105.358 16.6939L107.669 20.4375L108.09 20.1779ZM105.358 16.4344L103.046 20.1779L103.467 20.4375L105.778 16.6939L105.358 16.4344ZM103.257 20.0607H101.548V20.5548H103.257V20.0607ZM101.756 20.4402L104.822 15.6163L104.405 15.3513L101.34 20.1752L101.756 20.4402ZM104.822 15.3513L101.756 10.5274L101.34 10.7924L104.405 15.6163L104.822 15.3513ZM101.548 10.9069H103.257V10.4128H101.548V10.9069ZM111.72 23.8629L111.772 23.6212L111.769 23.6207L111.767 23.6203L111.72 23.8629ZM111.312 23.7498L111.075 23.6814L111.018 23.8788L111.202 23.9708L111.312 23.7498ZM111.689 22.4433L111.75 22.204L111.518 22.1446L111.452 22.3749L111.689 22.4433ZM113.379 22.1732L113.204 21.9985L113.202 22.0002L113.201 22.0019L113.379 22.1732ZM114.252 20.358L114.484 20.443L114.515 20.3579L114.484 20.2727L114.252 20.358ZM110.684 10.6599V10.4128H110.33L110.452 10.7451L110.684 10.6599ZM112.292 10.6599L112.525 10.579L112.468 10.4128H112.292V10.6599ZM114.955 18.348L114.722 18.4289L114.779 18.595H114.955V18.348ZM115.056 18.348V18.595H115.232L115.289 18.4289L115.056 18.348ZM117.719 10.6599V10.4128H117.543L117.486 10.579L117.719 10.6599ZM119.327 10.6599L119.559 10.7457L119.682 10.4128H119.327V10.6599ZM114.547 22.9521L114.357 22.794L114.356 22.7951L114.547 22.9521ZM113.599 23.687L113.499 23.461L113.498 23.4615L113.599 23.687ZM112.392 23.6786C112.154 23.6786 111.948 23.6588 111.772 23.6212L111.669 24.1045C111.886 24.1507 112.128 24.1727 112.392 24.1727V23.6786ZM111.767 23.6203C111.57 23.5826 111.464 23.5498 111.423 23.5289L111.202 23.9708C111.311 24.0252 111.477 24.0678 111.674 24.1055L111.767 23.6203ZM111.549 23.8183L111.926 22.5118L111.452 22.3749L111.075 23.6814L111.549 23.8183ZM111.628 22.6827C112.007 22.7795 112.354 22.8182 112.666 22.7898L112.621 22.2978C112.381 22.3197 112.092 22.2914 111.75 22.204L111.628 22.6827ZM112.666 22.7898C113.008 22.7588 113.307 22.6042 113.557 22.3445L113.201 22.0019C113.023 22.1861 112.832 22.2787 112.621 22.2978L112.666 22.7898ZM113.553 22.3479C113.808 22.0931 114.022 21.7002 114.207 21.1969L113.743 21.0265C113.568 21.5031 113.385 21.8179 113.204 21.9985L113.553 22.3479ZM114.207 21.1969L114.484 20.443L114.02 20.2729L113.743 21.0265L114.207 21.1969ZM114.484 20.2727L110.916 10.5746L110.452 10.7451L114.02 20.4433L114.484 20.2727ZM110.684 10.9069H112.292V10.4128H110.684V10.9069ZM112.059 10.7407L114.722 18.4289L115.189 18.2672L112.525 10.579L112.059 10.7407ZM114.955 18.595H115.056V18.101H114.955V18.595ZM115.289 18.4289L117.952 10.7407L117.486 10.579L114.822 18.2672L115.289 18.4289ZM117.719 10.9069H119.327V10.4128H117.719V10.9069ZM119.095 10.5741L115 21.6289L115.463 21.8005L119.559 10.7457L119.095 10.5741ZM115 21.6289C114.823 22.1072 114.607 22.4936 114.357 22.794L114.737 23.1102C115.031 22.7574 115.272 22.3189 115.463 21.8005L115 21.6289ZM114.356 22.7951C114.106 23.0988 113.82 23.3188 113.499 23.461L113.698 23.913C114.097 23.7369 114.443 23.467 114.738 23.109L114.356 22.7951ZM113.498 23.4615C113.178 23.6044 112.811 23.6786 112.392 23.6786V24.1727C112.87 24.1727 113.307 24.0878 113.699 23.9125L113.498 23.4615Z" fill="white"/>
</svg>