<svg xmlns="http://www.w3.org/2000/svg" width="375" height="369" viewBox="0 0 375 369" fill="none">
    <path fill-rule="evenodd" clip-rule="evenodd" d="M129.086 94.6402C129.629 95.801 127.367 102.006 125.458 101.854L125.49 101.876C122.773 101.654 121.905 100.531 122.084 99.5165C122.263 98.5022 121.65 98.3937 120.343 99.2995C119.036 100.205 118.564 99.7714 117.294 98.1767C116.468 97.1381 115.703 93.6078 115.08 90.731L115.08 90.7308L115.08 90.7301C114.747 89.1902 114.454 87.8377 114.214 87.155C113.525 85.1969 113.302 77.2941 113.704 76.1333C114.042 75.1424 114.779 75.0765 115.777 74.9873C115.948 74.972 116.127 74.956 116.313 74.9346C117.558 74.791 118.208 73.0454 119.123 70.5885L119.177 70.4435C119.756 68.8887 120.213 68.4067 120.52 68.082C120.714 67.8777 120.849 67.7356 120.918 67.4277C121.048 66.8474 120.546 66.7095 119.509 66.4245L119.508 66.4244C119.12 66.3178 118.657 66.1906 118.124 66.012C116.166 65.3557 115.006 63.4356 115.624 62.5298C116.238 61.6244 117.634 62.1593 119.041 62.6983L119.068 62.7088C120.478 63.2512 120.771 62.0199 120.625 61.4016C120.567 61.1561 120.383 61.1226 120.178 61.0853C119.867 61.0286 119.507 60.9631 119.464 60.1323C119.394 58.7546 119.101 57.7729 117.723 56.7586C116.34 55.7388 117.105 49.6476 117.322 48.438C117.331 48.3865 117.34 48.3351 117.35 48.2839L117.381 48.1162C117.587 47.0288 117.783 45.9904 116.958 44.5382C116.193 43.1916 116.202 42.6456 116.223 41.3064V41.3063C116.227 41.0596 116.231 40.786 116.231 40.4755C116.231 38.4795 114.42 37.7526 112.136 37.1018C110.786 36.7169 109.246 36.7606 107.815 36.8012C106.826 36.8293 105.888 36.8559 105.101 36.7383C103.176 36.4509 102.709 35.1816 102.997 34.1294C103.066 33.8761 103.169 33.6439 103.264 33.4292C103.564 32.7518 103.786 32.2486 102.633 31.8079C101.114 31.2275 101.803 29.0904 103.252 28.944L103.376 28.9314C104.741 28.7945 105.416 28.7269 105.063 27.4578C104.919 26.9412 104.575 26.4349 104.221 25.9148C103.684 25.1241 103.125 24.3016 103.214 23.3626C103.36 21.8059 103.864 21.4371 105.389 21.0791C105.926 20.9529 106.675 20.6818 107.517 20.3773L107.518 20.3772L107.518 20.3772C109.065 19.8177 110.924 19.1453 112.353 19.0505C113.554 18.9708 113.899 19.1175 114.157 19.2267C114.373 19.3184 114.526 19.3837 115.071 19.2674C116.264 19.0125 117.604 16.8375 117.316 15.4218C117.029 14.0061 115.103 13.2088 114.089 14.1525C113.876 14.35 113.677 14.5536 113.483 14.7525C112.749 15.5044 112.082 16.1891 110.932 16.2191C109.478 16.2571 109.332 16.8754 109.261 18.1067C109.191 19.338 107.45 19.2674 107.086 18.904C106.728 18.5406 106.181 18.3942 105.53 19.121C104.879 19.8478 104.081 19.9563 103.501 19.3759L103.473 19.348L103.41 19.284C102.881 18.7515 102.522 18.3893 101.798 18.9745C101.449 19.2565 101.11 19.1528 100.805 19.0598C100.442 18.9489 100.129 18.8533 99.9103 19.4464C99.7079 19.9963 100.3 20.5007 100.974 21.0744C101.636 21.6381 102.377 22.2687 102.519 23.0751C102.77 24.4963 100.7 25.3424 98.5784 26.2097L98.5775 26.21C98.2702 26.3356 97.9619 26.4616 97.6593 26.5899C96.6624 27.0149 95.8606 27.7404 95.0963 28.4319C94.0266 29.3997 93.0306 30.3009 91.6766 30.2186C89.959 30.1143 89.8893 28.5758 89.8374 27.4309V27.4308C89.8192 27.0284 89.8032 26.6746 89.7185 26.4489C89.568 26.0517 89.3446 26.1584 88.9542 26.3447C88.4864 26.5681 87.779 26.9058 86.6702 26.6279C85.5301 26.3421 85.4977 25.3492 85.4716 24.5516C85.4512 23.9263 85.4346 23.421 84.8911 23.4711C83.6544 23.585 82.4611 23.0046 84.2728 20.6452C85.3791 19.2043 87.1085 18.9002 88.4776 18.6595C89.3504 18.506 90.0768 18.3783 90.4019 17.9982C90.8469 17.4781 90.7455 16.2161 90.6404 14.9091C90.5482 13.7627 90.4533 12.5817 90.722 11.8365C91.2969 10.2418 92.5065 10.1659 93.7377 10.3503C94.3683 10.4447 94.7798 10.7383 95.163 11.0118C95.5282 11.2723 95.8677 11.5146 96.3467 11.549C97.3285 11.6195 98.0173 10.7137 96.3467 10.2798C94.6761 9.84584 93.1574 8.90206 92.973 8.14269C92.8826 7.77078 93.219 7.63176 93.5948 7.47648C93.9863 7.31471 94.4204 7.13529 94.4592 6.65649C94.4993 6.16008 93.6864 5.87467 92.8523 5.58183C92.1097 5.32112 91.3504 5.05452 91.1613 4.62789C90.9474 4.13842 91.4952 3.88019 92.0209 3.63238C92.4681 3.42159 92.8993 3.21835 92.8319 2.88677C92.759 2.52735 92.3898 2.31065 91.9746 2.06695C91.5565 1.82152 91.0917 1.5487 90.8359 1.07513C90.326 0.13677 91.5193 -0.194098 94.2422 -0.844985C95.4657 -1.13747 96.6444 -1.62819 97.7294 -2.07993C99.059 -2.63349 100.248 -3.12852 101.207 -3.12852C102.047 -3.12852 102.372 -2.80746 102.679 -2.50399C103.008 -2.17883 103.316 -1.87387 104.217 -2.00573C105.069 -2.1304 105.53 -2.74022 105.944 -3.28836C106.377 -3.86108 106.759 -4.36648 107.482 -4.18078C108.898 -3.81737 110.786 -3.63838 112.38 -3.81737C113.245 -3.91445 113.416 -4.17107 113.582 -4.4211C113.723 -4.63209 113.86 -4.83838 114.409 -4.94015C115.207 -5.08819 115.649 -4.68584 116.209 -4.17628C116.49 -3.92033 116.801 -3.63734 117.202 -3.38345C117.797 -3.002 118.465 -3.07257 119.233 -3.15368C120.005 -3.23519 120.877 -3.32735 121.878 -2.98207C122.965 -2.60685 123.816 -1.89851 124.546 -1.29008C125.157 -0.781494 125.684 -0.342714 126.195 -0.226643C127.318 0.0282884 127.898 1.08056 127.898 2.52878C127.898 3.42589 128.329 3.43427 129.071 3.44868C129.527 3.45754 130.1 3.46867 130.762 3.68953C132.235 4.18051 133.809 3.50306 134.985 2.99702C135.199 2.90488 135.4 2.81843 135.584 2.74574C136.778 2.27385 138.009 2.67523 137.141 4.08549C136.273 5.49574 136.452 5.93509 137.83 7.16636C139.208 8.39762 140.184 8.2132 140.222 6.22257C140.26 4.23194 141.16 3.32612 142.072 3.39663C142.598 3.43738 142.676 3.78237 142.786 4.27568C142.867 4.63612 142.966 5.07573 143.27 5.53371C143.992 6.61853 144.865 6.54801 144.719 5.13233C144.572 3.71665 144.605 1.94298 145.478 1.79653C145.713 1.75716 145.981 1.76523 146.253 1.77341C146.993 1.79564 147.759 1.81868 147.946 0.890714C148.201 -0.378516 148.635 -1.3223 150.267 -1.7942C151.347 -2.10626 151.872 -1.68773 152.376 -1.28529C152.634 -1.07917 152.888 -0.877264 153.207 -0.779897C154.151 -0.492421 154.84 -1.25179 155.854 -2.55899C156.868 -3.86619 159.293 -3.68719 161.219 -3.54074C162.3 -3.45852 162.955 -3.04626 163.618 -2.62946C164.135 -2.30393 164.657 -1.97563 165.39 -1.79962C165.665 -1.73421 165.955 -1.67754 166.252 -1.61935C167.757 -1.32529 169.46 -0.992625 170.429 0.700872C171.589 2.72947 173.981 4.90452 174.925 5.26793C175.869 5.63135 176.27 6.4992 174.166 7.8064C172.714 8.70644 171.401 8.81307 170.475 8.88817C170.062 8.9217 169.726 8.94894 169.49 9.03766C168.725 9.32513 169.886 11.3917 170.505 11.5382C170.815 11.6116 170.915 11.2919 171.024 10.9412C171.133 10.5931 171.252 10.2145 171.595 10.1604C172.115 10.0786 172.758 10.6982 173.355 11.2728L173.356 11.2733L173.357 11.2742C173.55 11.4604 173.738 11.6418 173.916 11.7931C174.3 12.1217 175.658 12.0091 177.211 11.8803C178.58 11.7667 180.1 11.6406 181.239 11.7931C183.669 12.1185 184.499 13.6427 183.848 15.2753C183.469 16.2242 182.501 16.5355 181.764 16.7725C181.233 16.9433 180.821 17.0755 180.837 17.3799C180.875 18.1067 180.512 18.904 179.46 19.338C178.407 19.7719 178.19 20.6072 178.407 21.0411C178.624 21.475 177.935 22.2724 175.505 24.9193C173.076 27.5663 172.967 29.6328 173.184 31.9164C173.222 32.3134 173.287 32.8498 173.362 33.4663C173.719 36.3951 174.295 41.1328 173.184 41.3434C172.38 41.4957 171.929 41.131 171.486 40.7734C171.188 40.5325 170.894 40.2948 170.499 40.2206C169.517 40.0362 169.051 40.6166 168.649 41.5603C168.408 42.128 169.165 42.9057 169.996 43.7587L169.997 43.7589L169.997 43.759C170.547 44.3241 171.13 44.9223 171.475 45.5145C172.343 47.0007 171.508 48.3458 170.315 48.3079C169.121 48.2699 168.682 48.4869 168.72 49.3222C168.751 50.119 168.264 50.3877 167.428 50.8487L167.304 50.9168C166.545 51.3374 167.327 52.0371 168.281 52.89C168.471 53.06 168.668 53.2361 168.861 53.4173C170.022 54.5076 168.498 56.4657 166.453 56.4657C164.927 56.4657 164.857 55.7772 164.784 55.0672C164.76 54.8256 164.735 54.5815 164.652 54.3611C164.326 53.4933 161.826 53.5258 161.463 55.7388C161.099 57.9464 162.878 59.4706 164.907 61.1032C166.935 62.7359 166.794 65.5618 165.487 68.4637C164.185 71.3601 160.85 73.4267 156.532 75.2058C153.249 76.5562 151.013 76.4163 149.75 76.3372C149.354 76.3124 149.053 76.2936 148.846 76.3286C147.978 76.475 145.765 78.905 144.605 80.8251C143.444 82.7507 141.236 83.727 138.768 84.1989C136.3 84.6708 134.055 85.2132 133.474 86.7374C132.894 88.2615 130.54 91.9987 129.705 92.5031C128.869 93.0076 128.544 93.4795 129.086 94.6402ZM-82.8643 95.2911C-82.5144 94.6948 -81.0003 93.842 -79.3231 92.8974C-77.5677 91.9088 -75.6338 90.8195 -74.6685 89.8182C-72.7809 87.8601 -73.1932 85.5387 -73.9959 85.4139C-74.3404 85.3604 -74.4561 85.4926 -74.5635 85.6152C-74.7063 85.7782 -74.8341 85.9242 -75.4658 85.5929C-75.6857 85.4776 -75.9354 85.3677 -76.1957 85.2531C-77.2454 84.7911 -78.4652 84.2542 -78.5738 82.9893C-78.6334 82.2962 -78.3687 81.7663 -78.1316 81.2915C-77.8287 80.6852 -77.5709 80.169 -78.0911 79.5179C-78.4361 79.0862 -79.1194 78.9756 -79.8136 78.8633C-80.9857 78.6736 -82.1886 78.479 -81.8445 76.7245C-81.6238 75.5875 -81.2879 75.0517 -80.9626 74.5325C-80.4886 73.7763 -80.0367 73.0554 -79.9949 70.5628C-79.9449 67.5802 -77.6831 67.1152 -75.765 66.7209C-74.9797 66.5595 -74.252 66.4099 -73.7573 66.1042C-73.4432 65.9102 -73.1488 65.7124 -72.8599 65.5183L-72.8598 65.5182L-72.8596 65.5182L-72.8595 65.5181L-72.8594 65.518L-72.8593 65.5179L-72.8591 65.5178L-72.859 65.5177L-72.8589 65.5176L-72.8587 65.5175L-72.8585 65.5174C-71.5811 64.6591 -70.4084 63.8712 -68.1 63.7827C-65.2686 63.6742 -65.0896 62.3345 -65.708 60.409C-66.1618 58.9997 -67.9042 59.0543 -69.6871 59.1102C-70.3333 59.1304 -70.9848 59.1508 -71.5822 59.1018C-73.8278 58.9174 -73.9742 54.6432 -72.0921 52.7176C-70.2045 50.7975 -64.1892 49.3439 -62.9525 50.5426C-62.2734 51.2038 -62.5745 51.5762 -62.89 51.9665C-63.1466 52.2839 -63.4127 52.6131 -63.1695 53.119C-62.6271 54.2418 -59.9042 54.8981 -58.3475 53.4445C-56.7908 51.9962 -58.239 46.9519 -59.7957 44.4893C-61.3524 42.0214 -61.3199 41.6634 -60.1591 40.1013C-58.9984 38.5391 -57.8756 37.4543 -56.3135 38.9026C-54.7568 40.3508 -51.9959 38.2842 -50.5097 36.4726C-49.0235 34.6609 -47.2444 33.6792 -46.0512 34.189C-44.8524 34.6989 -43.6591 34.189 -42.173 32.9903C-41.2907 32.2787 -40.4848 32.5401 -39.7021 32.794C-39.1664 32.9677 -38.6415 33.138 -38.1103 32.9903C-37.5989 32.8481 -37.2153 32.495 -36.8553 32.1636C-36.2952 31.6481 -35.7922 31.185 -34.9535 31.6506C-34.1992 32.0663 -34.1619 32.9503 -34.1278 33.7604C-34.0995 34.43 -34.0734 35.0492 -33.6463 35.3118C-33.1895 35.5928 -32.8102 35.4746 -32.4413 35.3598C-32.0482 35.2373 -31.6669 35.1186 -31.2163 35.4908C-30.8204 35.8179 -30.8203 36.5196 -30.8202 37.2497C-30.82 38.1298 -30.8199 39.0512 -30.1261 39.407C-29.5149 39.7204 -29.022 39.6653 -28.5861 39.6166C-28.1167 39.5642 -27.7136 39.5191 -27.3002 39.9494C-27.0304 40.232 -26.9184 40.5183 -26.7997 40.8214C-26.5677 41.4141 -26.3107 42.0709 -24.7997 42.8892C-23.4576 43.6129 -22.0742 44.0462 -21.0626 44.363C-20.353 44.5852 -19.8264 44.7501 -19.6251 44.9178C-19.4456 45.0675 -19.1626 45.4893 -18.8266 45.9902C-18.249 46.851 -17.5149 47.9453 -16.8805 48.2916C-16.3644 48.5734 -15.7822 48.7304 -15.3126 48.8569L-15.3125 48.8569C-14.8693 48.9764 -14.5265 49.0688 -14.4343 49.2137C-14.366 49.321 -14.2942 49.6959 -14.2088 50.1419L-14.2087 50.142L-14.2087 50.1421L-14.2087 50.1422L-14.2087 50.1423L-14.2086 50.1424L-14.2086 50.1425L-14.2086 50.1427C-14.0566 50.9363 -13.8615 51.955 -13.5664 52.0939C-13.4735 52.1376 -13.2448 52.2553 -12.9354 52.4145L-12.9348 52.4148C-11.7083 53.0459 -9.21568 54.3284 -8.89089 54.2418C-8.81389 54.2213 -8.68518 54.1422 -8.49278 54.0241C-7.66879 53.5181 -5.67654 52.2947 -1.57384 51.8769C3.48682 51.3616 6.33987 52.6092 8.43356 54.4045C10.5273 56.1999 16.0761 60.8754 17.4104 61.5046C18.0478 61.8026 18.653 61.7478 19.2035 61.698C19.8055 61.6435 20.3422 61.5949 20.7841 62.0199C21.6249 62.8335 22.1185 64.6289 21.5435 65.231C21.3094 65.4762 20.8498 65.6573 20.3991 65.8349C19.7534 66.0894 19.1259 66.3367 19.2057 66.7551C19.3413 67.4657 21.7062 69.1471 26.333 68.4962C28.0244 68.258 29.3736 67.9282 30.4739 67.6593C32.3799 67.1934 33.539 66.9101 34.4365 67.6013C34.9753 68.0162 35.5299 68.6708 36.1073 69.3524C37.047 70.4617 38.0473 71.6425 39.1392 71.9785C40.902 72.5209 43.1096 72.548 44.4982 71.2462C45.8867 69.939 47.0529 69.8306 48.1702 71.0293C49.2876 72.228 50.6979 73.3399 52.0864 71.87C52.5674 71.3609 52.872 70.8589 53.1382 70.4201C53.6405 69.5923 54.0061 68.9898 55.1619 68.9898C56.9301 68.9898 60.3039 69.9119 61.1988 71.2462C61.6514 71.9209 61.5076 73.3804 61.3776 74.7007C61.2504 75.9916 61.1364 77.1495 61.6056 77.3103C62.5549 77.6358 66.1727 74.1264 66.7477 72.087C66.7851 71.953 66.8219 71.8185 66.8587 71.6844C67.3813 69.7776 67.8834 67.9459 69.6875 68.6047C71.6185 69.3099 73.5494 71.051 73.685 73.0362C73.7675 74.2444 72.8836 75.0288 72.1302 75.6973C71.6457 76.1272 71.2152 76.5092 71.1303 76.9252C71.081 77.1668 71.0849 77.4994 71.0895 77.887C71.105 79.2054 71.1279 81.1606 69.0908 82.3385C67.7643 83.1054 66.2235 83.1967 64.7843 83.2818C63.3635 83.3659 62.0417 83.4442 61.1229 84.1609C60.2507 84.8413 59.6089 85.9871 58.9717 87.1248C58.2576 88.3998 57.5492 89.6645 56.5287 90.2522C55.383 90.9151 54.4091 91.0014 53.563 91.0764C52.983 91.1278 52.463 91.1739 51.9888 91.3966C50.8226 91.9445 42.9035 97.5692 41.0539 100.645C39.2043 103.72 38.2279 107.116 39.2314 109.432C39.8086 110.754 41.4704 111.747 43.1181 112.732C44.3504 113.469 45.5748 114.201 46.3315 115.062C46.7183 115.502 47.0646 115.938 47.4001 116.361C48.5984 117.871 49.659 119.207 51.9345 119.927C54.8473 120.849 55.3625 121.072 55.5253 121.94C55.5867 122.267 55.408 123.148 55.1911 124.219L55.191 124.219C54.8329 125.986 54.3705 128.267 54.7117 129.419C55.2541 131.269 57.7057 132.001 58.9804 130.07C59.896 128.689 59.5573 125.973 59.3299 124.15L59.3299 124.149L59.3297 124.148L59.3296 124.147C59.2393 123.422 59.1665 122.839 59.1974 122.536C59.2711 121.814 60.1988 121.57 61.7083 121.173C62.4202 120.985 63.2616 120.764 64.2038 120.442C67.1436 119.434 67.3877 116.092 66.0262 113.917C64.6648 111.742 64.5835 110.137 66.2161 108.992C67.8487 107.848 68.4996 107.197 68.0928 105.835C67.686 104.474 67.6046 102.787 68.6352 102.001C69.1956 101.573 69.1706 100.855 69.1445 100.105C69.1227 99.4757 69.1 98.8237 69.4217 98.3015C70.1268 97.157 71.9493 97.2384 74.6722 98.1116C77.3951 98.9849 78.4528 100.232 79.185 101.974C79.638 103.051 80.4562 103.43 81.13 103.743C81.5455 103.936 81.9061 104.103 82.0923 104.393C82.5805 105.152 82.5805 105.998 81.5499 107.441C80.5139 108.884 81.3601 113.559 83.5351 113.342C85.7102 113.125 87.7496 111.33 88.2649 109.318C88.7802 107.305 90.6841 107.197 91.2048 108.857C91.4352 109.591 91.5042 110.405 91.5729 111.217C91.6595 112.239 91.7458 113.258 92.154 114.107C92.2959 114.403 92.4504 114.701 92.6041 114.999C93.2432 116.234 93.8705 117.447 93.5425 118.322C93.3624 118.804 92.9898 119.153 92.6516 119.47C92.2261 119.868 91.8552 120.215 91.9912 120.714C92.1064 121.136 93.1842 121.875 94.5424 122.806C96.0624 123.848 97.9337 125.13 99.1998 126.479C101.592 129.034 101.673 131.676 100.561 133.498C99.935 134.52 98.4824 134.858 96.8184 135.245C95.5135 135.549 94.0786 135.883 92.8103 136.601C89.9301 138.233 88.2432 138.152 85.1135 137.441L84.9342 137.401C81.9234 136.722 80.3951 136.378 79.5918 137.713C78.7782 139.074 79.7817 140.105 81.3058 139.996C82.83 139.888 83.7792 141.086 83.3453 141.9C83.2146 142.145 82.9877 142.361 82.7423 142.594C82.1727 143.136 81.5041 143.772 81.7126 145.084C82.011 146.961 83.4266 148.322 85.9543 148.322C88.4819 148.322 88.4819 150.47 87.4784 151.262C86.4695 152.049 83.9962 152.244 82.3907 152.157C81.6833 152.121 81.2455 152.793 80.7864 153.497C80.2034 154.391 79.5861 155.338 78.3389 154.956C77.3205 154.646 77.0571 154.126 76.8015 153.621C76.4976 153.021 76.2047 152.442 74.6668 152.265C71.8408 151.94 69.2807 152.889 69.2536 155.341C69.2428 156.312 69.364 157.043 69.4604 157.624C69.6072 158.51 69.6963 159.048 69.1722 159.555C68.7881 159.928 67.8282 159.933 66.7475 159.939C65.3865 159.947 63.8341 159.956 62.9996 160.7C62.1773 161.433 61.8476 162.321 61.5556 163.108C61.316 163.754 61.1019 164.331 60.6618 164.697L60.6048 164.745C59.6402 165.543 58.6279 166.382 57.5322 168.993C56.4148 171.657 55.8453 173.723 55.6555 175.057C55.4977 176.167 54.7177 176.504 53.1942 177.162L53.1936 177.162L53.1894 177.164C52.8813 177.297 52.543 177.444 52.1732 177.612C49.971 178.621 45.7837 180.986 44.7477 183.459C43.7117 185.933 44.9375 189.089 46.2718 191.942C47.6061 194.796 47.796 197.003 45.3497 197.518C42.9035 198.034 41.3522 195.967 40.7013 191.915C40.0504 187.864 39.4212 187.131 36.8394 186.936C35.4774 186.836 34.7433 186.568 34.0782 186.326C33.4825 186.108 32.9421 185.911 32.0554 185.873C30.1786 185.792 28.329 186.741 27.0218 188.536C26.2091 189.652 25.5661 189.098 24.8102 188.445C24.3503 188.048 23.8485 187.615 23.2412 187.5C21.6357 187.196 17.5568 187.283 15.5445 189.431C13.5322 191.579 12.2521 195.251 11.7097 199.384C11.1673 203.517 12.0894 209.446 17.0415 210.916C20.4136 211.917 21.8039 209.965 23.3444 207.803C24.0663 206.789 24.8212 205.73 25.8285 204.906C28.9853 202.324 32.2181 204.336 32.3808 205.915C32.4524 206.61 31.8023 207.593 31.0495 208.732C30.0918 210.181 28.968 211.881 28.9528 213.557C28.9271 216.389 30.483 216.441 34.6758 216.58C34.9163 216.588 35.1656 216.597 35.4237 216.606C39.205 216.735 38.4348 219.613 37.8236 221.897C37.6659 222.486 37.5188 223.036 37.4631 223.489L37.4411 223.667C37.1671 225.873 36.7582 229.164 39.7467 229.824C40.8883 230.076 41.7855 230.126 42.4763 230.164C43.6466 230.229 44.2246 230.261 44.3951 231.186C44.6663 232.656 43.2506 234.695 41.6776 234.342C40.9994 234.191 40.7027 233.903 40.393 233.603C39.9819 233.204 39.5478 232.783 38.1683 232.628C36.7632 232.471 36.1833 231.836 35.4159 230.995C34.862 230.388 34.2105 229.675 33.0805 228.956C31.8672 228.183 31.7758 227.372 31.6795 226.517C31.5623 225.475 31.4378 224.37 29.2728 223.191C27.1914 222.057 25.4046 221.703 23.9222 221.409C22.5961 221.146 21.5134 220.932 20.6811 220.251C20.105 219.781 19.731 219.288 19.3852 218.832C18.6696 217.888 18.0748 217.104 16.0598 217.013C14.765 216.954 13.8316 217.257 13.0016 217.527C11.9158 217.881 11.007 218.176 9.69736 217.528C9.25594 217.309 8.51955 216.969 7.6104 216.548L7.60779 216.547C3.75744 214.766 -3.1873 211.554 -3.955 210.102C-4.41106 209.24 -4.45392 207.869 -4.49628 206.514C-4.54208 205.049 -4.5873 203.603 -5.15372 202.839C-6.24395 201.37 -8.06101 201.234 -12.2809 201.153C-16.4954 201.071 -17.7213 196.423 -17.8569 194.736C-17.9326 193.794 -18.7375 193.242 -19.5195 192.707C-20.1376 192.283 -20.7415 191.87 -20.9594 191.281C-21.2042 190.612 -21.0127 190.033 -20.8121 189.426C-20.6126 188.823 -20.404 188.192 -20.6069 187.419C-20.7989 186.687 -21.3668 185.797 -21.9877 184.825C-22.6821 183.737 -23.4428 182.546 -23.8179 181.355C-23.9573 180.909 -24.0692 180.508 -24.1728 180.137L-24.1731 180.136L-24.1731 180.136C-24.5934 178.631 -24.8784 177.61 -26.3184 175.996C-27.1449 175.069 -27.8851 174.615 -28.5254 174.223C-29.2761 173.762 -29.8893 173.386 -30.3431 172.432C-31.1838 170.664 -31.8401 168.028 -32.0028 166.26C-32.0895 165.318 -32.4851 164.369 -32.8566 163.478C-33.1829 162.695 -33.4907 161.957 -33.5541 161.307C-33.6088 160.747 -33.5356 160.369 -33.4661 160.01C-33.3632 159.479 -33.2685 158.989 -33.6084 158.015C-34.1779 156.382 -33.6897 155.243 -33.1744 154.316C-32.9347 153.887 -32.9944 153.062 -33.0584 152.176C-33.1321 151.159 -33.2115 150.061 -32.849 149.391C-32.6556 149.033 -32.3979 148.617 -32.1212 148.169L-32.1209 148.169C-31.4276 147.047 -30.6159 145.735 -30.4027 144.688C-30.191 143.645 -29.5391 142.082 -28.9944 140.776C-28.7717 140.242 -28.567 139.751 -28.4175 139.356C-28.1807 138.73 -28.2532 137.669 -28.3244 136.628C-28.4081 135.404 -28.4899 134.208 -28.065 133.78C-27.8248 133.54 -27.4144 133.327 -26.9645 133.094C-25.941 132.563 -24.7138 131.927 -24.8268 130.623C-24.9083 129.683 -25.3383 129.316 -25.7096 128.999C-26.0796 128.683 -26.3914 128.417 -26.2425 127.684C-25.9532 126.258 -26.0975 126.215 -27.0958 125.917L-27.1917 125.888C-28.2819 125.563 -29.3125 123.686 -29.3396 121.864C-29.3437 121.593 -29.3435 121.331 -29.3433 121.078V121.077V121.077V121.077V121.077V121.076V121.076V121.076V121.076V121.075V121.075V121.075V121.075V121.074V121.074V121.074V121.074V121.073V121.073C-29.3423 119.621 -29.3415 118.474 -30.1261 117.92C-31.0482 117.269 -31.3248 116.505 -30.3973 115.935C-29.4752 115.366 -29.2799 114.438 -30.3431 114.411C-31.4062 114.384 -32.0028 113.814 -31.9215 112.67C-31.8794 112.078 -31.423 111.517 -30.9992 110.996C-30.6031 110.509 -30.2355 110.057 -30.2617 109.649C-30.2875 109.249 -30.5027 109.058 -30.7102 108.874C-30.9396 108.67 -31.1594 108.475 -31.1024 108.016C-31.0763 107.806 -31.0282 107.605 -30.9831 107.417C-30.8407 106.824 -30.7277 106.353 -31.4279 106.085C-32.35 105.732 -32.1059 104.859 -31.7533 104.263C-31.4008 103.666 -31.6177 102.521 -32.4042 101.898C-33.1907 101.274 -32.7568 100.482 -32.1872 99.4514C-31.6177 98.4208 -32.1601 97.5475 -32.8381 97.0322C-33.1689 96.7809 -34.0831 96.5282 -35.043 96.2629C-36.0508 95.9844 -37.1089 95.692 -37.595 95.3725C-38.0821 95.0524 -38.3192 94.2797 -38.5819 93.4236C-38.8313 92.6112 -39.1036 91.7237 -39.6345 91.0766C-40.2516 90.3244 -40.8148 89.8138 -41.3655 89.3146C-41.7877 88.9318 -42.2025 88.5557 -42.6286 88.0825C-43.6103 86.9923 -44.0171 86.6669 -45.2647 86.9381C-46.1752 87.136 -46.9586 86.1175 -47.6444 85.2259L-47.6444 85.2258L-47.6447 85.2255L-47.6447 85.2255L-47.6448 85.2253L-47.6449 85.2252L-47.645 85.225L-47.6451 85.2249L-47.6452 85.2248L-47.6453 85.2246L-47.6454 85.2245C-47.8989 84.8951 -48.139 84.583 -48.3672 84.3562C-48.8972 83.8262 -49.3432 83.1216 -49.7431 82.4897L-49.7432 82.4896C-49.9776 82.1192 -50.1962 81.7737 -50.4067 81.5031C-50.9762 80.7709 -52.1478 80.9065 -52.2292 82.5391C-52.2386 82.7287 -52.244 82.905 -52.2491 83.0696C-52.2876 84.3222 -52.3052 84.8919 -53.916 85.4193C-54.6879 85.672 -55.382 85.7496 -56.0061 85.8193C-56.8554 85.9142 -57.5751 85.9947 -58.1848 86.4824C-59.1916 87.2786 -59.6827 86.4695 -60.1696 85.6675C-60.1968 85.6226 -60.224 85.5778 -60.2513 85.5332C-60.7666 84.6925 -61.5314 84.2803 -63.0502 84.7467C-64.4596 85.1731 -64.4729 85.5994 -64.5098 86.7807C-64.5128 86.8768 -64.516 86.978 -64.5201 87.0845C-64.5638 88.2246 -64.8888 88.3938 -66.2658 89.1104C-66.5987 89.2837 -66.9931 89.489 -67.4599 89.7477C-68.1148 90.113 -69.2019 90.7634 -70.4728 91.5237L-70.474 91.5244L-70.4745 91.5247L-70.4762 91.5257L-70.4771 91.5263L-70.4779 91.5267L-70.478 91.5268C-73.8487 93.5434 -78.5094 96.3316 -79.8322 96.6309C-81.6547 97.0377 -83.5043 96.3868 -82.8534 95.2694L-82.8643 95.2911ZM46.4779 244.908L46.5257 244.864C48.0078 243.479 49.5242 242.061 49.3418 240.086C49.2718 239.329 48.8156 238.451 48.3341 237.525C47.5473 236.012 46.6929 234.369 47.3457 232.905C47.8958 231.672 49.258 230.886 50.4849 230.178C51.6051 229.532 52.6126 228.951 52.786 228.154C53.0847 226.781 54.2404 226.463 55.5881 226.092C55.8804 226.012 56.1817 225.929 56.4853 225.832C57.2231 225.597 57.8794 225.089 58.4689 224.633C59.2402 224.037 59.897 223.529 60.4719 223.836C60.8604 224.044 61.159 224.454 61.4712 224.884C61.9743 225.576 62.5129 226.316 63.5203 226.336C63.7414 226.341 63.9592 226.343 64.1761 226.345C65.5606 226.357 66.9105 226.369 68.8847 227.025C70.4924 227.56 72.9632 227.18 74.8167 226.896C75.5959 226.776 76.2659 226.673 76.717 226.662C77.5948 226.64 77.7386 227.1 77.8964 227.605C78.0126 227.977 78.1364 228.374 78.5666 228.62C78.8148 228.762 79.1129 228.86 79.4807 228.982L79.4812 228.982L79.4817 228.982L79.482 228.982L79.4821 228.982C80.6177 229.357 82.4165 229.951 85.4552 232.715C89.2587 236.175 92.2871 237.077 94.4443 237.72L94.4504 237.722L94.5917 237.764L94.7193 237.802L94.8117 237.83C96.9867 238.481 99.0153 240.732 101.592 244.648C104.168 248.564 106.126 250.121 109.169 250.777C110.143 250.985 111.461 251.161 112.913 251.354L112.913 251.354C116.004 251.765 119.7 252.257 121.97 253.316C125.306 254.872 129.84 257.921 132.053 260.931C134.266 263.942 134.521 265.39 133.941 266.442C133.715 266.852 132.948 267.351 131.984 267.978C130.474 268.96 128.479 270.258 127.307 272.029C125.795 274.315 125.743 276.217 125.683 278.411C125.667 279.003 125.65 279.615 125.604 280.263C125.387 283.311 124.622 289.402 122.447 292.336C120.858 294.484 117.547 295.662 114.774 296.649L114.773 296.649L114.772 296.649L114.772 296.649L114.771 296.65L114.77 296.65L114.77 296.65L114.769 296.65L114.768 296.651C113.748 297.014 112.8 297.351 112.038 297.701C109.213 299.008 107.905 301.547 107.905 302.74L107.906 302.81L107.906 302.865C107.906 302.923 107.907 302.985 107.908 303.05L107.909 303.178L107.911 303.319C107.93 304.816 107.966 307.611 107.396 308.652C107.08 309.228 105.914 310.67 104.674 312.204C103.331 313.866 101.902 315.634 101.375 316.522C100.868 317.376 100.642 318.246 100.442 319.011C100.243 319.777 100.071 320.438 99.6716 320.872C99.3459 321.227 98.5964 321.686 97.7916 322.178C96.6266 322.891 95.3457 323.675 95.0666 324.317C94.8909 324.723 94.8363 325.374 94.777 326.081C94.6771 327.273 94.5639 328.622 93.8353 329.215C93.3527 329.607 92.3751 329.999 91.275 330.441C89.7292 331.061 87.9418 331.779 86.9468 332.729C86.0826 333.555 85.9641 334.467 85.8587 335.279C85.7563 336.067 85.6663 336.761 84.9182 337.188C84.1328 337.635 83.5692 337.467 83.0538 337.314C82.5689 337.17 82.1266 337.038 81.5824 337.443C80.9143 337.94 80.9779 339.964 81.0396 341.926C81.0815 343.261 81.1226 344.568 80.9315 345.346C80.701 346.284 80.0548 346.902 79.4289 347.501C78.7737 348.128 78.1406 348.734 78.0296 349.663C77.9263 350.526 78.1686 351.127 78.4894 351.922C78.8423 352.797 79.2903 353.908 79.4778 355.863C79.8413 359.6 79.4073 365.654 77.4492 367.541C75.4912 369.429 71.613 369.244 69.9424 368.338C68.9732 367.813 68.8839 366.921 68.7891 365.974C68.7206 365.288 68.6491 364.574 68.2392 363.95C68.0317 363.636 67.7708 363.322 67.4892 362.983L67.4888 362.982C66.4381 361.717 65.0984 360.104 65.1583 356.845C65.1905 354.96 65.5328 352.652 65.8613 350.438C66.2531 347.797 66.6252 345.288 66.4276 343.789C66.2309 342.298 65.3017 340.838 64.4217 339.456C63.6758 338.284 62.9654 337.168 62.7663 336.136C62.3324 333.89 62.2239 323.118 63.4552 313.073C63.9312 309.189 64.3862 306.508 64.7066 304.62L64.7067 304.62C65.2149 301.626 65.3845 300.626 64.7624 299.984C63.7481 298.932 63.7481 297.625 64.2525 296.611C64.7624 295.596 65.0499 293.671 64.6159 290.991C64.182 288.306 63.1297 285.518 59.1051 282.833C58.0965 282.161 57.1949 281.634 56.3866 281.161C53.9693 279.748 52.3865 278.823 51.2727 275.945C49.7865 272.099 46.5212 265.829 44.7096 263.546L44.6151 263.427C42.8467 261.199 41.42 259.402 41.8837 254.845C42.3556 250.202 43.6953 247.523 46.4887 244.908H46.4779ZM42.0071 59.0854C41.5546 59.0217 41.1509 58.965 40.9671 59.1397H40.9562C40.6726 59.4069 40.5578 59.742 40.4388 60.0899C40.2846 60.5403 40.1232 61.012 39.5785 61.3853C38.3093 62.2586 36.2048 61.6782 34.5016 60.7344C33.3551 60.0991 31.6483 60.3683 29.8923 60.6452L29.8921 60.6452C29.0395 60.7796 28.1754 60.9159 27.3581 60.9514C24.8576 61.0598 22.8995 60.8754 21.3754 60.0076C20.6013 59.5641 20.4162 58.7666 20.2126 57.8895C20.0154 57.0395 19.8007 56.1147 19.0159 55.3646C17.4212 53.8404 18.5386 51.3074 19.6668 50.4341C20.4066 49.8615 20.1622 49.4008 19.8343 48.7829C19.6622 48.4585 19.4671 48.0907 19.3793 47.6407C19.2659 47.0489 19.6458 46.4783 20.0291 45.9026C20.4889 45.212 20.9537 44.5139 20.578 43.7625C19.8892 42.3848 22.65 39.2334 25.476 38.1432C28.3073 37.0584 31.7136 36.478 31.8601 37.8557C31.9541 38.74 32.4638 39.0098 33.1051 39.3492C33.4629 39.5386 33.8617 39.7497 34.2521 40.1013C34.7915 40.587 34.6737 41.2307 34.5661 41.8189C34.4561 42.4196 34.3568 42.9625 34.9789 43.2201C35.5806 43.4693 35.8792 42.8946 36.2095 42.2589C36.5552 41.5938 36.9356 40.8617 37.7344 40.9366C38.6076 41.0184 38.4266 41.9156 38.2676 42.7033C38.1423 43.3246 38.0306 43.8779 38.4612 43.909C38.9203 43.9421 39.2439 43.0529 39.6051 42.0603C40.012 40.9421 40.4666 39.6927 41.2166 39.4829C42.6323 39.087 44.1564 41.262 44.1564 42.5312C44.1564 43.0907 43.6433 44.4952 43.0628 46.084C42.3263 48.0997 41.4815 50.412 41.439 51.6708C41.4005 52.8103 42.0238 53.7622 42.6577 54.7305C43.2761 55.6749 43.9047 56.635 43.9395 57.8C43.9899 59.3641 42.903 59.2113 42.0071 59.0854ZM78.3496 63.0667C78.5231 62.5081 79.8466 63.3922 80.0365 65.1333C80.2263 66.8744 80.606 69.0224 82.3471 70.8448C83.3501 71.8948 84.0814 72.1328 84.5677 72.2912C84.9256 72.4077 85.151 72.481 85.2544 72.8029C85.4985 73.5623 85.7697 75.9055 84.8747 76.5293C84.6841 76.6621 84.3552 76.8506 83.9578 77.0783L83.9576 77.0785L83.9574 77.0786L83.9569 77.0788C82.4879 77.9205 80.0827 79.2986 80.2534 80.3912C80.3003 80.6909 80.3622 80.9689 80.4187 81.2219C80.6237 82.1412 80.7552 82.7311 79.8195 82.8375C78.6262 82.9731 76.5813 82.8917 75.0084 81.8015C73.4299 80.7112 71.499 82.5608 71.9872 84.7088C72.3921 86.4906 73.7527 86.1784 75.4 85.8003L75.4005 85.8002C75.7387 85.7226 76.0891 85.6422 76.4457 85.5766C78.5394 85.1969 80.0365 86.4173 80.823 87.6703C81.1395 88.1746 81.2056 88.8238 81.271 89.4656C81.3681 90.4185 81.4635 91.355 82.3742 91.7763C83.6072 92.3467 84.0912 92.761 85.1242 93.645L85.1256 93.6462C85.3692 93.8547 85.6433 94.0893 85.965 94.3582C87.6519 95.7684 88.8723 96.6146 89.5828 95.6925C89.9743 95.1805 89.697 94.4161 89.4564 93.7529C89.2637 93.2216 89.0945 92.7552 89.3116 92.5357C89.4724 92.3748 89.7811 92.4795 90.1645 92.6096C90.9449 92.8744 92.0354 93.2443 92.821 91.695C93.9926 89.3843 92.6854 86.9109 91.3782 85.4139C90.6006 84.5234 90.5082 83.8555 90.4456 83.4034C90.403 83.0955 90.3743 82.8877 90.1523 82.7778C89.6045 82.5066 90.0439 81.6876 90.6676 81.9642C91.0625 82.1393 91.153 81.8754 91.2489 81.5962C91.3044 81.4343 91.3618 81.2673 91.4812 81.1777C91.8067 80.9336 92.5444 80.7438 92.7884 82.1594C93.0325 83.5751 93.602 86.0485 95.4788 86.4553C96.8495 86.7524 97.1033 85.9181 97.3625 85.0662C97.4581 84.7518 97.5545 84.435 97.7081 84.1718C98.2776 83.19 100.181 81.8611 101.228 81.5899C102.275 81.3187 102.573 80.12 101.38 79.2793C100.817 78.8845 100.244 78.6631 99.7395 78.4686C99.1701 78.2489 98.6894 78.0634 98.4132 77.7009C98.1787 77.3931 98.2544 77.0205 98.3267 76.6643C98.415 76.2293 98.4984 75.8186 98.0064 75.5801C97.6805 75.4221 97.3324 75.4187 96.9714 75.4151C96.3409 75.409 95.6711 75.4025 95.0123 74.5712C94.4252 73.8303 94.4861 73.3874 94.5307 73.0637C94.5647 72.8162 94.5892 72.6384 94.3072 72.4504C93.6563 72.0164 93.2712 71.1974 93.9004 70.6821C94.2288 70.4132 94.8291 70.4398 95.3975 70.4649C95.918 70.488 96.4116 70.5099 96.645 70.3024C97.1331 69.8685 96.4009 69.1308 95.2293 68.8596C94.0577 68.5884 95.3106 67.8236 96.1514 67.6338C96.9921 67.444 96.2056 65.3774 94.6001 65.9198C94.1243 66.0805 93.7157 66.2513 93.372 66.3949C92.5558 66.7359 92.1056 66.924 91.9911 66.4622C91.9142 66.1547 92.5166 65.8883 93.1849 65.5928C93.9312 65.2628 94.7598 64.8964 94.817 64.3956C94.9255 63.4464 94.3017 62.6003 93.0759 62.9149C92.5329 63.0542 92.0547 63.3661 91.6245 63.6466C91.0837 63.9993 90.6187 64.3026 90.1957 64.1516C89.8612 64.0321 89.853 63.9231 89.8414 63.7686C89.8267 63.5723 89.8064 63.3025 89.1055 62.8444C88.4345 62.4057 89.3253 61.9687 90.3268 61.4773C91.1953 61.0512 92.147 60.5843 92.2352 60.0401C92.425 58.8685 91.145 57.6752 90.1686 58.6787C89.9656 58.8873 89.7698 59.1027 89.5811 59.3102C88.8573 60.1061 88.2386 60.7864 87.7224 60.5283C87.3891 60.3616 87.3189 60.104 87.2162 59.727C87.1183 59.3676 86.9908 58.8998 86.5779 58.299C85.7317 57.0677 85.7643 56.227 86.8762 55.8202C87.9881 55.4134 87.9936 54.052 86.7948 53.2112C85.5961 52.3705 84.3215 51.8227 83.394 52.5875C82.975 52.9325 82.7912 53.4242 82.6385 53.8326C82.4552 54.3231 82.3167 54.6935 81.8698 54.5455C81.4986 54.4218 81.308 54.0655 81.1328 53.7377C80.9239 53.3471 80.7367 52.9971 80.2914 53.1299C79.4724 53.3739 78.7401 53.1841 79.7761 52.0939C80.8121 51.0036 81.1104 50.3256 80.644 49.5934C80.1775 48.8611 79.749 48.1777 80.5897 48.015C81.4305 47.8522 81.3762 46.3552 80.3999 46.301C80.0231 46.28 79.8038 46.3439 79.5984 46.4038C79.2715 46.499 78.9795 46.5841 78.1435 46.301C77.7866 46.1801 77.4263 45.9899 77.0351 45.7834C75.9338 45.202 74.5869 44.4909 72.3777 44.831C70.2063 45.1654 68.3658 47.3028 67.1873 48.6714C66.7408 49.1899 66.3893 49.5981 66.1509 49.7561C66.0266 49.8376 65.8851 49.922 65.7321 50.0132C64.8168 50.5591 63.4945 51.3475 63.0483 53.2112C62.5276 55.3863 62.2618 59.4109 64.464 60.6096C65.5 61.1736 66.2839 61.4602 67.0755 61.7496C67.9666 62.0754 68.8673 62.4048 70.1484 63.1373C71.6256 63.9819 72.9714 63.4714 74.0313 63.0693C74.7071 62.8129 75.2667 62.6006 75.6701 62.8118C76.1431 63.0595 76.3029 63.4666 76.4459 63.8307C76.616 64.2641 76.7622 64.6367 77.3841 64.6072C78.1788 64.5695 78.1968 64.2572 78.2243 63.7775C78.2364 63.5663 78.2504 63.3228 78.3333 63.0559L78.3496 63.0667ZM422.002 294.62C420.711 295.472 420.261 296.649 420.331 298.173C420.364 298.877 420.087 299.023 419.809 299.17C419.485 299.34 419.16 299.512 419.317 300.565C419.467 301.583 419.794 302.288 420.058 302.857C420.302 303.382 420.492 303.791 420.44 304.226C420.388 304.662 420.073 304.922 419.781 305.163C419.467 305.423 419.178 305.662 419.274 306.076C419.329 306.314 419.391 306.875 419.464 307.546V307.547L419.464 307.548C419.637 309.119 419.876 311.294 420.256 311.37C420.75 311.469 420.767 311.689 420.902 313.515C420.915 313.69 420.929 313.881 420.944 314.087C421.018 315.052 421.025 315.738 421.03 316.234V316.234C421.037 316.948 421.04 317.269 421.232 317.461C421.557 317.786 421.937 319.565 420.624 320.433C419.312 321.301 418.661 322.136 418.948 323.807C419.236 325.478 421.921 326.855 424.568 325.944C425.463 325.638 426.333 325.273 427.182 324.917C428.842 324.222 430.417 323.562 431.928 323.444C433.245 323.34 433.681 323.549 434.031 323.716C434.288 323.839 434.499 323.939 434.976 323.877C435.455 323.815 435.984 323.272 436.597 322.641C437.431 321.784 438.421 320.767 439.652 320.58C440.406 320.465 441.116 320.444 441.805 320.425H441.805C443.068 320.389 444.259 320.355 445.526 319.744C447.484 318.801 449.551 318.329 452.708 319.782C455.865 321.23 457.204 322.359 457.53 324.566C457.576 324.884 457.617 325.188 457.656 325.477C457.887 327.205 458.044 328.379 458.945 328.412C459.492 328.432 459.883 327.824 460.228 327.286C460.547 326.79 460.828 326.352 461.158 326.524C461.504 326.704 461.621 327.213 461.731 327.686C461.84 328.156 461.94 328.591 462.249 328.629C462.529 328.663 462.705 328.502 462.864 328.357C463.055 328.181 463.222 328.029 463.518 328.265C464.06 328.699 465.151 330.695 465.151 332.182C465.151 332.836 464.996 333.287 464.847 333.719C464.659 334.269 464.48 334.79 464.641 335.664C464.8 336.53 465.83 337.183 466.896 337.858C467.752 338.401 468.63 338.957 469.099 339.651C470.151 341.207 471.708 340.703 472.543 339.651C473.379 338.598 474.355 338.452 474.757 339.542L474.771 339.583C474.786 339.623 474.801 339.664 474.815 339.704L474.847 339.795C475.191 340.766 475.444 341.482 477.148 340.638C477.969 340.231 478.547 339.635 479.053 339.112C479.688 338.457 480.211 337.918 480.956 338.018C481.182 338.048 481.402 338.087 481.615 338.124L481.617 338.124C482.664 338.308 483.534 338.46 484.075 337.438C484.316 336.982 484.532 336.193 484.777 335.299C485.195 333.776 485.696 331.95 486.543 330.945C486.683 330.779 486.814 330.624 486.938 330.477C488.002 329.221 488.505 328.626 488.865 327.392C489.177 326.32 490.696 324.807 491.763 323.744L491.763 323.743L491.769 323.738L491.771 323.736C492.071 323.437 492.335 323.173 492.526 322.966C493.029 322.419 493.547 320.628 494.027 318.966C494.375 317.762 494.704 316.625 494.994 316.078C495.202 315.682 495.484 315.33 495.762 314.983C496.403 314.181 497.026 313.402 496.697 312.161C496.225 310.382 496.187 309.043 496.626 308.028C497.06 307.014 497.353 304.367 495.683 302.442C495.459 302.184 495.251 301.949 495.059 301.731L495.048 301.718L495.047 301.718C493.817 300.324 493.243 299.674 493.182 298.672C493.141 297.988 492.682 297.694 492.187 297.375C491.841 297.154 491.478 296.92 491.224 296.535C490.99 296.177 490.881 295.929 490.79 295.724C490.642 295.387 490.544 295.163 490.025 294.756C489.624 294.44 489.542 293.859 489.456 293.251C489.363 292.593 489.266 291.905 488.756 291.49C488.451 291.243 488.053 290.996 487.649 290.745C486.751 290.188 485.828 289.615 485.854 288.99C485.892 288.084 485.567 284.965 484.731 284.092C484.298 283.642 484.246 282.791 484.19 281.884C484.138 281.041 484.083 280.15 483.717 279.487C483.306 278.742 482.714 278.558 482.235 278.409C481.827 278.283 481.501 278.182 481.434 277.784C481.417 277.688 481.395 277.543 481.367 277.362L481.367 277.361C481.141 275.901 480.544 272.049 479.801 271.73C478.966 271.372 477.772 277.062 477.479 281.087C477.192 285.112 475.776 286.782 473.965 286.674C473.072 286.62 472.777 286.242 472.357 285.702C471.924 285.146 471.358 284.42 469.869 283.701C469.476 283.512 469.109 283.342 468.768 283.183C466.559 282.158 465.448 281.642 465.481 279.823C465.519 277.724 466.534 276.666 467.548 276.053C468.562 275.435 468.416 274.025 467.656 274.166C467.53 274.189 467.392 274.222 467.24 274.258C466.478 274.438 465.373 274.7 463.74 274.274C462.715 274.007 462.178 273.543 461.747 273.171C461.355 272.832 461.052 272.57 460.551 272.604C459.499 272.674 457.394 273.656 454.932 276.482C453.28 278.373 453.645 279.293 453.881 279.889C453.998 280.184 454.084 280.4 453.879 280.615C453.536 280.977 453.182 280.736 452.818 280.487C452.526 280.288 452.227 280.085 451.921 280.181C451.637 280.271 451.396 280.472 451.178 280.655C450.867 280.914 450.604 281.135 450.327 280.941C450.153 280.819 450.146 280.491 450.138 280.099C450.124 279.427 450.106 278.566 449.236 278.223C447.859 277.681 445.754 278.261 444.778 279.563C444.422 280.037 444.114 280.844 443.799 281.668L443.799 281.669C443.25 283.108 442.681 284.599 441.805 284.461C441.271 284.377 440.862 284.183 440.504 284.014C439.941 283.747 439.504 283.54 438.903 283.918C438.412 284.228 438.285 285.063 438.14 286.016C437.995 286.967 437.832 288.036 437.271 288.816C436.148 290.373 432.123 291.463 429.184 292.082C426.244 292.7 424.036 293.28 422.002 294.62ZM468.41 257.633C465.367 256.982 464.418 254.905 465.221 254.043L465.216 254.053C465.742 253.484 466.67 253.69 467.633 253.904C468.386 254.072 469.161 254.244 469.783 254.053C470.41 253.859 470.665 253.395 470.933 252.91C471.268 252.301 471.622 251.658 472.755 251.477C474.218 251.243 475.754 251.907 478.471 253.081C479.531 253.539 480.772 254.076 482.258 254.666L482.811 254.886C487.568 256.775 487.783 256.861 488.17 258.257C488.484 259.388 488.731 259.46 489.944 259.817C490.285 259.918 490.702 260.04 491.219 260.215C493.316 260.926 492.653 261.576 492.15 262.07L492.15 262.07C492.088 262.13 492.029 262.188 491.978 262.244C491.506 262.748 491.723 263.405 492.922 264.744C493.124 264.972 493.359 265.216 493.603 265.471C494.795 266.715 496.219 268.2 495.314 269.132C494.223 270.255 491.978 269.279 490.02 266.849C488.062 264.419 486.321 263.654 485.051 264.999C484.736 265.333 484.464 265.718 484.195 266.097C483.382 267.245 482.608 268.339 480.81 267.793C479.385 267.36 478.28 266.594 477.321 265.93C476.67 265.479 476.086 265.074 475.516 264.853C474.669 264.524 474.644 263.87 474.609 262.975C474.587 262.381 474.56 261.68 474.285 260.899C473.596 258.941 471.453 258.284 468.41 257.633ZM420.641 256.456C421.043 256.478 421.371 256.211 421.7 255.942C422.179 255.552 422.662 255.158 423.385 255.643C423.684 255.841 423.961 256.066 424.231 256.287C425.072 256.971 425.85 257.604 427.003 257.194C428.527 256.652 429.07 254.748 428.5 253.386C428.142 252.531 428.491 252.16 429.049 251.564C429.38 251.211 429.784 250.779 430.16 250.121C430.594 249.361 430.785 248.752 430.92 248.319C431.1 247.747 431.182 247.485 431.603 247.593C432.335 247.783 433.642 247.376 433.181 246.807C433.032 246.622 432.834 246.515 432.625 246.402C432.191 246.166 431.713 245.907 431.548 244.876C431.304 243.352 431.196 241.801 432.009 240.716C432.308 240.315 432.685 239.959 433.02 239.642C433.597 239.097 434.052 238.667 433.778 238.324C433.583 238.08 433.239 237.929 432.887 237.775C432.456 237.587 432.014 237.393 431.82 237.016L431.773 236.927C431.417 236.237 430.841 235.12 429.563 235.275C428.603 235.392 428.292 236.285 428 237.12C427.887 237.445 427.777 237.762 427.632 238.02C427.117 238.942 426.819 239.11 426 239.219L425.931 239.228C425.159 239.33 424.704 239.39 424.177 240.607C423.635 241.86 422.897 243.162 421.568 243.515C421.116 243.635 420.744 243.685 420.424 243.729C419.805 243.814 419.379 243.872 418.932 244.355C418.584 244.731 418.65 245.123 418.713 245.492C418.773 245.842 418.829 246.172 418.525 246.449C418.232 246.717 417.955 246.571 417.595 246.38C417.189 246.166 416.677 245.895 415.916 246.096C414.473 246.476 413.633 248.027 414.501 249.768C414.865 250.5 415.278 251.02 415.639 251.473C416.137 252.1 416.536 252.601 416.567 253.359C416.573 253.491 416.576 253.62 416.579 253.745L416.579 253.747C416.607 254.857 416.627 255.648 418.118 255.453C418.947 255.345 419.104 255.567 419.29 255.832C419.476 256.097 419.693 256.405 420.646 256.462L420.641 256.456ZM406.424 261.239C406.305 261.445 406.178 261.665 405.898 261.707H405.893C405.074 261.83 404.237 260.876 403.284 259.79C402.558 258.962 401.764 258.057 400.859 257.492C398.765 256.191 397.323 255.155 396.726 253.224C396.129 251.293 393.141 246.861 391.861 245.066C391.549 244.629 391.266 244.199 390.997 243.792C390.162 242.526 389.475 241.485 388.568 241.177C387.369 240.77 386.773 238.671 387.586 237.83C388.347 237.044 390.777 238.468 391.666 238.989C391.728 239.025 391.782 239.057 391.828 239.083C392.52 239.482 392.611 240.122 392.691 240.684L392.696 240.716C392.737 241.004 393.161 241.153 393.771 241.368C394.367 241.578 395.14 241.85 395.907 242.375C396.915 243.066 397.762 243.997 398.374 244.669L398.374 244.669L398.374 244.669C398.704 245.031 398.965 245.318 399.145 245.451C399.379 245.622 399.618 245.611 399.82 245.603C400.066 245.592 400.257 245.584 400.317 245.912C400.425 246.509 400.946 246.753 401.434 246.807C401.922 246.861 402.139 247.002 402.22 247.843C402.279 248.452 402.64 248.463 402.999 248.475C403.136 248.479 403.272 248.483 403.392 248.521C403.826 248.656 404.124 248.955 403.745 250.072C403.365 251.19 403.994 251.813 404.835 252.03C405.393 252.173 405.771 252.967 406.073 253.6C406.23 253.927 406.365 254.212 406.495 254.341C406.646 254.492 406.938 254.471 407.273 254.448C407.779 254.413 408.381 254.371 408.724 254.91C409.139 255.561 408.728 256.579 408.396 257.401C408.269 257.717 408.153 258.004 408.1 258.23C408.02 258.574 408.061 259.001 408.1 259.41C408.153 259.969 408.204 260.496 407.937 260.73C407.808 260.846 407.581 260.836 407.341 260.825C407.119 260.815 406.886 260.804 406.712 260.893C406.586 260.956 406.507 261.094 406.424 261.239ZM296.283 273.374C297.845 274.442 297.807 278.342 297.042 280.046C296.796 280.599 296.541 281.1 296.3 281.572C295.801 282.551 295.365 283.408 295.193 284.363C295.137 284.674 295.093 284.98 295.05 285.284L295.05 285.285C294.896 286.367 294.747 287.413 294.07 288.458C293.691 289.044 293.387 290.095 293.035 291.313C292.581 292.883 292.048 294.73 291.168 296.22C289.612 298.867 288.885 299.99 287.578 300.066L287.456 300.072C286.125 300.146 283.826 300.273 283.374 298.726C283.159 297.999 283.2 297.151 283.236 296.402C283.279 295.509 283.315 294.758 282.902 294.522C282.143 294.088 281.779 292.743 282.902 291.583C284.025 290.422 285.842 288.355 285.223 286.978C284.605 285.6 283.992 283.463 285.115 282.047C286.238 280.631 287.816 280.127 289.747 279.98C291.496 279.848 292.467 278.14 293.198 276.852L293.271 276.724C293.302 276.669 293.333 276.615 293.363 276.562C293.382 276.53 293.401 276.497 293.419 276.466C293.591 276.17 293.761 275.803 293.937 275.421C294.54 274.117 295.217 272.654 296.283 273.385V273.374ZM331.786 29.3774C332.545 28.1021 333.356 26.7381 333.991 25.9987L333.98 26.0095C334.989 24.8379 336.291 25.1146 337.761 25.9011C338.332 26.2089 338.916 26.6888 339.534 27.1971C340.506 27.9966 341.564 28.8664 342.794 29.2477C343.887 29.5865 344.491 29.1957 345.158 28.7636C345.719 28.4 346.326 28.0071 347.307 27.9948C348.698 27.9772 350.248 29.4511 352.274 31.3786C353.378 32.4284 354.624 33.6127 356.062 34.764C360.141 38.0293 364.572 40.0145 366.313 40.3128C367.396 40.4984 368.616 40.0438 370.26 39.4309C371.259 39.0585 372.415 38.6276 373.793 38.2462C377.438 37.2428 385.46 37.4055 387.445 37.7581C388.127 37.8791 390.197 38.3885 392.695 39.0029L392.695 39.003L392.697 39.0034L392.698 39.0036L392.698 39.0037C397.473 40.1785 403.808 41.737 404.987 41.7014C406.293 41.6619 407.34 39.967 408.776 37.6433C409.315 36.7719 409.908 35.8122 410.59 34.8182C412.867 31.499 415.076 31.3373 416.788 31.212C416.956 31.1997 417.12 31.1878 417.278 31.1733C419.046 31.0105 419.973 31.2546 420.814 32.4533C420.859 32.5166 420.903 32.5795 420.947 32.642C421.735 33.7589 422.422 34.734 423.917 34.6826C425.495 34.6284 426.423 34.8725 426.911 35.5234C427.399 36.1742 428.647 36.2339 429.493 35.9302C429.718 35.8493 430.195 35.6073 430.815 35.2924L430.816 35.2918C432.528 34.4231 435.33 33.0012 436.945 32.8818C438.529 32.7648 439.145 33.3937 439.648 33.9075C439.845 34.1084 440.024 34.2917 440.238 34.406C440.997 34.8128 453.749 35.0026 454.649 34.7857C454.994 34.7027 456.153 33.9081 457.645 32.8852L457.646 32.8844C460.055 31.2327 463.332 28.9863 465.449 28.1792C468.877 26.8774 472.956 28.3744 474.588 29.2694C476.153 30.1273 476.567 29.9934 477.654 29.6417L477.799 29.5949C478.998 29.2097 481.092 29.6491 483.213 30.3271C484.492 30.7361 485.219 30.622 485.826 30.5267C486.226 30.464 486.574 30.4093 486.993 30.5169C487.519 30.6518 487.857 31.1032 488.172 31.523C488.49 31.9474 488.783 32.3394 489.222 32.3394C489.952 32.3394 490.072 32.0368 490.408 31.1914C490.474 31.0245 490.549 30.8365 490.638 30.6254C491.186 29.3508 493.144 29.0741 495.59 30.1644C498.042 31.2492 498.801 33.2344 498.639 34.7314C498.476 36.2285 498.286 38.8103 499.208 39.8463C500.13 40.8823 500.922 41.9726 499.913 43.1659C499.175 44.0388 496.315 43.9364 494.268 43.8632C493.517 43.8363 492.875 43.8133 492.488 43.8439C491.045 43.9578 490.503 45.0426 491.37 46.8651C492.244 48.6876 491.262 50.5372 490.801 51.2423C490.34 51.9474 489.662 53.336 490.503 54.1496C490.858 54.4932 491.378 54.7604 491.884 55.0198C492.575 55.3746 493.237 55.7148 493.41 56.2162C493.708 57.084 494.468 58.0115 495.775 58.5268C497.077 59.0475 498.058 60.1866 498.058 61.8735C498.058 63.2275 497.289 63.2465 496.17 63.2743C495.895 63.2811 495.598 63.2884 495.287 63.3163C494.207 63.4127 493.32 64.8283 492.406 66.288L492.406 66.2885C491.983 66.963 491.555 67.6468 491.099 68.2142C490.246 69.2798 490.415 69.9995 490.569 70.6536C490.674 71.1015 490.772 71.5185 490.53 71.9948C490.426 72.1975 490.319 72.3947 490.214 72.5867L490.213 72.5902C489.713 73.5065 489.276 74.3087 489.635 75.0702C490.069 75.9923 490.53 77.1096 489.635 77.408C489.176 77.5607 488.923 77.4006 488.635 77.2188C488.361 77.0457 488.056 76.853 487.514 76.8927C486.933 76.9352 486.233 77.2292 485.161 77.6789C484.181 78.0903 482.89 78.6319 481.097 79.2304C477.344 80.4834 477.865 81.655 478.732 83.0381C479.6 84.4213 479.6 85.9454 479.492 87.551C479.406 88.8267 480.056 88.9004 480.928 88.9993C481.153 89.0249 481.393 89.0521 481.64 89.1022C482.833 89.3463 482.562 91.0278 482.399 91.6027C482.236 92.1777 482.676 92.6387 483.598 93.0184C484.264 93.2928 484.123 94.0517 483.881 95.3543V95.3548C483.788 95.8545 483.68 96.4342 483.598 97.0973C483.4 98.6793 484.237 99.3479 485 99.9566C485.39 100.268 485.761 100.564 485.963 100.959C486.559 102.125 485.8 102.863 484.764 103.46C483.733 104.062 483.76 105.825 484.059 106.861C484.357 107.891 484.384 108.52 484.059 109.659C483.921 110.141 483.944 111.148 483.968 112.247V112.247V112.248V112.249V112.25C484.002 113.749 484.039 115.419 483.679 116.157C483.055 117.432 481.314 117.709 480.007 114.769C478.7 111.829 474.865 105.955 472.798 103.481C470.732 101.008 470.515 95.7847 471.437 92.9859C472.359 90.1871 473.151 85.1535 473.504 82.4903C473.856 79.8271 473.775 78.6013 472.413 78.5741C471.052 78.547 469.284 78.1945 468.606 76.7517C467.928 75.3089 466.268 75.5312 464.879 76.3991C463.956 76.9797 463.839 78.2077 463.704 79.6127C463.636 80.321 463.564 81.0743 463.382 81.8123C462.906 83.7468 463.438 84.6098 464.108 85.6954C464.2 85.8457 464.296 86.0002 464.391 86.1624C465.178 87.4967 463.355 89.0751 461.18 89.6175C459.422 90.0549 458.359 89.3462 457.128 88.5265C456.833 88.3295 456.528 88.1261 456.201 87.9306C454.514 86.9218 451.959 87.5455 448.287 90.5939C444.615 93.6368 440.862 98.6974 439.994 101.198C439.12 103.704 441.843 107.837 444.29 110.337C445.763 111.843 448.135 113.676 449.967 115.091L449.968 115.091C451.177 116.026 452.151 116.778 452.474 117.134C453.293 118.029 453.565 119.96 453.483 121.647C453.444 122.469 453.754 123.389 454.107 124.436C454.478 125.537 454.896 126.779 455.008 128.199C455.181 130.423 453.609 132.973 452.572 134.656C452.314 135.075 452.089 135.44 451.932 135.733C451.462 136.612 451.418 138.967 451.378 141.132C451.351 142.589 451.325 143.96 451.173 144.737C450.793 146.668 449.106 148.789 447.636 149.06C446.978 149.181 446.434 149.003 445.915 148.833C445.276 148.624 444.673 148.427 443.937 148.816C443.019 149.301 442.861 151.254 442.728 152.896C442.668 153.641 442.613 154.321 442.494 154.771C442.258 155.668 441.455 156.522 440.802 157.217C440.405 157.64 440.063 158.003 439.939 158.281C439.74 158.73 440.534 159.469 441.536 160.4C442.166 160.985 442.877 161.646 443.476 162.36C445.022 164.209 445.787 166.845 446.004 168.993C446.221 171.141 442.792 173.75 440.563 172.964C438.883 172.371 438.823 169.969 438.78 168.204V168.203C438.766 167.627 438.753 167.119 438.686 166.764C438.415 165.321 437.602 165.131 436.43 164.914C435.258 164.692 435.014 164.122 434.743 161.839C434.472 159.555 434.201 159.121 432.866 159.149C432.329 159.16 431.724 159.691 431.102 160.238C430.187 161.043 429.235 161.88 428.408 161.134C427.658 160.46 427.71 159.253 427.754 158.251C427.791 157.398 427.821 156.694 427.345 156.594C426.314 156.377 425.848 157.326 425.143 158.877C424.665 159.929 423.76 160.831 423.05 161.54C422.712 161.876 422.419 162.169 422.235 162.414C421.762 163.045 422.81 163.774 423.676 164.376C423.852 164.498 424.02 164.615 424.166 164.725C425.034 165.381 425.929 164.996 426.938 164.236C427.947 163.472 429.438 163.775 430.8 164.67C432.156 165.565 432.427 166.65 431.478 167.089C430.529 167.529 428.484 168.505 427.426 170.138C426.491 171.582 427.486 172.406 428.558 173.294C428.622 173.348 428.686 173.401 428.751 173.455C428.827 173.518 428.902 173.582 428.977 173.647C429.7 174.268 429.908 174.801 430.149 175.418C430.309 175.825 430.482 176.268 430.827 176.798C430.976 177.026 431.121 177.237 431.26 177.438C431.935 178.416 432.465 179.185 432.622 180.742C432.812 182.618 431.565 184.414 430.068 185.721C428.571 187.028 429.01 188.797 429.661 189.746C429.695 189.796 429.731 189.847 429.768 189.897C429.823 189.971 429.88 190.045 429.938 190.12C430.58 190.952 431.333 191.927 430.339 194.833C429.194 198.18 426.531 200.654 425.305 201.662C424.216 202.559 422.4 202.744 420.616 202.927C420.392 202.95 420.168 202.972 419.946 202.997C418.565 203.148 416.935 204.551 415.725 205.591L415.725 205.592L415.724 205.592L415.724 205.593C415.195 206.048 414.747 206.433 414.436 206.615C413.524 207.145 412.896 206.282 412.402 205.604C412.34 205.519 412.28 205.438 412.222 205.362C411.702 204.678 408.686 205.199 406.918 207.618C405.15 210.043 407.108 212.706 410.129 214.474C413.145 216.242 414.316 219.86 414.425 222.062C414.496 223.505 414.157 224.212 413.801 224.956C413.613 225.348 413.421 225.751 413.28 226.277C413.031 227.209 412.162 227.784 411.2 228.42C410.589 228.824 409.941 229.253 409.391 229.813C407.975 231.251 406.343 232.585 405.394 232.341C404.955 232.229 404.822 231.623 404.672 230.94C404.496 230.135 404.295 229.223 403.544 228.886L403.464 228.85L403.379 228.812C402.147 228.263 402.012 228.202 399.926 224.915C397.751 221.487 392.994 217.598 391.416 216.893C390.78 216.607 390.122 216.516 389.52 216.433C388.629 216.31 387.861 216.204 387.472 215.505C386.822 214.333 384.484 210.585 382.743 209.468C381.656 208.773 380.909 208.84 380.065 208.916C379.556 208.961 379.013 209.01 378.338 208.898C377.301 208.726 375.937 207.807 374.645 206.936C373.701 206.3 372.796 205.69 372.084 205.416C370.398 204.765 369.551 205.448 369.036 206.913C368.78 207.641 368.032 208.217 367.154 208.893C366.268 209.575 365.249 210.36 364.469 211.507C363.633 212.738 361.762 214.379 360.121 215.819C358.717 217.051 357.481 218.136 357.206 218.689C356.61 219.887 356.555 224.536 356.555 226.44C356.555 228.343 356.555 229.651 355.058 230.464C354.457 230.793 354.028 231.414 353.618 232.007C353.007 232.892 352.439 233.712 351.413 233.404C349.699 232.889 349.076 230.497 348.94 228.701C348.844 227.43 347.711 226.036 346.69 224.779C346.27 224.262 345.868 223.768 345.566 223.315C344.979 222.432 344.294 220.129 343.506 217.481L343.506 217.48L343.506 217.48L343.506 217.48C342.91 215.479 342.256 213.28 341.542 211.35C340.036 207.28 338.217 206.947 336.633 206.657C336.573 206.646 336.513 206.635 336.454 206.624L336.382 206.611L336.34 206.603L336.286 206.592C336.242 206.584 336.199 206.575 336.155 206.566C334.469 206.213 333.216 205.562 332.971 204.038C332.727 202.514 331.995 201.722 330.254 200.936C329.011 200.368 328.613 199.704 328.159 198.944C327.979 198.643 327.79 198.327 327.537 197.996C326.642 196.83 324.331 196.83 322.834 197.697C321.337 198.571 316.444 198.484 315.137 197.562C314.262 196.945 312.719 196.923 310.726 196.895C309.741 196.881 308.646 196.865 307.468 196.775C303.904 196.504 297.135 192.371 295.719 190.06C294.303 187.75 292.92 187.148 291.749 188.645C290.582 190.142 295.752 194.627 298.578 195.935C299.835 196.514 301.814 197.169 303.913 197.865L303.913 197.865L303.914 197.865L303.914 197.865C306.533 198.732 309.34 199.662 311.167 200.583C314.459 202.243 315.002 203.517 314.649 205.123C314.458 205.994 313.818 206.647 313.173 207.307C312.629 207.863 312.081 208.423 311.796 209.12C311.406 210.066 310.924 210.467 310.16 211.102C309.692 211.491 309.118 211.968 308.395 212.711C306.491 214.669 305.157 215.515 303.416 215.787C302.175 215.98 301.598 216.545 300.71 217.415C300.351 217.766 299.942 218.167 299.418 218.613C298.367 219.507 297.586 219.615 296.691 219.739C296.035 219.83 295.316 219.929 294.385 220.354C293.71 220.661 293.027 221.036 292.351 221.406L292.351 221.406L292.349 221.408L292.348 221.408C290.821 222.245 289.331 223.063 288.049 223.044C286.2 223.017 283.618 219.535 280.57 214.832C279.034 212.459 277.566 210.888 276.398 209.638C275.251 208.411 274.394 207.494 274.044 206.43C273.854 205.849 273.707 205.296 273.568 204.773L273.567 204.772C273.193 203.363 272.877 202.175 271.924 201.261C270.616 200.008 270.128 199.14 269.721 198.077C269.315 197.014 268.17 196.39 268.035 198.511C267.899 200.632 269.228 203.517 270.345 204.467C271.463 205.416 271.842 207.754 271.842 209.142C271.842 210.531 272.629 211.588 274.126 212.624C275.534 213.594 275.858 215.409 276.049 216.483C276.061 216.55 276.073 216.615 276.084 216.676C276.204 217.327 277.492 218.327 278.741 219.297C279.472 219.864 280.189 220.42 280.651 220.891C281.107 221.355 281.855 222.253 282.678 223.241L282.678 223.241C284.114 224.967 285.78 226.967 286.525 227.416C287.259 227.86 289.644 227.766 291.758 227.683H291.758H291.759H291.759C293.003 227.635 294.154 227.59 294.819 227.66C296.614 227.85 297.59 229.889 297.428 232.281C297.265 234.673 293.213 240.493 291.689 242.316C290.69 243.51 288.889 244.901 286.901 246.438C285.854 247.246 284.755 248.095 283.694 248.976C281.302 250.967 277.899 255.766 276.192 258.174C275.708 258.856 275.36 259.347 275.211 259.526C274.527 260.34 275.373 261.647 275.889 262.406C276.264 262.959 276.193 264.261 276.127 265.486V265.486C276.103 265.944 276.078 266.391 276.078 266.784C276.078 267.815 276.757 268.804 277.325 269.632L277.325 269.632L277.325 269.632C277.551 269.962 277.76 270.266 277.901 270.537C278.395 271.486 277.521 279.427 277.006 280.87C276.491 282.313 274.424 283.316 272.222 284.298C270.02 285.274 266.565 289.001 266.131 290.172C265.84 290.944 266.24 292.835 266.577 294.429L266.577 294.43C266.75 295.246 266.906 295.983 266.944 296.453C267.058 297.842 265.86 298.769 264.064 299.637C262.269 300.511 261.016 301.921 261.016 303.092C261.016 304.264 260.501 306.412 258.651 308.831L258.565 308.943L258.565 308.944C256.655 311.45 251.716 317.932 247.966 319.272C245.683 320.085 244.192 319.961 242.848 319.848C241.951 319.773 241.119 319.704 240.16 319.923C239.428 320.091 238.739 320.35 238.08 320.598L238.08 320.598C236.588 321.159 235.254 321.661 233.934 320.905C232.03 319.815 231.346 317.26 231.677 315.302C231.957 313.643 229.286 308.938 227.619 306.003C227.319 305.474 227.051 305.002 226.839 304.617C225.964 303.025 225.705 300.893 225.426 298.595L225.426 298.594C225.261 297.244 225.09 295.836 224.783 294.446C223.953 290.693 222.348 288.404 221.507 287.59C220.666 286.777 220.585 284.461 221.073 279.867C221.489 275.953 222.436 275.251 223.415 274.526C223.585 274.4 223.757 274.273 223.926 274.128C225.071 273.152 224.496 271.383 223.899 270.049C223.302 268.72 223.465 267.928 223.845 267.223C224.224 266.513 223.98 265.102 222.646 263.632C221.876 262.781 221.35 261.519 220.864 260.354C220.512 259.509 220.181 258.715 219.793 258.165C219.446 257.674 218.881 257.191 218.277 256.674C217.279 255.819 216.174 254.872 215.768 253.652C215.277 252.175 215.947 249.985 216.573 247.936L216.574 247.935C216.777 247.269 216.977 246.617 217.13 246.01C217.754 243.536 217.103 242.337 215.85 241.687C215.082 241.283 214.292 241.55 213.265 241.898C212.623 242.116 211.89 242.365 211.011 242.5C209.104 242.795 208.502 241.307 207.961 239.968L207.961 239.967C207.854 239.703 207.749 239.445 207.638 239.208C206.96 237.765 205.788 237.575 203.857 237.928C201.926 238.28 198.937 239.533 197.223 240.293C195.509 241.052 194.284 240.971 193.172 240.401C192.06 239.832 190.156 239.615 188.55 240.265C188.124 240.44 187.697 240.655 187.274 240.868C186.11 241.455 184.975 242.027 183.956 241.708C182.783 241.342 178.058 237.923 175.882 236.348L175.881 236.348L175.88 236.347L175.875 236.343L175.859 236.332C175.471 236.051 175.166 235.83 174.979 235.698C173.754 234.825 173.374 234.12 173.076 232.108C172.869 230.714 171.109 229.307 169.558 228.067L169.558 228.067L169.557 228.066C168.869 227.517 168.222 227 167.771 226.532C166.301 225.008 165.813 223.999 165.894 221.471C165.94 220.036 166.46 218.092 166.926 216.351C167.281 215.026 167.604 213.818 167.662 213.042C167.729 212.166 167.412 211.225 167.062 210.182C166.694 209.088 166.288 207.881 166.247 206.517C166.187 204.561 168.254 201.766 170.046 199.342C170.694 198.466 171.306 197.638 171.768 196.916C173.509 194.199 175.034 193.168 177.371 192.187C179.709 191.21 180.089 190.12 180.008 187.701C179.926 185.276 180.637 184.164 183.002 182.45C184.397 181.439 188.076 180.069 191.745 178.702C194.295 177.752 196.84 176.804 198.612 175.979C202.318 174.254 203.146 174.247 205.261 174.229C205.613 174.226 206.001 174.223 206.444 174.211C207.364 174.187 208.603 174.048 209.937 173.899C213.104 173.544 216.805 173.129 218.03 174.048C219 174.776 219.261 176.887 219.495 178.771C219.68 180.27 219.848 181.626 220.341 182.027C221.179 182.71 223.764 182.73 228.657 182.768H228.657H228.658H228.658H228.659H228.659H228.66H228.66H228.661H228.661H228.662H228.662H228.663H228.663C230.26 182.781 232.102 182.795 234.21 182.835C241.603 182.976 246.117 184.432 249.628 185.564L249.628 185.564C250.187 185.744 250.721 185.916 251.236 186.074C253.934 186.896 254.931 186.424 255.885 185.973C256.258 185.796 256.624 185.623 257.083 185.531C257.911 185.363 258.494 185.596 259.09 185.834C259.67 186.066 260.263 186.302 261.108 186.182C262.822 185.938 263.663 184.333 264.916 180.959C266.169 177.585 266.169 175.22 264.889 174.84C264.263 174.655 263.483 175.047 262.629 175.475C261.735 175.924 260.761 176.413 259.801 176.321C258.866 176.232 258.397 175.866 258.023 175.574C257.647 175.28 257.368 175.062 256.807 175.28C256.591 175.364 256.367 175.479 256.127 175.602C255.125 176.119 253.846 176.778 251.719 175.876C249.083 174.759 246.881 171.901 247.206 170.68C247.269 170.444 247.334 170.232 247.393 170.039C247.639 169.232 247.78 168.769 247.233 168.397C246.95 168.203 246.934 167.786 246.916 167.302C246.89 166.619 246.859 165.802 246.062 165.294C245.045 164.646 244.198 165.226 243.279 165.854C242.967 166.068 242.647 166.287 242.308 166.466C240.979 167.176 240.594 168.288 241.739 169.487C242.883 170.68 243.702 171.846 242.721 172.259C242.224 172.467 241.777 172.242 241.241 171.973C240.719 171.71 240.112 171.404 239.293 171.418C237.633 171.445 236.195 171.06 234.834 168.478C233.896 166.699 233.668 165.331 233.476 164.172C233.389 163.65 233.309 163.169 233.174 162.712C232.74 161.242 230.592 159.528 229.448 159.528C228.303 159.528 227.023 158.682 226.155 157.38C225.288 156.079 222.293 154.419 221.426 154.88C220.558 155.341 223.845 159.284 225.179 160.537C226.513 161.79 229.611 163.775 230.538 164.291C231.441 164.792 230.843 165.479 230.31 166.091L230.267 166.14C229.894 166.572 229.982 167.312 230.083 168.155V168.155V168.155L230.083 168.156C230.129 168.539 230.177 168.944 230.186 169.351C230.213 170.653 229.122 172.042 228.146 171.825C227.516 171.685 227.541 170.636 227.565 169.633C227.578 169.082 227.591 168.545 227.495 168.18C227.224 167.149 224.507 165.137 221.024 163.558C218.419 162.375 217.644 160.827 216.96 159.461L216.96 159.461C216.732 159.004 216.513 158.568 216.24 158.172C215.155 156.594 213.409 156.974 211.89 158.66C210.371 160.347 208.191 159.913 207.215 159.366C206.238 158.818 204.714 159.257 204.443 161.866C204.208 164.13 202.825 164.838 201.007 165.768C200.729 165.91 200.442 166.058 200.147 166.216C198.904 166.885 198.794 168.129 198.667 169.58C198.565 170.73 198.453 172.009 197.755 173.235C196.815 174.892 195.599 174.858 194.182 174.82C193.228 174.794 192.182 174.765 191.067 175.247C188.295 176.446 187.368 176.554 186.988 174.813C186.756 173.748 186.034 173.822 185.122 173.915C184.544 173.975 183.889 174.042 183.235 173.832C182.01 173.438 181.963 172.356 181.913 171.209C181.895 170.776 181.875 170.333 181.792 169.915C181.677 169.34 181.491 169.098 181.362 168.933C181.152 168.66 181.1 168.593 181.792 167.578C182.904 165.945 182.584 162.842 181.879 160.559C181.174 158.275 184.981 156.914 189.548 158.275C194.115 159.631 196.128 158.926 197.869 157.131C199.61 155.335 196.784 151.907 193.79 150.221C190.796 148.534 190.199 148.046 190.525 146.576C190.76 145.516 192.363 145.592 193.664 145.654C194.161 145.677 194.614 145.699 194.929 145.654C195.69 145.545 195.579 145.022 195.471 144.509C195.417 144.254 195.363 144.002 195.417 143.804C195.493 143.525 195.855 143.519 196.486 143.508C197.204 143.496 198.27 143.478 199.659 143.045C202.268 142.231 205.045 138.966 205.316 137.17C205.587 135.375 206.781 133.363 209.558 133.363C212.335 133.363 213.257 132.441 212.715 131.025C212.659 130.881 212.592 130.715 212.517 130.532C211.859 128.923 210.664 125.999 212.715 124.825C214.998 123.518 216.305 125.151 216.088 126.675C216.028 127.101 215.886 127.493 215.75 127.868C215.401 128.836 215.09 129.695 216.305 130.754C217.473 131.771 218.403 131.406 219.407 131.013C219.854 130.838 220.315 130.658 220.818 130.591C221.756 130.466 221.956 130.809 222.195 131.215C222.371 131.516 222.568 131.853 223.102 132.061C223.685 132.291 224.256 131.835 224.995 131.244C225.844 130.566 226.917 129.709 228.488 129.506C229.767 129.341 230.581 129.568 231.188 129.737C231.973 129.956 232.409 130.078 233.055 129.126C233.551 128.397 233.648 127.512 233.753 126.545C233.891 125.282 234.043 123.878 235.121 122.493C236.458 120.776 235.785 119.139 234.719 116.547C234.266 115.446 233.742 114.173 233.272 112.648C231.693 107.533 232.127 104.978 233.868 102.858C234.198 102.456 234.587 102.034 234.983 101.606L234.983 101.605C236.677 99.7688 238.471 97.8234 236.043 96.9834C233.049 95.9474 232.512 99.2669 232.182 101.605C231.986 102.988 230.669 104.01 229.413 104.987C228.546 105.66 227.707 106.312 227.284 107.045C226.248 108.84 228.151 112.919 229.35 114.715C230.537 116.493 228.469 118.271 227.264 119.306L227.229 119.336C226.525 119.942 226.497 121.788 226.472 123.407V123.407C226.455 124.542 226.439 125.565 226.193 125.97C225.597 126.946 222.386 129.229 220.699 128.687C219.779 128.391 218.746 126.964 217.654 125.453C216.742 124.193 215.789 122.875 214.825 122.108C213.67 121.192 212.355 121.339 211.107 121.479C210.062 121.596 209.063 121.707 208.245 121.186C206.778 120.255 207.238 117.577 207.544 115.797C207.612 115.4 207.673 115.047 207.703 114.769C207.783 114.016 207.399 113.411 206.984 112.754C206.557 112.082 206.098 111.356 206.07 110.365C206.033 109.008 208.136 107.39 211.098 105.113C212.41 104.104 213.89 102.966 215.427 101.664C220.428 97.4228 223.205 90.084 223.964 87.1442C224.079 86.7051 224.166 86.328 224.242 85.9986C224.677 84.1269 224.754 83.7946 227.392 82.3601C230.489 80.6732 236.418 79.6969 237.562 80.4563C237.68 80.5343 237.79 80.61 237.898 80.684C238.841 81.3298 239.58 81.8359 242.948 82.4686C244.901 82.8359 247.077 82.8353 249.052 82.8347C250.868 82.8342 252.515 82.8337 253.661 83.1195C255.058 83.4681 255.658 83.9852 256.262 84.5064C256.692 84.8772 257.124 85.2501 257.848 85.5658C259.584 86.3251 272.965 85.2891 276.285 84.5298C279.599 83.7704 293.034 74.9617 296.625 71.9676C299.236 69.7943 299.056 66.4678 298.931 64.1451C298.884 63.2738 298.844 62.5437 298.963 62.0687C299.397 60.3276 303.747 60.5446 304.783 62.6111C305.651 64.3528 307.448 63.9293 309.849 63.3634C310.297 63.2579 310.766 63.1474 311.254 63.0451C314.356 62.3887 315.007 60.2679 314.465 57.8759C313.922 55.4785 315.284 53.7374 317.73 52.8153C320.176 51.8877 320.127 49.9297 319.579 47.7546C319.032 45.5796 321.809 41.1752 323.984 41.3922C326.159 41.6092 327.135 40.6816 328.768 38.3439C329.7 37.0088 329.693 35.4969 329.688 34.2425C329.683 33.3003 329.68 32.5033 330.075 32.0357C330.504 31.5312 331.124 30.4895 331.784 29.3801L331.785 29.3793L331.785 29.3781L331.786 29.3774ZM190.432 142.855C193.22 141.412 195.016 141.119 196.29 141.097C196.885 141.087 197.484 140.918 198.026 140.764C198.646 140.588 199.193 140.433 199.577 140.56C200.299 140.799 202.127 140.544 202.479 139.931C202.693 139.559 202.246 139.359 201.858 139.185C201.606 139.073 201.379 138.971 201.373 138.841C201.365 138.683 201.461 138.634 201.564 138.581C201.676 138.524 201.796 138.462 201.796 138.25C201.796 138.059 202.006 137.95 202.263 137.816C202.556 137.663 202.911 137.478 203.087 137.105C203.418 136.406 203.64 135.109 202.626 134.74C202.041 134.528 201.602 134.69 201.254 134.819C200.999 134.914 200.792 134.99 200.613 134.887C200.404 134.766 200.421 134.529 200.441 134.237C200.462 133.941 200.488 133.588 200.283 133.243C200.185 133.08 200.076 132.92 199.964 132.757C199.608 132.238 199.234 131.692 199.192 130.933C199.138 129.935 198.14 129.273 197.511 128.92C197.185 128.738 197.152 128.332 197.118 127.928C197.087 127.551 197.056 127.175 196.789 126.978C196.685 126.901 196.572 126.814 196.455 126.724C195.957 126.34 195.394 125.906 195.108 125.98C195.09 125.985 195.071 125.99 195.051 125.996L194.98 126.015C194.616 126.115 194.095 126.259 194.148 125.97C194.208 125.644 194.815 124.37 195.889 123.371C196.963 122.373 196.996 121.245 196.426 120.99C196.107 120.847 195.634 120.911 195.205 120.968C194.87 121.013 194.562 121.055 194.376 120.99C193.953 120.844 193.562 120.73 193.025 121.028C192.488 121.327 192.027 120.676 192.542 120.122C192.742 119.908 193.039 119.694 193.33 119.484C193.792 119.151 194.239 118.829 194.262 118.533C194.3 118.05 194.224 117.665 193.931 117.758C193.864 117.779 193.773 117.814 193.669 117.855C193.317 117.991 192.819 118.185 192.618 118.072C192.483 117.996 192.363 118.099 192.241 118.205C192.128 118.302 192.013 118.401 191.881 118.365C191.764 118.333 191.686 118.232 191.611 118.133C191.508 117.998 191.408 117.867 191.214 117.92C190.877 118.013 190.584 118.403 190.677 119.119C190.725 119.493 190.426 119.742 190.097 120.016C189.796 120.268 189.47 120.54 189.364 120.947C189.257 121.358 189.36 121.608 189.469 121.872C189.586 122.155 189.71 122.453 189.586 122.981C189.474 123.461 189.209 123.682 189.006 123.85C188.778 124.039 188.63 124.163 188.865 124.516C189.123 124.902 189.409 124.668 189.656 124.467C189.835 124.321 189.992 124.192 190.102 124.332C190.198 124.454 190.119 124.773 190.029 125.138C189.876 125.759 189.691 126.512 190.286 126.642C191.23 126.848 191.669 127.065 191.452 127.586C191.399 127.713 191.279 127.879 191.147 128.061C190.738 128.625 190.218 129.343 191.251 129.528C192.618 129.772 193.025 129.604 193.448 129.197C193.871 128.79 194.332 128.92 194.148 129.181C194.11 129.235 194.041 129.299 193.96 129.375C193.653 129.663 193.172 130.116 193.524 130.786C193.777 131.267 194.166 131.375 194.458 131.456C194.68 131.517 194.846 131.563 194.853 131.746L194.854 131.776C194.871 132.204 194.899 132.918 194.538 133.167C194.49 133.201 194.429 133.246 194.359 133.298C193.902 133.641 193.041 134.284 192.434 133.959C192.37 133.925 192.31 133.893 192.254 133.862L192.252 133.861C191.69 133.557 191.472 133.438 191.289 133.759C191.089 134.111 191.197 134.865 192.103 135.201C193.009 135.538 193.193 136.552 192.011 136.937C190.828 137.322 189.239 138.027 190.514 138.434C191.119 138.627 191.591 138.566 191.996 138.514C192.446 138.456 192.814 138.408 193.193 138.727C193.62 139.087 193.975 138.943 194.243 138.834C194.428 138.759 194.571 138.7 194.669 138.835C194.907 139.166 194.745 139.741 193.893 139.649C193.041 139.557 192.119 139.871 191.121 140.94C190.123 142.009 189.516 143.321 190.438 142.844L190.432 142.855ZM184.96 137.968C184.255 138.678 183.132 138.933 182.286 138.716L182.291 138.727C182.262 138.72 182.234 138.713 182.206 138.706C181.865 138.621 181.572 138.548 181.071 138.011C180.528 137.431 180.897 136.509 181.846 136.373C182.472 136.284 182.518 136.013 182.587 135.605C182.622 135.395 182.664 135.148 182.795 134.87C183.181 134.057 182.931 133.981 182.107 134.019C181.282 134.057 181.119 133.341 181.575 133.021C182.031 132.701 182.4 132.365 181.662 132.305C180.924 132.245 181.103 131.405 181.944 131.112C182.491 130.921 182.712 131.063 182.932 131.206C183.051 131.282 183.169 131.358 183.338 131.383C183.821 131.453 184.488 130.162 183.967 130.124C183.446 130.086 184.493 128.774 185.48 128.389C186.468 128.004 186.858 128.101 187.167 128.324C187.326 128.438 187.454 128.406 187.622 128.365C187.781 128.327 187.975 128.279 188.263 128.34C188.825 128.458 189.186 129.067 189.42 129.462L189.456 129.522C189.561 129.698 189.522 129.789 189.495 129.854C189.461 129.934 189.443 129.976 189.727 130.086C190.243 130.287 189.592 131.236 188.87 131.529C188.149 131.822 188.594 133.769 188.827 134.767C189.06 135.765 188.29 136.97 187.683 136.97C187.075 136.97 185.665 137.257 184.96 137.968ZM158.81 87.2147C157.796 88.0608 156.776 89.3952 158.55 89.4494C160.324 89.5036 160.638 90.0786 160.562 91.9607C160.545 92.3798 160.543 92.7424 160.541 93.0537C160.535 94.1404 160.532 94.6017 159.917 94.6565C159.125 94.727 158.328 95.4701 159.656 95.6708L159.757 95.6859C161.036 95.8782 162.02 96.026 162.797 97.5909C163.369 98.7431 164.603 98.1242 165.584 97.6328C165.969 97.4394 166.316 97.2658 166.567 97.2275C167.042 97.155 167.521 97.0003 168.093 96.8156C168.59 96.6549 169.157 96.4716 169.854 96.3C171.351 95.9311 173.124 95.1935 173.179 93.2517C173.213 92.0293 172.604 91.1681 172.038 90.3662C171.704 89.8942 171.385 89.4428 171.221 88.9504C171.17 88.8004 171.123 88.6449 171.076 88.4871L171.076 88.4868L171.076 88.4866C170.702 87.2467 170.285 85.8641 167.879 85.8641C165.942 85.8641 165.566 87.2308 165.293 88.2195C165.184 88.6152 165.092 88.9503 164.923 89.1131C164.621 89.4043 164.487 89.1126 164.338 88.7855C164.195 88.473 164.037 88.1283 163.703 88.229C163.38 88.3262 163.255 88.7915 163.133 89.2429C162.996 89.7485 162.864 90.2367 162.466 90.1708C162.001 90.0938 161.961 89.6468 161.899 88.9511C161.861 88.5197 161.814 87.9928 161.652 87.3991C161.229 85.8478 159.895 86.3089 158.81 87.2147ZM456.967 166.04C455.955 166.263 454.287 166.63 452.263 168.283H452.258C450.777 169.492 449.893 171.781 451.444 171.819C452.704 171.85 453.792 170.417 454.592 169.364C454.777 169.12 454.947 168.897 455.1 168.717C455.913 167.757 457.427 168.017 457.242 169.308C457.058 170.599 459.2 172.41 459.2 170.046C459.2 168.431 460.234 167.833 461.137 167.31C461.557 167.067 461.948 166.841 462.194 166.536C462.897 165.667 463.052 165.736 463.406 165.894C463.442 165.91 463.481 165.928 463.523 165.945C463.743 166.036 463.899 165.568 464.073 165.049C464.25 164.518 464.445 163.934 464.744 163.84C465.168 163.708 465.198 164.051 465.236 164.473C465.251 164.639 465.266 164.818 465.308 164.985C465.454 165.576 467.228 163.412 466.393 162.669C465.836 162.174 465.586 160.985 465.335 159.793C465.208 159.195 465.082 158.597 464.917 158.085C464.682 157.357 464.961 156.428 465.239 155.505C465.544 154.491 465.846 153.486 465.46 152.764C464.722 151.387 463.003 150.649 462.162 150.796C461.321 150.942 461.077 152.325 462.357 154.934C463.637 157.543 461.126 161.286 459.797 161.779C458.468 162.273 457.53 163.851 457.974 165.18C458.173 165.774 457.784 165.86 456.967 166.04ZM454.129 174.2C454.217 174.005 454.298 173.821 454.374 173.649C454.983 172.268 455.269 171.622 456.103 171.819C457.041 172.042 456.602 170.214 456.103 169.991C455.604 169.769 453.738 170.583 453.331 172.465C452.925 174.347 454.042 174.385 454.123 174.2H454.129ZM452.288 173.743C452.058 173.578 451.78 173.377 451.509 173.072L451.514 173.067C451.237 172.753 451.099 172.702 450.781 172.583C450.67 172.542 450.538 172.493 450.37 172.421C449.937 172.237 449.778 172.495 449.55 172.862C449.436 173.047 449.304 173.259 449.112 173.457C448.537 174.049 447.962 174.954 448.667 175.399C449.372 175.844 449.849 175.101 449.833 174.678C449.817 174.255 450.777 175.085 450.462 175.914C450.148 176.744 449.941 177.997 451.162 178.426C452.382 178.854 453.049 177.395 452.675 176.359C452.382 175.547 452.502 175.258 452.656 174.886C452.699 174.784 452.744 174.675 452.784 174.548C452.897 174.184 452.655 174.009 452.288 173.743ZM461.305 149.836C461.856 149.634 461.601 149.036 461.354 148.459C461.169 148.026 460.989 147.605 461.158 147.373C461.331 147.137 461.643 147.083 461.984 147.024C462.425 146.947 462.912 146.863 463.203 146.364C463.468 145.91 464.001 146.222 464.576 146.559C465.12 146.878 465.703 147.219 466.132 146.955C466.518 146.719 466.445 146.239 466.367 145.722C466.267 145.054 466.157 144.323 467.016 143.978C468.54 143.365 469.799 141.884 468.15 141.146C467.334 140.781 466.861 141.007 466.394 141.23C465.918 141.458 465.449 141.682 464.63 141.271C463.964 140.937 463.46 140.508 463.021 140.136C462.39 139.6 461.896 139.18 461.256 139.324C460.171 139.568 460.985 140.701 461.43 141.244C461.874 141.786 462.368 144.422 461.185 144.965C460.003 145.507 458.821 147.427 459.808 148.046C460.795 148.664 460.676 149.022 460.502 149.483C460.328 149.944 460.681 150.074 461.31 149.841L461.305 149.836ZM460.884 136.756C460.874 137.215 460.866 137.615 460.724 137.588H460.714C459.668 137.395 459.772 136.291 459.849 135.466C459.867 135.273 459.884 135.094 459.884 134.946C459.884 134.557 459.795 134.512 459.681 134.454C459.568 134.397 459.43 134.327 459.33 133.894C459.245 133.527 459.235 133.213 459.226 132.913C459.212 132.504 459.2 132.12 459 131.659C458.84 131.292 458.69 131.094 458.548 130.906C458.382 130.686 458.227 130.48 458.077 130.032C457.964 129.691 457.937 129.408 457.904 129.058C457.857 128.556 457.796 127.914 457.448 126.762C457.349 126.432 457.254 126.103 457.162 125.783C456.707 124.201 456.307 122.808 455.599 122.33C454.747 121.755 454.118 119.059 453.955 117.839C453.801 116.683 454.007 116.637 454.623 116.497C454.658 116.489 454.694 116.481 454.731 116.472C455.43 116.309 454.991 115.382 454.601 114.905C454.571 114.869 454.541 114.832 454.51 114.795L454.509 114.793C454.127 114.333 453.663 113.774 454.194 113.483C454.513 113.309 454.636 113.748 454.778 114.253C454.893 114.658 455.019 115.106 455.268 115.311C455.826 115.772 457.101 117.655 457.117 118.897C457.134 120.139 458.001 121.983 459 123.388C459.342 123.87 459.895 124.546 460.461 125.237L460.462 125.238C461.545 126.559 462.672 127.936 462.455 128.118C462.282 128.262 462.106 128.156 461.863 128.01C461.64 127.876 461.361 127.709 460.979 127.673C460.182 127.597 459.688 128.41 459.981 129.24C460.193 129.841 460.087 130.397 459.991 130.895C459.955 131.084 459.92 131.265 459.905 131.437C459.851 132.061 460.48 133.818 461.755 134.371C463.03 134.925 463.42 135.532 463.068 135.776C462.887 135.901 462.504 135.774 462.115 135.644C461.742 135.52 461.362 135.393 461.147 135.483C460.909 135.583 460.896 136.211 460.884 136.756ZM433.425 214.04C432.009 214.848 429.4 218.992 431.651 220.799C432.824 221.74 433.086 222.542 433.271 223.111C433.441 223.635 433.547 223.96 434.239 224.015C434.825 224.061 435.192 223.666 435.551 223.278C436.076 222.712 436.586 222.161 437.748 223.017C438.336 223.45 438.877 223.756 439.35 224.023C440.452 224.646 441.181 225.059 441.257 226.38C441.366 228.267 442.771 229.596 442.548 228.338C442.326 227.08 442.364 226.971 443.031 226.749C443.698 226.526 443.991 225.382 441.588 224.384C441.425 224.316 441.261 224.248 441.096 224.18C438.824 223.243 436.399 222.242 435.676 220.766C434.9 219.182 434.716 218.179 435.752 217.219C436.788 216.259 434.689 213.319 433.425 214.04ZM441.22 233.068C441.957 233.138 442.906 232.124 443.14 231.256V231.262C443.206 231.014 443.212 230.8 443.216 230.63C443.227 230.228 443.231 230.077 444.008 230.339C444.945 230.657 445.034 231.807 445.085 232.474V232.475V232.476V232.477C445.094 232.596 445.102 232.7 445.114 232.78C445.139 232.956 445.283 233.136 445.441 233.333C445.76 233.734 446.136 234.204 445.689 234.847C445.257 235.468 445.05 235.083 444.836 234.684C444.719 234.466 444.6 234.245 444.441 234.18C443.991 233.995 443.861 235.015 444.36 235.807C444.859 236.599 443.015 237.326 441.55 236.545C440.764 236.125 440.827 235.623 440.885 235.157C440.935 234.754 440.982 234.378 440.477 234.104C439.865 233.772 439.37 234.202 438.906 234.603C438.543 234.918 438.199 235.216 437.835 235.118C437.005 234.896 438.833 232.748 439.592 232.401C440.022 232.204 440.25 232.421 440.501 232.659C440.693 232.842 440.899 233.037 441.22 233.068ZM438.003 228.284C437.444 228.989 436.582 229.244 436.36 228.745C436.137 228.246 436.674 226.825 437.526 226.987C438.377 227.15 438.372 227.817 438.008 228.278L438.003 228.284ZM437.962 229.596C438.205 229.447 438.407 229.324 438.366 228.745L438.361 228.739C438.323 228.202 438.388 228.164 438.768 228.083C439.147 228.002 439.326 228.49 439.12 228.777C438.914 229.065 438.61 229.792 438.925 230.291C439.24 230.79 439.413 231.397 438.844 231.457C438.274 231.516 437.162 230.589 437.515 230.009C437.649 229.788 437.813 229.688 437.962 229.596ZM439.896 228.219C439.885 228.405 439.767 228.668 439.649 228.931C439.461 229.348 439.273 229.765 439.516 229.878C439.764 229.994 439.868 229.69 439.994 229.317C440.07 229.095 440.154 228.849 440.281 228.653C440.623 228.126 439.923 227.693 439.891 228.219H439.896ZM440.28 230.399C440.411 230.384 440.646 230.359 440.617 230.003V230.009C440.59 229.645 440.612 229.504 440.943 229.444C441.274 229.385 441.648 229.792 441.312 230.209C440.975 230.627 440.683 230.838 440.303 230.54C440.142 230.413 440.183 230.409 440.28 230.399Z" fill="url(#paint0_linear_66_5045)"/>
    <defs>
        <linearGradient id="paint0_linear_66_5045" x1="134" y1="-102" x2="297.996" y2="423.001" gradientUnits="userSpaceOnUse">
            <stop stop-color="#232328" stop-opacity="0.06"/>
            <stop offset="0.588529" stop-color="#36363C"/>
        </linearGradient>
    </defs>
</svg>