<svg xmlns="http://www.w3.org/2000/svg" width="375" height="369" viewBox="0 0 375 369" fill="none">
    <path fill-rule="evenodd" clip-rule="evenodd" d="M129.086 94.6403C129.629 95.801 127.367 102.006 125.458 101.854L125.49 101.876C122.773 101.654 121.905 100.531 122.084 99.5165C122.263 98.5022 121.65 98.3937 120.343 99.2995C119.035 100.205 118.564 99.7714 117.294 98.1768C116.468 97.1382 115.703 93.6078 115.08 90.731L115.08 90.7308L115.08 90.7301C114.747 89.1902 114.454 87.8377 114.213 87.1551C113.525 85.197 113.302 77.2941 113.704 76.1334C114.042 75.1424 114.779 75.0765 115.777 74.9873C115.948 74.972 116.127 74.9561 116.313 74.9346C117.557 74.791 118.207 73.0455 119.122 70.5886L119.176 70.4435C119.756 68.8887 120.212 68.4068 120.52 68.0821C120.714 67.8778 120.848 67.7357 120.918 67.4277C121.048 66.8474 120.546 66.7096 119.508 66.4245L119.508 66.4244C119.12 66.3178 118.657 66.1907 118.124 66.0121C116.166 65.3558 115.005 63.4356 115.624 62.5298C116.238 61.6245 117.634 62.1594 119.041 62.6983L119.068 62.7088C120.478 63.2512 120.771 62.02 120.625 61.4016C120.567 61.1561 120.383 61.1227 120.178 61.0853C119.867 61.0287 119.506 60.9631 119.464 60.1324C119.393 58.7547 119.101 57.7729 117.723 56.7586C116.34 55.7389 117.104 49.6477 117.321 48.4381C117.331 48.3865 117.34 48.3352 117.35 48.284L117.381 48.1163C117.587 47.0288 117.783 45.9904 116.958 44.5382C116.193 43.1916 116.202 42.6456 116.223 41.3064V41.3063C116.227 41.0596 116.231 40.786 116.231 40.4756C116.231 38.4795 114.42 37.7527 112.136 37.1018C110.786 36.717 109.246 36.7607 107.815 36.8012C106.826 36.8293 105.888 36.8559 105.101 36.7384C103.176 36.4509 102.709 35.1817 102.997 34.1294C103.066 33.8762 103.169 33.6439 103.264 33.4292C103.563 32.7518 103.786 32.2486 102.633 31.8079C101.114 31.2275 101.803 29.0905 103.251 28.944L103.376 28.9315C104.741 28.7946 105.416 28.7269 105.063 27.4578C104.919 26.9413 104.575 26.435 104.221 25.9148C103.684 25.1242 103.125 24.3016 103.213 23.3627C103.36 21.8059 103.864 21.4371 105.389 21.0791C105.926 20.9529 106.675 20.6819 107.517 20.3774L107.518 20.3773L107.518 20.3772C109.064 19.8177 110.924 19.1453 112.353 19.0505C113.554 18.9709 113.899 19.1175 114.157 19.2268C114.372 19.3184 114.526 19.3837 115.07 19.2675C116.264 19.0126 117.604 16.8375 117.316 15.4218C117.029 14.0061 115.103 13.2088 114.089 14.1526C113.875 14.35 113.677 14.5536 113.483 14.7525C112.749 15.5044 112.081 16.1891 110.932 16.2192C109.478 16.2571 109.332 16.8755 109.261 18.1067C109.191 19.338 107.45 19.2675 107.086 18.9041C106.728 18.5407 106.18 18.3942 105.53 19.121C104.879 19.8479 104.081 19.9563 103.501 19.376L103.473 19.3481L103.409 19.284C102.881 18.7515 102.522 18.3894 101.798 18.9746C101.449 19.2565 101.109 19.1528 100.805 19.0599C100.442 18.9489 100.129 18.8533 99.9102 19.4465C99.7078 19.9964 100.3 20.5008 100.974 21.0745C101.636 21.6381 102.377 22.2687 102.519 23.0752C102.77 24.4964 100.7 25.3425 98.5783 26.2097L98.5773 26.2101C98.2701 26.3357 97.9617 26.4617 97.6592 26.59C96.6623 27.015 95.8604 27.7405 95.0961 28.432C94.0265 29.3997 93.0305 30.3009 91.6765 30.2187C89.9588 30.1143 89.8892 28.5758 89.8373 27.431V27.4309C89.8191 27.0284 89.803 26.6747 89.7184 26.4489C89.5679 26.0517 89.3444 26.1584 88.9541 26.3448C88.4863 26.5681 87.7789 26.9059 86.6701 26.6279C85.53 26.3422 85.4975 25.3492 85.4715 24.5517C85.451 23.9263 85.4345 23.4211 84.891 23.4711C83.6543 23.585 82.461 23.0047 84.2726 20.6452C85.379 19.2043 87.1084 18.9002 88.4774 18.6595C89.3503 18.5061 90.0766 18.3784 90.4018 17.9983C90.8468 17.4782 90.7453 16.2161 90.6403 14.9092C90.5481 13.7627 90.4532 12.5817 90.7218 11.8365C91.2968 10.2418 92.5064 10.1659 93.7376 10.3503C94.3682 10.4448 94.7796 10.7384 95.1629 11.0118C95.5281 11.2724 95.8676 11.5146 96.3466 11.549C97.3284 11.6196 98.0172 10.7137 96.3466 10.2798C94.676 9.84589 93.1573 8.9021 92.9728 8.14273C92.8825 7.77083 93.2189 7.63181 93.5947 7.47653C93.9861 7.31476 94.4203 7.13534 94.459 6.65654C94.4992 6.16013 93.6863 5.87472 92.8522 5.58188C92.1096 5.32116 91.3502 5.05456 91.1612 4.62794C90.9472 4.13847 91.4951 3.88023 92.0208 3.63242C92.468 3.42164 92.8991 3.2184 92.8318 2.88682C92.7589 2.52739 92.3897 2.31069 91.9745 2.06699C91.5564 1.82156 91.0916 1.54875 90.8358 1.07518C90.3259 0.136816 91.5192 -0.194052 94.2421 -0.84494C95.4656 -1.13742 96.6443 -1.62815 97.7293 -2.07989C99.0589 -2.63345 100.248 -3.12847 101.207 -3.12847C102.047 -3.12847 102.372 -2.80741 102.679 -2.50395C103.008 -2.17878 103.316 -1.87382 104.217 -2.00569C105.068 -2.13036 105.529 -2.74017 105.944 -3.28831C106.377 -3.86104 106.759 -4.36643 107.482 -4.18074C108.898 -3.81733 110.785 -3.63833 112.38 -3.81733C113.245 -3.9144 113.416 -4.17102 113.582 -4.42105C113.723 -4.63204 113.86 -4.83833 114.409 -4.94011C115.207 -5.08814 115.649 -4.6858 116.209 -4.17623C116.49 -3.92029 116.801 -3.63729 117.202 -3.3834C117.797 -3.00195 118.465 -3.07252 119.233 -3.15363C120.005 -3.23514 120.877 -3.3273 121.878 -2.98202C122.965 -2.6068 123.816 -1.89847 124.546 -1.29003C125.157 -0.781448 125.684 -0.342668 126.195 -0.226597C127.318 0.0283341 127.898 1.0806 127.898 2.52883C127.898 3.42594 128.329 3.43431 129.071 3.44873C129.527 3.45758 130.1 3.46872 130.762 3.68958C132.235 4.18056 133.809 3.50311 134.985 2.99707C135.199 2.90493 135.4 2.81847 135.584 2.74579C136.778 2.2739 138.009 2.67528 137.141 4.08553C136.273 5.49579 136.452 5.93514 137.83 7.1664C139.208 8.39766 140.184 8.21325 140.222 6.22262C140.26 4.23198 141.16 3.32616 142.071 3.39668C142.598 3.43742 142.675 3.78241 142.786 4.27573C142.867 4.63616 142.966 5.07578 143.27 5.53376C143.992 6.61857 144.865 6.54806 144.718 5.13238C144.572 3.7167 144.604 1.94303 145.478 1.79658C145.713 1.7572 145.981 1.76527 146.253 1.77345C146.993 1.79569 147.759 1.81872 147.946 0.89076C148.201 -0.37847 148.635 -1.32226 150.267 -1.79415C151.347 -2.10621 151.871 -1.68769 152.376 -1.28524C152.634 -1.07912 152.887 -0.877219 153.207 -0.779851C154.151 -0.492375 154.84 -1.25174 155.854 -2.55894C156.868 -3.86614 159.293 -3.68715 161.218 -3.5407C162.3 -3.45847 162.955 -3.04622 163.618 -2.62942C164.135 -2.30389 164.657 -1.97559 165.389 -1.79957C165.665 -1.73417 165.955 -1.67749 166.252 -1.6193C167.757 -1.32525 169.459 -0.992579 170.428 0.700918C171.589 2.72952 173.981 4.90457 174.925 5.26798C175.869 5.63139 176.27 6.49924 174.166 7.80644C172.714 8.70648 171.4 8.81311 170.475 8.88822C170.062 8.92174 169.726 8.94899 169.49 9.0377C168.725 9.32518 169.886 11.3917 170.504 11.5382C170.815 11.6117 170.915 11.2919 171.024 10.9413C171.133 10.5931 171.251 10.2145 171.595 10.1605C172.115 10.0786 172.758 10.6982 173.355 11.2729L173.356 11.2734L173.357 11.2742C173.55 11.4604 173.738 11.6419 173.916 11.7931C174.3 12.1218 175.657 12.0091 177.21 11.8803C178.579 11.7668 180.1 11.6407 181.239 11.7931C183.669 12.1186 184.498 13.6427 183.848 15.2754C183.469 16.2243 182.501 16.5356 181.764 16.7726C181.233 16.9433 180.821 17.0755 180.837 17.3799C180.875 18.1067 180.512 18.9041 179.46 19.338C178.407 19.7719 178.19 20.6072 178.407 21.0412C178.624 21.4751 177.935 22.2724 175.505 24.9194C173.075 27.5663 172.967 29.6329 173.184 31.9164C173.222 32.3135 173.287 32.8498 173.362 33.4664C173.718 36.3951 174.295 41.1328 173.184 41.3434C172.38 41.4957 171.929 41.131 171.486 40.7734C171.188 40.5325 170.894 40.2949 170.499 40.2206C169.517 40.0362 169.051 40.6166 168.649 41.5604C168.408 42.1281 169.165 42.9057 169.996 43.7588L169.996 43.7589L169.996 43.759C170.547 44.3242 171.13 44.9224 171.475 45.5145C172.343 47.0007 171.508 48.3459 170.315 48.3079C169.121 48.27 168.682 48.4869 168.72 49.3222C168.751 50.1191 168.264 50.3878 167.428 50.8488L167.304 50.9169C166.544 51.3375 167.327 52.0371 168.281 52.8901C168.471 53.0601 168.668 53.2362 168.861 53.4174C170.022 54.5076 168.497 56.4657 166.453 56.4657C164.927 56.4657 164.857 55.7773 164.784 55.0673C164.759 54.8256 164.734 54.5815 164.652 54.3612C164.326 53.4933 161.826 53.5259 161.462 55.7389C161.099 57.9465 162.878 59.4706 164.907 61.1033C166.935 62.7359 166.794 65.5619 165.487 68.4637C164.185 71.3602 160.85 73.4268 156.532 75.2058C153.249 76.5563 151.013 76.4163 149.75 76.3373C149.354 76.3125 149.053 76.2937 148.846 76.3286C147.978 76.4751 145.765 78.9051 144.604 80.8252C143.444 82.7507 141.236 83.7271 138.768 84.1989C136.3 84.6708 134.055 85.2132 133.474 86.7374C132.894 88.2616 130.54 91.9987 129.705 92.5032C128.869 93.0076 128.544 93.4795 129.086 94.6403ZM-82.8644 95.2912C-82.5145 94.6948 -81.0004 93.8421 -79.3232 92.8974C-77.5679 91.9088 -75.6339 90.8196 -74.6686 89.8183C-72.7811 87.8602 -73.1933 85.5387 -73.996 85.4139C-74.3405 85.3604 -74.4563 85.4926 -74.5636 85.6152C-74.7064 85.7783 -74.8342 85.9243 -75.466 85.5929C-75.6858 85.4776 -75.9356 85.3677 -76.1958 85.2532C-77.2455 84.7911 -78.4653 84.2542 -78.574 82.9894C-78.6335 82.2963 -78.3688 81.7663 -78.1317 81.2916C-77.8288 80.6853 -77.571 80.169 -78.0912 79.518C-78.4362 79.0863 -79.1195 78.9757 -79.8137 78.8634C-80.9859 78.6737 -82.1887 78.479 -81.8447 76.7246C-81.6239 75.5875 -81.2881 75.0517 -80.9627 74.5326C-80.4887 73.7763 -80.0369 73.0554 -79.9951 70.5629C-79.945 67.5803 -77.6832 67.1153 -75.7651 66.721C-74.9798 66.5595 -74.2521 66.4099 -73.7574 66.1043C-73.4433 65.9102 -73.149 65.7125 -72.86 65.5183L-72.8599 65.5183L-72.8598 65.5182L-72.8597 65.5181L-72.8595 65.518L-72.8594 65.5179L-72.8593 65.5179L-72.8591 65.5178L-72.859 65.5177L-72.8589 65.5176L-72.8587 65.5174C-71.5812 64.6591 -70.4085 63.8712 -68.1001 63.7828C-65.2687 63.6743 -65.0897 62.3345 -65.7081 60.409C-66.1619 58.9997 -67.9044 59.0543 -69.6872 59.1102C-70.3334 59.1305 -70.9849 59.1509 -71.5823 59.1018C-73.8279 58.9174 -73.9743 54.6432 -72.0922 52.7177C-70.2046 50.7976 -64.1893 49.3439 -62.9527 50.5426C-62.2735 51.2038 -62.5746 51.5762 -62.8901 51.9666C-63.1467 52.2839 -63.4128 52.6131 -63.1696 53.1191C-62.6272 54.2419 -59.9043 54.8982 -58.3476 53.4445C-56.7909 51.9963 -58.2391 46.9519 -59.7958 44.4894C-61.3526 42.0214 -61.32 41.6634 -60.1593 40.1013C-58.9985 38.5392 -57.8757 37.4544 -56.3136 38.9026C-54.7569 40.3508 -51.996 38.2843 -50.5098 36.4726C-49.0237 34.661 -47.2446 33.6792 -46.0513 34.1891C-44.8526 34.699 -43.6593 34.1891 -42.1731 32.9904C-41.2908 32.2787 -40.4849 32.5401 -39.7022 32.794C-39.1665 32.9678 -38.6416 33.138 -38.1104 32.9904C-37.599 32.8482 -37.2154 32.4951 -36.8554 32.1637C-36.2953 31.6481 -35.7923 31.1851 -34.9536 31.6506C-34.1994 32.0664 -34.1621 32.9504 -34.1279 33.7605C-34.0996 34.4301 -34.0735 35.0492 -33.6464 35.3119C-33.1896 35.5928 -32.8103 35.4747 -32.4414 35.3598C-32.0483 35.2374 -31.667 35.1187 -31.2165 35.4909C-30.8205 35.8179 -30.8204 36.5196 -30.8203 37.2497C-30.8201 38.1299 -30.82 39.0513 -30.1262 39.407C-29.515 39.7205 -29.0221 39.6654 -28.5862 39.6167C-28.1169 39.5642 -27.7137 39.5192 -27.3003 39.9494C-27.0305 40.232 -26.9185 40.5184 -26.7999 40.8214C-26.5679 41.4142 -26.3108 42.071 -24.7998 42.8893C-23.4577 43.613 -22.0743 44.0462 -21.0627 44.363C-20.3532 44.5852 -19.8265 44.7502 -19.6252 44.9179C-19.4457 45.0675 -19.1627 45.4894 -18.8267 45.9902C-18.2491 46.8511 -17.515 47.9453 -16.8807 48.2917C-16.3645 48.5735 -15.7823 48.7304 -15.3127 48.857L-15.3127 48.857C-14.8694 48.9765 -14.5266 49.0689 -14.4344 49.2137C-14.3661 49.3211 -14.2943 49.6959 -14.2089 50.1419L-14.2089 50.142L-14.2088 50.1422L-14.2088 50.1423L-14.2088 50.1424L-14.2088 50.1425L-14.2087 50.1426L-14.2087 50.1427C-14.0567 50.9364 -13.8616 51.9551 -13.5666 52.0939C-13.4737 52.1376 -13.2449 52.2553 -12.9355 52.4146L-12.935 52.4148C-11.7085 53.0459 -9.21581 54.3285 -8.89101 54.2419C-8.81401 54.2213 -8.6853 54.1423 -8.4929 54.0241C-7.66891 53.5181 -5.67666 52.2947 -1.57396 51.877C3.48669 51.3617 6.33975 52.6092 8.43344 54.4046C10.5271 56.1999 16.0759 60.8755 17.4103 61.5047C18.0476 61.8026 18.6528 61.7479 19.2034 61.698C19.8054 61.6436 20.3421 61.595 20.784 62.02C21.6248 62.8336 22.1184 64.6289 21.5434 65.231C21.3093 65.4763 20.8497 65.6574 20.399 65.835C19.7533 66.0894 19.1258 66.3367 19.2056 66.7552C19.3412 67.4657 21.7061 69.1472 26.3328 68.4963C28.0243 68.2581 29.3735 67.9283 30.4738 67.6593C32.3797 67.1935 33.5389 66.9101 34.4364 67.6013C34.9752 68.0163 35.5297 68.6709 36.1071 69.3525C37.0468 70.4617 38.0472 71.6426 39.1391 71.9785C40.9019 72.5209 43.1095 72.5481 44.498 71.2463C45.8866 69.9391 47.0528 69.8306 48.1701 71.0293C49.2875 72.228 50.6977 73.34 52.0863 71.8701C52.5673 71.3609 52.8719 70.8589 53.1381 70.4202C53.6404 69.5924 54.006 68.9899 55.1617 68.9899C56.93 68.9899 60.3037 69.912 61.1987 71.2463C61.6512 71.921 61.5075 73.3805 61.3774 74.7008C61.2503 75.9917 61.1362 77.1495 61.6055 77.3104C62.5547 77.6358 66.1726 74.1265 66.7475 72.087C66.7849 71.953 66.8218 71.8186 66.8586 71.6845C67.3812 69.7776 67.8833 67.946 69.6874 68.6048C71.6183 69.3099 73.5493 71.051 73.6849 73.0362C73.7674 74.2445 72.8835 75.0288 72.1301 75.6973C71.6456 76.1272 71.2151 76.5092 71.1302 76.9253C71.0809 77.1668 71.0848 77.4994 71.0893 77.8871C71.1048 79.2054 71.1278 81.1607 69.0907 82.3385C67.7642 83.1055 66.2234 83.1967 64.7842 83.2819C63.3634 83.366 62.0416 83.4442 61.1228 84.161C60.2506 84.8413 59.6088 85.9872 58.9716 87.1248C58.2574 88.3998 57.549 89.6646 56.5286 90.2522C55.3829 90.9152 54.409 91.0015 53.5628 91.0764C52.9829 91.1278 52.4629 91.1739 51.9887 91.3967C50.8225 91.9445 42.9034 97.5693 41.0538 100.645C39.2041 103.72 38.2278 107.116 39.2313 109.432C39.8084 110.754 41.4703 111.747 43.118 112.732C44.3503 113.469 45.5747 114.201 46.3314 115.062C46.7182 115.502 47.0645 115.938 47.4 116.361C48.5983 117.871 49.6588 119.207 51.9344 119.927C54.8472 120.849 55.3624 121.072 55.5251 121.94C55.5865 122.267 55.4079 123.149 55.1909 124.219L55.1909 124.219C54.8328 125.986 54.3704 128.268 54.7115 129.419C55.254 131.269 57.7056 132.001 58.9803 130.07C59.8959 128.689 59.5572 125.973 59.3298 124.15L59.3297 124.149L59.3296 124.148L59.3295 124.147C59.2391 123.422 59.1664 122.839 59.1972 122.536C59.271 121.814 60.1987 121.57 61.7082 121.173C62.4201 120.985 63.2615 120.764 64.2036 120.443C67.1435 119.434 67.3876 116.092 66.0261 113.917C64.6647 111.742 64.5833 110.137 66.216 108.992C67.8486 107.848 68.4995 107.197 68.0927 105.836C67.6859 104.474 67.6045 102.787 68.6351 102.001C69.1955 101.573 69.1705 100.855 69.1444 100.105C69.1225 99.4757 69.0999 98.8237 69.4216 98.3015C70.1267 97.157 71.9492 97.2384 74.6721 98.1117C77.395 98.985 78.4527 100.232 79.1849 101.974C79.6378 103.051 80.4561 103.43 81.1299 103.743C81.5454 103.936 81.906 104.103 82.0922 104.393C82.5804 105.152 82.5804 105.998 81.5498 107.441C80.5138 108.884 81.36 113.559 83.535 113.342C85.7101 113.125 87.7495 111.33 88.2648 109.318C88.7801 107.305 90.6839 107.197 91.2046 108.857C91.4351 109.591 91.504 110.405 91.5728 111.217C91.6594 112.239 91.7457 113.258 92.1538 114.107C92.2958 114.403 92.4502 114.701 92.604 114.999C93.2431 116.234 93.8703 117.447 93.5424 118.322C93.3623 118.804 92.9896 119.153 92.6515 119.47C92.226 119.868 91.8551 120.215 91.9911 120.714C92.1063 121.136 93.1841 121.875 94.5423 122.806C96.0623 123.848 97.9336 125.13 99.1997 126.48C101.592 129.034 101.673 131.676 100.561 133.498C99.9349 134.52 98.4823 134.858 96.8183 135.245C95.5134 135.549 94.0784 135.883 92.8102 136.601C89.93 138.233 88.2431 138.152 85.1134 137.442L84.934 137.401C81.9233 136.722 80.395 136.378 79.5917 137.713C78.7781 139.074 79.7816 140.105 81.3057 139.996C82.8299 139.888 83.7791 141.087 83.3452 141.9C83.2145 142.145 82.9875 142.361 82.7422 142.594C82.1726 143.136 81.504 143.772 81.7125 145.084C82.0108 146.961 83.4265 148.322 85.9541 148.322C88.4817 148.322 88.4817 150.47 87.4783 151.262C86.4694 152.049 83.996 152.244 82.3905 152.157C81.6832 152.121 81.2454 152.793 80.7863 153.497C80.2033 154.391 79.586 155.338 78.3388 154.956C77.3204 154.646 77.057 154.126 76.8014 153.621C76.4975 153.021 76.2046 152.442 74.6667 152.266C71.8407 151.94 69.2806 152.889 69.2534 155.341C69.2427 156.312 69.3639 157.043 69.4602 157.625C69.6071 158.51 69.6961 159.048 69.1721 159.555C68.788 159.928 67.828 159.933 66.7474 159.939C65.3864 159.947 63.834 159.956 62.9995 160.7C62.1772 161.433 61.8475 162.321 61.5555 163.108C61.3159 163.754 61.1017 164.331 60.6617 164.697L60.6047 164.745C59.64 165.543 58.6278 166.382 57.532 168.993C56.4147 171.657 55.8452 173.723 55.6553 175.057C55.4975 176.167 54.7176 176.504 53.194 177.162L53.1935 177.162L53.1893 177.164C52.8812 177.297 52.5428 177.444 52.1731 177.612C49.9709 178.621 45.7835 180.986 44.7475 183.459C43.7115 185.933 44.9374 189.089 46.2717 191.943C47.606 194.796 47.7959 197.003 45.3496 197.518C42.9034 198.034 41.3521 195.967 40.7012 191.915C40.0503 187.864 39.4211 187.131 36.8393 186.936C35.4773 186.836 34.7432 186.568 34.0781 186.326C33.4824 186.109 32.9419 185.911 32.0552 185.873C30.1785 185.792 28.3289 186.741 27.0217 188.536C26.2089 189.652 25.566 189.098 24.8101 188.445C24.3502 188.048 23.8484 187.615 23.2411 187.5C21.6356 187.196 17.5567 187.283 15.5444 189.431C13.5321 191.579 12.252 195.251 11.7096 199.384C11.1672 203.517 12.0893 209.446 17.0414 210.916C20.4134 211.917 21.8037 209.965 23.3443 207.803C24.0662 206.79 24.8211 205.73 25.8284 204.906C28.9852 202.324 32.218 204.337 32.3807 205.915C32.4523 206.61 31.8021 207.593 31.0494 208.732C30.0917 210.181 28.9678 211.881 28.9527 213.557C28.927 216.389 30.4829 216.441 34.6756 216.58C34.9162 216.588 35.1655 216.597 35.4236 216.606C39.2049 216.735 38.4347 219.613 37.8235 221.897C37.6658 222.486 37.5186 223.036 37.463 223.489L37.441 223.667C37.167 225.873 36.7581 229.164 39.7466 229.824C40.8882 230.076 41.7854 230.126 42.4762 230.164C43.6464 230.229 44.2244 230.261 44.395 231.186C44.6662 232.656 43.2505 234.695 41.6775 234.342C40.9992 234.191 40.7026 233.903 40.3928 233.603C39.9818 233.204 39.5477 232.783 38.1682 232.628C36.763 232.471 36.1832 231.836 35.4158 230.995C34.8619 230.388 34.2104 229.675 33.0804 228.956C31.8671 228.183 31.7757 227.372 31.6794 226.517C31.5622 225.476 31.4377 224.37 29.2727 223.191C27.1913 222.057 25.4045 221.703 23.922 221.409C22.5959 221.146 21.5133 220.932 20.681 220.251C20.1049 219.781 19.7309 219.288 19.3851 218.832C18.6695 217.888 18.0746 217.104 16.0597 217.013C14.7649 216.954 13.8315 217.257 13.0015 217.528C11.9157 217.881 11.0068 218.176 9.69724 217.528C9.25581 217.309 8.51942 216.969 7.61028 216.548L7.60767 216.547C3.75732 214.766 -3.18742 211.554 -3.95512 210.102C-4.41118 209.24 -4.45404 207.869 -4.4964 206.514C-4.54221 205.049 -4.58742 203.603 -5.15384 202.839C-6.24407 201.37 -8.06113 201.234 -12.2811 201.153C-16.4956 201.071 -17.7214 196.423 -17.857 194.736C-17.9327 193.794 -18.7376 193.243 -19.5196 192.707C-20.1378 192.284 -20.7416 191.87 -20.9596 191.281C-21.2043 190.612 -21.0128 190.033 -20.8122 189.426C-20.6127 188.823 -20.4041 188.193 -20.607 187.419C-20.799 186.687 -21.3669 185.797 -21.9878 184.825C-22.6822 183.737 -23.4429 182.546 -23.818 181.355C-23.9575 180.909 -24.0693 180.508 -24.1729 180.137L-24.1732 180.136L-24.1733 180.136C-24.5935 178.631 -24.8785 177.61 -26.3185 175.996C-27.145 175.069 -27.8852 174.616 -28.5255 174.223C-29.2762 173.763 -29.8895 173.386 -30.3432 172.432C-31.1839 170.664 -31.8402 168.028 -32.003 166.26C-32.0896 165.318 -32.4852 164.369 -32.8567 163.478C-33.1831 162.695 -33.4908 161.957 -33.5542 161.307C-33.6089 160.747 -33.5357 160.369 -33.4662 160.01C-33.3633 159.479 -33.2686 158.989 -33.6085 158.015C-34.178 156.382 -33.6898 155.243 -33.1745 154.316C-32.9348 153.887 -32.9945 153.062 -33.0586 152.176C-33.1322 151.159 -33.2116 150.061 -32.8491 149.391C-32.6558 149.033 -32.398 148.617 -32.1214 148.169L-32.1211 148.169C-31.4278 147.048 -30.6161 145.735 -30.4029 144.688C-30.1911 143.645 -29.5392 142.082 -28.9945 140.776C-28.7719 140.242 -28.5671 139.751 -28.4176 139.356C-28.1808 138.73 -28.2534 137.669 -28.3246 136.628C-28.4083 135.404 -28.49 134.208 -28.0651 133.78C-27.825 133.54 -27.4145 133.327 -26.9647 133.094C-25.9411 132.564 -24.7139 131.927 -24.8269 130.624C-24.9084 129.683 -25.3384 129.316 -25.7098 128.999C-26.0797 128.683 -26.3915 128.417 -26.2426 127.684C-25.9533 126.258 -26.0976 126.215 -27.096 125.917L-27.1918 125.888C-28.282 125.563 -29.3126 123.686 -29.3397 121.864C-29.3438 121.593 -29.3436 121.331 -29.3434 121.078V121.077V121.077V121.077V121.077V121.076V121.076V121.076V121.076V121.075V121.075V121.075V121.075V121.074V121.074V121.074V121.074V121.073V121.073C-29.3424 119.621 -29.3417 118.474 -30.1262 117.92C-31.0483 117.269 -31.3249 116.505 -30.3974 115.935C-29.4753 115.366 -29.2801 114.438 -30.3432 114.411C-31.4063 114.384 -32.003 113.814 -31.9216 112.67C-31.8795 112.078 -31.4231 111.517 -30.9994 110.996C-30.6032 110.509 -30.2356 110.057 -30.2618 109.649C-30.2876 109.249 -30.5029 109.058 -30.7103 108.874C-30.9397 108.67 -31.1595 108.475 -31.1026 108.016C-31.0765 107.806 -31.0284 107.606 -30.9832 107.417C-30.8408 106.824 -30.7278 106.353 -31.428 106.085C-32.3501 105.732 -32.106 104.859 -31.7534 104.263C-31.4009 103.666 -31.6178 102.521 -32.4043 101.898C-33.1908 101.274 -32.7569 100.482 -32.1874 99.4514C-31.6178 98.4209 -32.1602 97.5476 -32.8383 97.0323C-33.169 96.7809 -34.0832 96.5282 -35.0431 96.263C-36.0509 95.9844 -37.109 95.692 -37.5952 95.3725C-38.0822 95.0525 -38.3193 94.2798 -38.5821 93.4237C-38.8314 92.6112 -39.1038 91.7237 -39.6346 91.0767C-40.2517 90.3245 -40.8149 89.8139 -41.3656 89.3146C-41.7878 88.9318 -42.2026 88.5557 -42.6287 88.0826C-43.6104 86.9923 -44.0173 86.6669 -45.2648 86.9381C-46.1753 87.136 -46.9587 86.1176 -47.6445 85.226L-47.6446 85.2259L-47.6448 85.2255L-47.6448 85.2255L-47.645 85.2254L-47.6451 85.2252L-47.6452 85.2251L-47.6453 85.225L-47.6454 85.2248L-47.6455 85.2247L-47.6456 85.2245C-47.899 84.8951 -48.1391 84.5831 -48.3673 84.3563C-48.8973 83.8263 -49.3433 83.1217 -49.7432 82.4898L-49.7433 82.4896C-49.9777 82.1192 -50.1963 81.7738 -50.4068 81.5032C-50.9763 80.7709 -52.1479 80.9065 -52.2293 82.5392C-52.2387 82.7288 -52.2442 82.9051 -52.2492 83.0696C-52.2878 84.3222 -52.3053 84.892 -53.9162 85.4194C-54.6881 85.6721 -55.3821 85.7496 -56.0062 85.8194C-56.8555 85.9143 -57.5752 85.9947 -58.1849 86.4825C-59.1917 87.2787 -59.6828 86.4696 -60.1697 85.6675C-60.1969 85.6227 -60.2242 85.5778 -60.2515 85.5333C-60.7668 84.6925 -61.5315 84.2803 -63.0503 84.7468C-64.4597 85.1731 -64.473 85.5995 -64.51 86.7807C-64.513 86.8768 -64.5161 86.978 -64.5202 87.0846C-64.5639 88.2246 -64.889 88.3938 -66.266 89.1105C-66.5989 89.2838 -66.9933 89.489 -67.46 89.7478C-68.1149 90.1131 -69.202 90.7634 -70.473 91.5238L-70.4742 91.5245L-70.4746 91.5247L-70.4763 91.5257L-70.4772 91.5263L-70.478 91.5268L-70.4781 91.5268C-73.8488 93.5434 -78.5095 96.3317 -79.8323 96.6309C-81.6548 97.0377 -83.5044 96.3868 -82.8535 95.2695L-82.8644 95.2912ZM46.4777 244.909L46.5256 244.864C48.0076 243.479 49.5241 242.061 49.3416 240.087C49.2716 239.329 48.8155 238.451 48.334 237.525C47.5472 236.012 46.6928 234.369 47.3456 232.905C47.8956 231.672 49.2579 230.886 50.4848 230.178C51.605 229.532 52.6125 228.951 52.7859 228.154C53.0846 226.781 54.2403 226.463 55.588 226.092C55.8803 226.012 56.1816 225.929 56.4851 225.832C57.2229 225.597 57.8793 225.089 58.4688 224.633C59.2401 224.037 59.8969 223.529 60.4718 223.836C60.8603 224.044 61.1588 224.454 61.4711 224.884C61.9742 225.576 62.5128 226.316 63.5201 226.337C63.7413 226.341 63.9591 226.343 64.176 226.345C65.5605 226.357 66.9103 226.369 68.8845 227.025C70.4923 227.56 72.9631 227.181 74.8166 226.896C75.5957 226.776 76.2658 226.673 76.7169 226.662C77.5947 226.64 77.7384 227.1 77.8963 227.606C78.0125 227.978 78.1363 228.374 78.5665 228.62C78.8147 228.762 79.1128 228.861 79.4806 228.982L79.4811 228.982L79.4816 228.982L79.4818 228.982L79.482 228.982C80.6176 229.357 82.4164 229.951 85.455 232.715C89.2586 236.175 92.287 237.078 94.4442 237.72L94.4503 237.722L94.5916 237.764L94.7192 237.802L94.8116 237.83C96.9866 238.481 99.0152 240.732 101.592 244.648C104.168 248.564 106.126 250.121 109.169 250.777C110.143 250.985 111.461 251.161 112.912 251.354L112.913 251.354C116.004 251.765 119.7 252.257 121.97 253.316C125.306 254.873 129.84 257.921 132.053 260.931C134.266 263.942 134.521 265.39 133.941 266.442C133.714 266.852 132.948 267.351 131.984 267.978C130.474 268.96 128.479 270.258 127.307 272.029C125.795 274.315 125.743 276.217 125.683 278.411C125.667 279.003 125.65 279.615 125.604 280.263C125.387 283.311 124.622 289.402 122.447 292.337C120.858 294.484 117.547 295.662 114.773 296.649L114.773 296.649L114.772 296.649L114.772 296.649L114.771 296.65L114.77 296.65L114.769 296.65L114.769 296.65L114.768 296.651C113.747 297.014 112.8 297.351 112.038 297.701C109.212 299.008 107.905 301.547 107.905 302.74L107.905 302.81L107.906 302.865C107.906 302.923 107.907 302.985 107.907 303.05L107.909 303.178L107.911 303.319C107.93 304.816 107.966 307.611 107.395 308.652C107.08 309.228 105.914 310.67 104.674 312.204C103.331 313.866 101.902 315.634 101.375 316.522C100.868 317.376 100.641 318.246 100.442 319.011C100.243 319.777 100.071 320.438 99.6715 320.873C99.3458 321.227 98.5963 321.686 97.7915 322.178C96.6265 322.891 95.3456 323.675 95.0665 324.317C94.8908 324.723 94.8362 325.374 94.7769 326.081C94.6769 327.273 94.5638 328.622 93.8352 329.215C93.3526 329.607 92.375 329.999 91.2749 330.441C89.7291 331.061 87.9417 331.779 86.9467 332.73C86.0825 333.555 85.964 334.467 85.8586 335.279C85.7562 336.067 85.6662 336.761 84.9181 337.188C84.1327 337.635 83.5691 337.468 83.0537 337.314C82.5688 337.17 82.1265 337.038 81.5823 337.443C80.9142 337.94 80.9778 339.964 81.0394 341.926C81.0814 343.261 81.1225 344.568 80.9314 345.346C80.7008 346.284 80.0547 346.902 79.4288 347.501C78.7736 348.128 78.1405 348.734 78.0295 349.663C77.9262 350.526 78.1685 351.127 78.4892 351.922C78.8422 352.797 79.2902 353.908 79.4777 355.863C79.8411 359.6 79.4072 365.654 77.4491 367.541C75.491 369.429 71.6128 369.244 69.9422 368.338C68.9731 367.813 68.8838 366.921 68.789 365.974C68.7204 365.288 68.649 364.574 68.2391 363.95C68.0315 363.636 67.7707 363.322 67.489 362.983L67.4887 362.982C66.438 361.717 65.0983 360.104 65.1582 356.845C65.1904 354.96 65.5327 352.652 65.8612 350.438C66.253 347.797 66.6251 345.288 66.4274 343.789C66.2307 342.298 65.3015 340.838 64.4216 339.456C63.6757 338.284 62.9653 337.168 62.7662 336.136C62.3323 333.89 62.2238 323.118 63.4551 313.073C63.9311 309.189 64.3861 306.508 64.7065 304.62L64.7066 304.62C65.2148 301.626 65.3844 300.627 64.7623 299.984C63.748 298.932 63.748 297.625 64.2524 296.611C64.7623 295.596 65.0497 293.671 64.6158 290.991C64.1819 288.306 63.1296 285.518 59.1049 282.834C58.0964 282.161 57.1948 281.634 56.3864 281.161C53.9692 279.748 52.3864 278.823 51.2726 275.945C49.7864 272.099 46.5211 265.829 44.7095 263.546L44.615 263.427C42.8466 261.199 41.4199 259.402 41.8836 254.845C42.3555 250.202 43.6952 247.523 46.4886 244.909H46.4777ZM42.007 59.0854C41.5545 59.0218 41.1508 58.965 40.967 59.1398H40.9561C40.6724 59.4069 40.5577 59.7421 40.4386 60.09C40.2845 60.5403 40.1231 61.012 39.5784 61.3853C38.3092 62.2586 36.2046 61.6782 34.5015 60.7345C33.355 60.0991 31.6482 60.3683 29.8922 60.6452L29.892 60.6452C29.0394 60.7797 28.1753 60.916 27.358 60.9514C24.8575 61.0599 22.8994 60.8755 21.3753 60.0076C20.6012 59.5641 20.4161 58.7667 20.2125 57.8895C20.0152 57.0396 19.8006 56.1147 19.0158 55.3646C17.4211 53.8405 18.5385 51.3074 19.6667 50.4342C20.4065 49.8615 20.162 49.4008 19.8342 48.7829C19.6621 48.4585 19.467 48.0908 19.3792 47.6408C19.2658 47.0489 19.6456 46.4784 20.029 45.9026C20.4888 45.212 20.9536 44.5139 20.5779 43.7626C19.8891 42.3848 22.6499 39.2335 25.4759 38.1432C28.3072 37.0584 31.7135 36.478 31.86 37.8558C31.954 38.7401 32.4636 39.0098 33.105 39.3493C33.4628 39.5387 33.8615 39.7497 34.252 40.1013C34.7914 40.587 34.6736 41.2307 34.5659 41.8189C34.456 42.4197 34.3567 42.9625 34.9788 43.2201C35.5805 43.4693 35.8791 42.8947 36.2094 42.259C36.5551 41.5938 36.9355 40.8617 37.7342 40.9366C38.6075 41.0185 38.4264 41.9156 38.2675 42.7033C38.1421 43.3247 38.0305 43.8779 38.4611 43.909C38.9202 43.9422 39.2438 43.0529 39.605 42.0603C40.0119 40.9421 40.4665 39.6927 41.2165 39.483C42.6322 39.087 44.1563 41.2621 44.1563 42.5313C44.1563 43.0907 43.6431 44.4953 43.0627 46.084C42.3262 48.0998 41.4813 50.412 41.4389 51.6708C41.4004 52.8104 42.0236 53.7622 42.6576 54.7305C43.276 55.675 43.9045 56.635 43.9394 57.8C43.9898 59.3641 42.9029 59.2113 42.007 59.0854ZM78.3495 63.0668C78.523 62.5081 79.8465 63.3922 80.0363 65.1334C80.2262 66.8745 80.6059 69.0224 82.347 70.8449C83.35 71.8948 84.0813 72.1329 84.5676 72.2912C84.9255 72.4077 85.1508 72.4811 85.2543 72.803C85.4984 73.5624 85.7696 75.9055 84.8746 76.5293C84.684 76.6622 84.3551 76.8506 83.9577 77.0784L83.9574 77.0785L83.9572 77.0786L83.9568 77.0788C82.4878 77.9205 80.0826 79.2986 80.2533 80.3912C80.3001 80.6909 80.3621 80.9689 80.4185 81.2219C80.6236 82.1412 80.7551 82.7312 79.8194 82.8375C78.6261 82.9731 76.5812 82.8917 75.0082 81.8015C73.4298 80.7113 71.4989 82.5609 71.987 84.7088C72.392 86.4907 73.7526 86.1784 75.3999 85.8004L75.4004 85.8003C75.7386 85.7226 76.089 85.6423 76.4456 85.5767C78.5393 85.197 80.0363 86.4174 80.8228 87.6703C81.1394 88.1746 81.2055 88.8238 81.2709 89.4656C81.368 90.4185 81.4634 91.355 82.3741 91.7764C83.6071 92.3468 84.0911 92.761 85.1241 93.6451L85.1255 93.6462C85.3691 93.8547 85.6432 94.0893 85.9648 94.3582C87.6517 95.7685 88.8721 96.6146 89.5827 95.6925C89.9742 95.1806 89.6969 94.4162 89.4563 93.7529C89.2635 93.2216 89.0944 92.7553 89.3115 92.5357C89.4723 92.3749 89.7809 92.4796 90.1644 92.6097C90.9448 92.8744 92.0353 93.2444 92.8209 91.695C93.9924 89.3843 92.6853 86.911 91.3781 85.4139C90.6005 84.5234 90.5081 83.8555 90.4455 83.4035C90.4029 83.0955 90.3742 82.8877 90.1522 82.7778C89.6044 82.5066 90.0437 81.6876 90.6675 81.9642C91.0623 82.1393 91.1529 81.8754 91.2487 81.5962C91.3043 81.4344 91.3617 81.2673 91.4811 81.1777C91.8065 80.9337 92.5442 80.7438 92.7883 82.1595C93.0324 83.5752 93.6019 86.0485 95.4786 86.4554C96.8494 86.7525 97.1032 85.9182 97.3624 85.0663C97.458 84.7519 97.5544 84.435 97.7079 84.1718C98.2775 83.1901 100.181 81.8612 101.228 81.59C102.275 81.3188 102.573 80.12 101.38 79.2793C100.817 78.8845 100.243 78.6632 99.7393 78.4686C99.1699 78.2489 98.6893 78.0634 98.4131 77.7009C98.1786 77.3932 98.2542 77.0206 98.3266 76.6643C98.4149 76.2293 98.4983 75.8186 98.0063 75.5801C97.6804 75.4221 97.3323 75.4187 96.9713 75.4152C96.3407 75.409 95.671 75.4025 95.0122 74.5712C94.425 73.8304 94.486 73.3875 94.5305 73.0637C94.5646 72.8162 94.5891 72.6384 94.3071 72.4504C93.6562 72.0165 93.2711 71.1975 93.9003 70.6822C94.2287 70.4132 94.829 70.4398 95.3974 70.465C95.9178 70.488 96.4115 70.5099 96.6448 70.3025C97.133 69.8686 96.4007 69.1309 95.2291 68.8597C94.0575 68.5885 95.3105 67.8237 96.1512 67.6339C96.992 67.444 96.2055 65.3774 94.5999 65.9198C94.1242 66.0806 93.7156 66.2513 93.3719 66.3949C92.5557 66.736 92.1055 66.9241 91.991 66.4623C91.9141 66.1547 92.5164 65.8884 93.1848 65.5928C93.9311 65.2628 94.7597 64.8964 94.8169 64.3957C94.9254 63.4465 94.3016 62.6003 93.0758 62.9149C92.5327 63.0543 92.0546 63.3661 91.6244 63.6467C91.0836 63.9994 90.6186 64.3027 90.1956 64.1516C89.8611 64.0321 89.8529 63.9232 89.8413 63.7686C89.8266 63.5724 89.8063 63.3026 89.1054 62.8444C88.4344 62.4058 89.3252 61.9687 90.3266 61.4774C91.1952 61.0513 92.1469 60.5843 92.2351 60.0402C92.4249 58.8686 91.1448 57.6753 90.1685 58.6787C89.9655 58.8874 89.7697 59.1027 89.581 59.3102C88.8572 60.1061 88.2385 60.7865 87.7222 60.5283C87.389 60.3617 87.3188 60.104 87.216 59.727C87.1181 59.3677 86.9907 58.8999 86.5778 58.299C85.7316 57.0678 85.7642 56.227 86.8761 55.8202C87.988 55.4134 87.9935 54.052 86.7947 53.2113C85.596 52.3705 84.3214 51.8227 83.3938 52.5875C82.9749 52.9325 82.7911 53.4242 82.6384 53.8327C82.455 54.3232 82.3166 54.6936 81.8697 54.5456C81.4985 54.4218 81.3079 54.0655 81.1326 53.7378C80.9238 53.3472 80.7366 52.9972 80.2913 53.1299C79.4722 53.374 78.74 53.1842 79.776 52.0939C80.812 51.0037 81.1103 50.3257 80.6438 49.5934C80.1774 48.8612 79.7489 48.1777 80.5896 48.015C81.4303 47.8523 81.3761 46.3553 80.3997 46.301C80.023 46.2801 79.8037 46.344 79.5983 46.4038C79.2713 46.4991 78.9794 46.5841 78.1433 46.301C77.7865 46.1802 77.4262 45.99 77.035 45.7834C75.9337 45.202 74.5868 44.4909 72.3776 44.8311C70.2061 45.1655 68.3657 47.3028 67.1872 48.6715C66.7407 49.19 66.3892 49.5982 66.1507 49.7561C66.0265 49.8377 65.8849 49.9221 65.732 50.0133C64.8167 50.5591 63.4944 51.3476 63.0482 53.2113C62.5275 55.3863 62.2617 59.411 64.4639 60.6097C65.4999 61.1736 66.2838 61.4603 67.0754 61.7497C67.9664 62.0755 68.8672 62.4049 70.1483 63.1373C71.6255 63.9819 72.9713 63.4714 74.0312 63.0693C74.707 62.813 75.2666 62.6007 75.67 62.8119C76.143 63.0595 76.3028 63.4666 76.4457 63.8308C76.6158 64.2642 76.7621 64.6367 77.384 64.6072C78.1787 64.5696 78.1966 64.2573 78.2242 63.7775C78.2363 63.5664 78.2503 63.3228 78.3332 63.0559L78.3495 63.0668ZM422.002 294.62C420.711 295.472 420.261 296.649 420.331 298.173C420.364 298.877 420.087 299.023 419.809 299.17C419.485 299.34 419.16 299.512 419.317 300.565C419.467 301.583 419.794 302.288 420.058 302.857C420.302 303.382 420.492 303.791 420.44 304.226C420.388 304.662 420.073 304.922 419.781 305.163C419.466 305.423 419.178 305.662 419.274 306.076C419.329 306.314 419.39 306.875 419.464 307.546V307.547L419.464 307.548C419.637 309.119 419.876 311.294 420.255 311.37C420.75 311.469 420.767 311.689 420.902 313.515C420.915 313.69 420.929 313.881 420.944 314.087C421.018 315.052 421.024 315.738 421.029 316.234V316.234C421.037 316.948 421.04 317.269 421.232 317.461C421.557 317.786 421.937 319.565 420.624 320.433C419.312 321.301 418.661 322.136 418.948 323.807C419.236 325.478 421.921 326.855 424.568 325.944C425.463 325.638 426.333 325.273 427.182 324.917C428.842 324.222 430.417 323.562 431.928 323.444C433.244 323.34 433.681 323.549 434.031 323.716C434.288 323.839 434.498 323.939 434.976 323.877C435.455 323.815 435.984 323.272 436.597 322.641C437.431 321.784 438.421 320.767 439.652 320.58C440.406 320.465 441.116 320.445 441.805 320.425H441.805C443.068 320.389 444.259 320.355 445.526 319.744C447.484 318.801 449.551 318.329 452.708 319.782C455.864 321.231 457.204 322.359 457.53 324.566C457.576 324.884 457.617 325.188 457.656 325.478C457.887 327.205 458.044 328.379 458.945 328.412C459.492 328.432 459.882 327.824 460.228 327.286C460.547 326.79 460.827 326.353 461.158 326.524C461.503 326.704 461.621 327.213 461.731 327.686C461.839 328.156 461.94 328.591 462.248 328.629C462.529 328.663 462.705 328.502 462.864 328.357C463.055 328.182 463.221 328.029 463.518 328.266C464.06 328.699 465.15 330.696 465.15 332.182C465.15 332.836 464.996 333.287 464.847 333.719C464.658 334.269 464.48 334.79 464.641 335.664C464.8 336.53 465.83 337.183 466.896 337.858C467.752 338.401 468.63 338.957 469.099 339.651C470.151 341.207 471.708 340.703 472.543 339.651C473.379 338.598 474.355 338.452 474.756 339.542L474.771 339.583C474.786 339.623 474.8 339.664 474.815 339.704L474.847 339.795C475.19 340.766 475.444 341.483 477.148 340.638C477.969 340.231 478.547 339.635 479.053 339.113C479.688 338.457 480.211 337.918 480.956 338.018C481.182 338.048 481.402 338.087 481.615 338.124L481.617 338.124C482.664 338.308 483.534 338.46 484.075 337.438C484.316 336.982 484.532 336.193 484.777 335.299C485.195 333.776 485.695 331.95 486.543 330.945C486.683 330.779 486.814 330.624 486.938 330.477C488.002 329.221 488.505 328.626 488.864 327.392C489.177 326.32 490.695 324.807 491.762 323.744L491.763 323.743L491.769 323.738L491.77 323.736C492.071 323.437 492.335 323.174 492.526 322.966C493.029 322.419 493.547 320.628 494.027 318.966C494.375 317.762 494.704 316.625 494.994 316.078C495.202 315.682 495.483 315.33 495.762 314.983C496.403 314.181 497.026 313.402 496.697 312.161C496.225 310.382 496.187 309.043 496.626 308.028C497.06 307.014 497.353 304.367 495.682 302.442C495.458 302.184 495.251 301.949 495.059 301.732L495.048 301.718L495.047 301.718C493.817 300.324 493.243 299.674 493.182 298.672C493.14 297.988 492.682 297.694 492.187 297.375C491.841 297.154 491.478 296.92 491.224 296.535C490.99 296.177 490.881 295.929 490.79 295.724C490.642 295.387 490.544 295.163 490.025 294.756C489.624 294.44 489.542 293.859 489.456 293.251C489.363 292.593 489.266 291.905 488.756 291.49C488.451 291.243 488.053 290.996 487.649 290.745C486.751 290.188 485.828 289.615 485.854 288.99C485.892 288.084 485.567 284.965 484.731 284.092C484.298 283.642 484.246 282.791 484.19 281.884C484.138 281.041 484.083 280.15 483.717 279.487C483.306 278.742 482.714 278.558 482.234 278.41C481.827 278.283 481.501 278.182 481.433 277.784C481.417 277.688 481.395 277.544 481.367 277.362L481.367 277.361C481.14 275.901 480.543 272.049 479.801 271.731C478.965 271.373 477.772 277.062 477.479 281.087C477.192 285.112 475.776 286.782 473.964 286.674C473.072 286.62 472.777 286.242 472.357 285.702C471.924 285.146 471.358 284.42 469.869 283.701C469.476 283.512 469.109 283.342 468.768 283.183C466.559 282.158 465.448 281.642 465.481 279.823C465.519 277.724 466.534 276.666 467.548 276.053C468.562 275.435 468.416 274.025 467.656 274.166C467.53 274.189 467.392 274.222 467.24 274.258C466.478 274.438 465.373 274.7 463.74 274.274C462.715 274.008 462.178 273.543 461.747 273.171C461.355 272.832 461.052 272.57 460.551 272.604C459.498 272.674 457.394 273.656 454.931 276.482C453.28 278.373 453.645 279.293 453.881 279.889C453.998 280.184 454.084 280.4 453.879 280.615C453.536 280.977 453.182 280.736 452.818 280.487C452.526 280.288 452.227 280.085 451.921 280.181C451.637 280.271 451.396 280.472 451.177 280.655C450.867 280.914 450.603 281.135 450.326 280.941C450.153 280.819 450.146 280.491 450.138 280.099C450.124 279.427 450.106 278.566 449.236 278.223C447.858 277.681 445.754 278.261 444.778 279.563C444.422 280.037 444.114 280.844 443.799 281.669L443.799 281.669C443.25 283.108 442.681 284.599 441.805 284.461C441.271 284.377 440.862 284.183 440.504 284.014C439.94 283.747 439.504 283.54 438.903 283.918C438.412 284.228 438.285 285.063 438.14 286.016C437.995 286.967 437.832 288.036 437.271 288.816C436.148 290.373 432.123 291.463 429.183 292.082C426.244 292.7 424.036 293.28 422.002 294.62ZM468.41 257.633C465.367 256.982 464.418 254.905 465.221 254.043L465.215 254.053C465.742 253.484 466.67 253.691 467.633 253.904C468.386 254.072 469.161 254.244 469.783 254.053C470.41 253.859 470.665 253.395 470.932 252.91C471.268 252.301 471.622 251.658 472.755 251.477C474.218 251.243 475.754 251.907 478.471 253.081C479.531 253.54 480.772 254.076 482.258 254.666L482.811 254.886C487.568 256.776 487.783 256.861 488.17 258.257C488.483 259.388 488.731 259.461 489.944 259.817C490.285 259.918 490.702 260.04 491.218 260.215C493.316 260.926 492.653 261.576 492.15 262.07L492.15 262.07C492.088 262.13 492.029 262.188 491.978 262.244C491.506 262.748 491.723 263.405 492.922 264.744C493.124 264.972 493.359 265.216 493.603 265.471C494.795 266.715 496.219 268.2 495.314 269.132C494.223 270.255 491.978 269.279 490.02 266.849C488.062 264.419 486.32 263.654 485.051 264.999C484.736 265.333 484.464 265.718 484.195 266.097C483.382 267.245 482.608 268.339 480.81 267.793C479.385 267.36 478.28 266.594 477.321 265.93C476.67 265.479 476.086 265.074 475.516 264.853C474.669 264.524 474.643 263.87 474.609 262.975C474.586 262.381 474.56 261.68 474.285 260.899C473.596 258.941 471.453 258.284 468.41 257.633ZM420.641 256.456C421.043 256.478 421.371 256.211 421.7 255.942C422.179 255.552 422.662 255.158 423.385 255.643C423.683 255.841 423.96 256.066 424.231 256.287C425.072 256.971 425.85 257.604 427.003 257.194C428.527 256.652 429.07 254.748 428.5 253.386C428.142 252.531 428.49 252.16 429.049 251.564C429.38 251.211 429.784 250.779 430.16 250.121C430.594 249.361 430.785 248.752 430.92 248.32C431.1 247.747 431.182 247.485 431.603 247.593C432.335 247.783 433.642 247.376 433.181 246.807C433.032 246.623 432.833 246.515 432.625 246.402C432.191 246.166 431.713 245.907 431.548 244.876C431.304 243.352 431.196 241.801 432.009 240.716C432.308 240.315 432.685 239.959 433.02 239.643C433.597 239.097 434.052 238.667 433.778 238.324C433.583 238.08 433.239 237.929 432.887 237.775C432.456 237.587 432.014 237.393 431.82 237.017L431.773 236.927C431.417 236.237 430.841 235.12 429.563 235.275C428.603 235.393 428.291 236.285 428 237.12C427.887 237.445 427.777 237.762 427.632 238.02C427.117 238.942 426.819 239.11 425.999 239.219L425.931 239.228C425.159 239.33 424.704 239.39 424.177 240.607C423.635 241.86 422.897 243.162 421.568 243.515C421.115 243.635 420.744 243.686 420.424 243.729C419.805 243.814 419.379 243.872 418.932 244.355C418.584 244.731 418.65 245.123 418.713 245.492C418.773 245.842 418.829 246.172 418.525 246.449C418.232 246.717 417.955 246.571 417.595 246.38C417.189 246.166 416.677 245.895 415.916 246.096C414.473 246.476 413.633 248.027 414.5 249.768C414.865 250.5 415.278 251.02 415.639 251.473C416.137 252.1 416.536 252.601 416.567 253.359C416.573 253.491 416.576 253.62 416.579 253.745L416.579 253.747C416.607 254.857 416.627 255.648 418.118 255.453C418.947 255.345 419.104 255.567 419.29 255.832C419.476 256.097 419.693 256.405 420.646 256.462L420.641 256.456ZM406.423 261.239C406.305 261.445 406.178 261.665 405.898 261.707H405.892C405.073 261.83 404.237 260.876 403.284 259.79C402.558 258.962 401.764 258.057 400.859 257.492C398.765 256.191 397.322 255.155 396.726 253.224C396.129 251.293 393.14 246.861 391.86 245.066C391.549 244.629 391.265 244.199 390.997 243.792C390.162 242.526 389.475 241.485 388.568 241.177C387.369 240.77 386.773 238.671 387.586 237.83C388.347 237.044 390.777 238.468 391.666 238.989C391.728 239.025 391.782 239.057 391.828 239.083C392.52 239.482 392.611 240.122 392.691 240.684L392.696 240.716C392.737 241.004 393.161 241.153 393.771 241.368C394.366 241.578 395.14 241.85 395.907 242.375C396.914 243.066 397.762 243.997 398.373 244.669L398.374 244.669L398.374 244.669C398.703 245.031 398.964 245.318 399.145 245.451C399.379 245.622 399.618 245.611 399.819 245.603C400.066 245.592 400.257 245.584 400.317 245.912C400.425 246.509 400.946 246.753 401.434 246.807C401.922 246.861 402.139 247.002 402.22 247.843C402.279 248.452 402.64 248.463 402.999 248.475C403.136 248.479 403.272 248.484 403.392 248.521C403.826 248.657 404.124 248.955 403.745 250.072C403.365 251.19 403.994 251.813 404.835 252.03C405.393 252.173 405.771 252.967 406.073 253.6C406.229 253.927 406.365 254.212 406.495 254.341C406.645 254.492 406.938 254.471 407.272 254.448C407.779 254.413 408.381 254.371 408.724 254.911C409.139 255.561 408.728 256.579 408.396 257.401C408.269 257.717 408.153 258.004 408.1 258.23C408.02 258.574 408.061 259.001 408.1 259.41C408.153 259.969 408.204 260.496 407.937 260.731C407.808 260.846 407.581 260.836 407.341 260.825C407.119 260.815 406.886 260.805 406.711 260.893C406.586 260.956 406.507 261.094 406.423 261.239ZM296.283 273.374C297.845 274.443 297.807 278.342 297.042 280.046C296.795 280.599 296.54 281.1 296.3 281.572C295.801 282.551 295.365 283.408 295.193 284.363C295.137 284.674 295.093 284.98 295.05 285.284L295.05 285.285C294.896 286.367 294.747 287.413 294.07 288.458C293.691 289.044 293.387 290.095 293.035 291.313C292.581 292.883 292.047 294.73 291.168 296.22C289.611 298.867 288.885 299.99 287.577 300.066L287.456 300.072C286.125 300.146 283.826 300.273 283.374 298.726C283.158 297.999 283.199 297.151 283.236 296.402C283.279 295.509 283.315 294.758 282.902 294.522C282.142 294.089 281.779 292.743 282.902 291.583C284.025 290.422 285.842 288.355 285.223 286.978C284.605 285.6 283.992 283.463 285.115 282.047C286.238 280.631 287.816 280.127 289.747 279.981C291.496 279.848 292.466 278.14 293.198 276.852L293.27 276.724C293.302 276.669 293.333 276.615 293.363 276.562C293.382 276.53 293.401 276.497 293.419 276.466C293.591 276.17 293.761 275.803 293.937 275.421C294.54 274.117 295.217 272.654 296.283 273.385V273.374ZM331.786 29.3774C332.544 28.1021 333.356 26.7381 333.991 25.9987L333.98 26.0096C334.989 24.838 336.291 25.1146 337.761 25.9011C338.332 26.2089 338.916 26.6888 339.534 27.1971C340.506 27.9966 341.564 28.8664 342.794 29.2478C343.887 29.5865 344.491 29.1958 345.158 28.7636C345.719 28.4001 346.326 28.0072 347.307 27.9948C348.698 27.9772 350.248 29.4511 352.274 31.3787C353.378 32.4284 354.623 33.6128 356.062 34.764C360.141 38.0293 364.572 40.0145 366.313 40.3128C367.396 40.4984 368.616 40.0439 370.26 39.4309C371.259 39.0585 372.415 38.6276 373.793 38.2463C377.438 37.2428 385.46 37.4056 387.445 37.7581C388.127 37.8792 390.197 38.3885 392.695 39.003L392.695 39.0031L392.697 39.0034L392.697 39.0036L392.698 39.0038C397.473 40.1785 403.808 41.737 404.987 41.7014C406.292 41.662 407.34 39.967 408.776 37.6433C409.315 36.772 409.908 35.8123 410.59 34.8183C412.867 31.499 415.076 31.3373 416.788 31.2121C416.956 31.1998 417.12 31.1878 417.278 31.1733C419.046 31.0106 419.973 31.2547 420.814 32.4534C420.859 32.5166 420.903 32.5795 420.947 32.642C421.735 33.759 422.422 34.734 423.917 34.6827C425.495 34.6284 426.423 34.8725 426.911 35.5234C427.399 36.1743 428.646 36.234 429.493 35.9302C429.718 35.8494 430.195 35.6073 430.815 35.2924L430.816 35.2918C432.528 34.4232 435.329 33.0013 436.945 32.8819C438.529 32.7649 439.145 33.3937 439.648 33.9076C439.845 34.1084 440.024 34.2917 440.238 34.406C440.997 34.8129 453.749 35.0027 454.649 34.7857C454.994 34.7028 456.153 33.9082 457.645 32.8853L457.646 32.8844C460.055 31.2328 463.332 28.9864 465.449 28.1792C468.877 26.8774 472.956 28.3745 474.588 29.2695C476.153 30.1273 476.567 29.9935 477.654 29.6417L477.799 29.5949C478.998 29.2098 481.092 29.6491 483.213 30.3271C484.492 30.7362 485.219 30.6221 485.826 30.5267C486.226 30.464 486.573 30.4094 486.993 30.517C487.519 30.6519 487.857 31.1033 488.172 31.5231C488.49 31.9474 488.783 32.3395 489.222 32.3395C489.952 32.3395 490.072 32.0368 490.408 31.1914C490.474 31.0245 490.549 30.8365 490.638 30.6255C491.186 29.3508 493.144 29.0742 495.59 30.1644C498.042 31.2492 498.801 33.2344 498.638 34.7315C498.476 36.2285 498.286 38.8104 499.208 39.8464C500.13 40.8824 500.922 41.9726 499.913 43.1659C499.175 44.0389 496.315 43.9365 494.268 43.8632C493.517 43.8363 492.875 43.8133 492.488 43.8439C491.045 43.9578 490.502 45.0426 491.37 46.8651C492.244 48.6876 491.262 50.5372 490.801 51.2423C490.34 51.9475 489.662 53.336 490.502 54.1496C490.857 54.4933 491.378 54.7605 491.883 55.0199C492.575 55.3747 493.237 55.7149 493.41 56.2162C493.708 57.084 494.467 58.0116 495.775 58.5269C497.076 59.0476 498.058 60.1866 498.058 61.8735C498.058 63.2275 497.289 63.2466 496.17 63.2743C495.894 63.2811 495.598 63.2885 495.286 63.3163C494.207 63.4127 493.32 64.8284 492.406 66.288L492.406 66.2886C491.983 66.963 491.555 67.6469 491.099 68.2142C490.246 69.2798 490.415 69.9996 490.569 70.6536C490.674 71.1015 490.772 71.5186 490.53 71.9948C490.426 72.1976 490.319 72.3947 490.214 72.5868L490.212 72.5903C489.713 73.5065 489.276 74.3087 489.635 75.0702C490.068 75.9923 490.53 77.1097 489.635 77.408C489.176 77.5608 488.923 77.4006 488.635 77.2189C488.361 77.0457 488.056 76.853 487.514 76.8927C486.933 76.9352 486.232 77.2292 485.161 77.679C484.181 78.0903 482.89 78.6319 481.097 79.2305C477.344 80.4835 477.864 81.6551 478.732 83.0382C479.6 84.4213 479.6 85.9455 479.492 87.551C479.405 88.8267 480.055 88.9004 480.927 88.9993C481.153 89.0249 481.393 89.0522 481.64 89.1023C482.833 89.3464 482.562 91.0278 482.399 91.6028C482.236 92.1777 482.675 92.6388 483.598 93.0185C484.264 93.2929 484.123 94.0517 483.881 95.3544V95.3548C483.788 95.8545 483.68 96.4343 483.598 97.0974C483.4 98.6793 484.237 99.3479 485 99.9566C485.39 100.268 485.76 100.564 485.962 100.959C486.559 102.125 485.8 102.863 484.764 103.46C483.733 104.062 483.76 105.825 484.059 106.861C484.357 107.891 484.384 108.52 484.059 109.659C483.921 110.141 483.943 111.148 483.968 112.247V112.248V112.248V112.249V112.25C484.002 113.749 484.039 115.419 483.679 116.158C483.055 117.432 481.314 117.709 480.007 114.769C478.7 111.829 474.865 105.955 472.798 103.481C470.732 101.008 470.515 95.7847 471.437 92.9859C472.359 90.1871 473.151 85.1536 473.503 82.4904C473.856 79.8271 473.775 78.6013 472.413 78.5742C471.052 78.5471 469.284 78.1945 468.606 76.7517C467.927 75.3089 466.268 75.5313 464.879 76.3991C463.956 76.9797 463.838 78.2077 463.704 79.6128C463.636 80.3211 463.564 81.0743 463.382 81.8124C462.906 83.7468 463.438 84.6098 464.107 85.6955C464.2 85.8457 464.295 86.0003 464.391 86.1625C465.177 87.4968 463.355 89.0752 461.18 89.6176C459.422 90.0549 458.359 89.3463 457.128 88.5265C456.833 88.3295 456.527 88.1261 456.201 87.9307C454.514 86.9218 451.959 87.5456 448.287 90.5939C444.615 93.6368 440.861 98.6974 439.994 101.198C439.12 103.704 441.843 107.837 444.289 110.337C445.763 111.843 448.135 113.676 449.967 115.091L449.968 115.091C451.177 116.026 452.151 116.778 452.474 117.134C453.293 118.029 453.565 119.96 453.483 121.647C453.444 122.469 453.753 123.389 454.107 124.436C454.478 125.537 454.896 126.779 455.007 128.199C455.181 130.423 453.609 132.973 452.572 134.656C452.314 135.075 452.089 135.44 451.932 135.733C451.462 136.612 451.418 138.967 451.378 141.132C451.351 142.589 451.325 143.96 451.173 144.737C450.793 146.668 449.106 148.789 447.636 149.06C446.977 149.181 446.434 149.003 445.915 148.833C445.276 148.624 444.673 148.427 443.937 148.816C443.019 149.301 442.861 151.254 442.728 152.896C442.668 153.641 442.613 154.321 442.494 154.771C442.258 155.668 441.455 156.522 440.802 157.217C440.404 157.64 440.063 158.003 439.939 158.281C439.739 158.731 440.534 159.469 441.536 160.4C442.166 160.985 442.877 161.646 443.476 162.36C445.022 164.209 445.786 166.845 446.003 168.993C446.22 171.141 442.792 173.75 440.563 172.964C438.883 172.371 438.823 169.969 438.78 168.204V168.203C438.766 167.627 438.753 167.119 438.686 166.764C438.415 165.321 437.602 165.131 436.43 164.914C435.258 164.692 435.014 164.122 434.743 161.839C434.472 159.555 434.201 159.122 432.866 159.149C432.329 159.16 431.724 159.691 431.102 160.238C430.187 161.043 429.235 161.88 428.408 161.134C427.658 160.46 427.71 159.253 427.754 158.251C427.79 157.398 427.821 156.694 427.345 156.594C426.314 156.377 425.848 157.326 425.142 158.877C424.664 159.929 423.76 160.831 423.05 161.54C422.712 161.876 422.419 162.169 422.235 162.414C421.762 163.045 422.81 163.774 423.676 164.376C423.852 164.498 424.02 164.615 424.166 164.725C425.034 165.381 425.929 164.996 426.938 164.236C427.947 163.472 429.438 163.775 430.8 164.67C432.156 165.565 432.427 166.65 431.478 167.089C430.529 167.529 428.484 168.505 427.426 170.138C426.491 171.582 427.486 172.406 428.557 173.294C428.622 173.348 428.686 173.401 428.751 173.455C428.827 173.518 428.902 173.582 428.977 173.647C429.7 174.268 429.908 174.801 430.149 175.418C430.308 175.825 430.482 176.268 430.827 176.799C430.976 177.026 431.121 177.237 431.26 177.438C431.934 178.416 432.465 179.185 432.622 180.742C432.812 182.619 431.565 184.414 430.068 185.721C428.57 187.028 429.01 188.797 429.661 189.746C429.695 189.796 429.731 189.847 429.768 189.897C429.823 189.971 429.88 190.045 429.938 190.12C430.58 190.952 431.333 191.927 430.339 194.834C429.194 198.18 426.531 200.654 425.305 201.662C424.216 202.559 422.4 202.744 420.616 202.927C420.392 202.95 420.168 202.973 419.946 202.997C418.565 203.148 416.935 204.551 415.725 205.591L415.725 205.592L415.724 205.592L415.724 205.593C415.195 206.048 414.747 206.433 414.435 206.615C413.524 207.145 412.896 206.282 412.402 205.604C412.34 205.519 412.28 205.438 412.222 205.362C411.702 204.678 408.686 205.199 406.918 207.618C405.149 210.043 407.107 212.706 410.129 214.474C413.144 216.242 414.316 219.86 414.425 222.062C414.496 223.505 414.157 224.212 413.801 224.956C413.613 225.348 413.42 225.751 413.28 226.277C413.031 227.209 412.162 227.784 411.2 228.42C410.589 228.824 409.941 229.253 409.391 229.813C407.975 231.251 406.343 232.585 405.393 232.341C404.955 232.229 404.822 231.623 404.672 230.94C404.495 230.135 404.295 229.223 403.544 228.886L403.464 228.85L403.379 228.812C402.147 228.263 402.012 228.202 399.926 224.915C397.751 221.487 392.994 217.598 391.416 216.893C390.78 216.607 390.122 216.516 389.52 216.433C388.629 216.31 387.861 216.204 387.472 215.505C386.821 214.333 384.484 210.585 382.743 209.468C381.656 208.773 380.909 208.84 380.064 208.916C379.556 208.962 379.013 209.01 378.338 208.898C377.3 208.726 375.937 207.807 374.644 206.936C373.701 206.3 372.796 205.691 372.084 205.416C370.397 204.765 369.551 205.448 369.036 206.913C368.78 207.642 368.032 208.217 367.154 208.893C366.268 209.575 365.248 210.36 364.469 211.507C363.633 212.738 361.762 214.379 360.121 215.819C358.717 217.051 357.481 218.136 357.206 218.689C356.609 219.887 356.555 224.536 356.555 226.44C356.555 228.343 356.555 229.651 355.058 230.464C354.457 230.793 354.028 231.415 353.618 232.007C353.007 232.892 352.439 233.713 351.413 233.404C349.699 232.889 349.075 230.497 348.94 228.701C348.844 227.43 347.711 226.036 346.69 224.779C346.27 224.262 345.868 223.768 345.566 223.315C344.979 222.432 344.294 220.129 343.506 217.481L343.506 217.48L343.506 217.48L343.505 217.48C342.91 215.479 342.256 213.281 341.541 211.35C340.036 207.28 338.217 206.947 336.633 206.657C336.573 206.646 336.513 206.635 336.454 206.624L336.382 206.611L336.34 206.603L336.286 206.592C336.242 206.584 336.199 206.575 336.155 206.566C334.468 206.213 333.215 205.562 332.971 204.038C332.727 202.514 331.995 201.722 330.254 200.936C329.011 200.368 328.613 199.704 328.159 198.944C327.979 198.643 327.79 198.327 327.536 197.996C326.641 196.83 324.331 196.83 322.834 197.697C321.337 198.571 316.444 198.484 315.137 197.562C314.262 196.945 312.719 196.923 310.726 196.895C309.741 196.881 308.646 196.865 307.467 196.775C303.904 196.504 297.135 192.371 295.719 190.06C294.303 187.75 292.92 187.148 291.749 188.645C290.582 190.142 295.751 194.627 298.577 195.935C299.835 196.514 301.814 197.169 303.913 197.865L303.913 197.865L303.914 197.865L303.914 197.865C306.533 198.732 309.339 199.662 311.167 200.583C314.459 202.243 315.001 203.517 314.649 205.123C314.458 205.994 313.818 206.648 313.173 207.307C312.629 207.863 312.081 208.423 311.796 209.121C311.406 210.066 310.924 210.467 310.159 211.102C309.692 211.491 309.118 211.968 308.395 212.711C306.491 214.669 305.157 215.515 303.416 215.787C302.175 215.98 301.598 216.545 300.71 217.415C300.351 217.766 299.942 218.167 299.418 218.613C298.367 219.508 297.586 219.615 296.691 219.739C296.035 219.83 295.316 219.929 294.385 220.354C293.709 220.661 293.027 221.036 292.351 221.406L292.351 221.406L292.349 221.408L292.348 221.408C290.821 222.246 289.331 223.063 288.049 223.044C286.2 223.017 283.618 219.535 280.569 214.832C279.034 212.459 277.566 210.888 276.397 209.638C275.251 208.412 274.394 207.494 274.044 206.43C273.854 205.849 273.707 205.296 273.568 204.773L273.567 204.772C273.193 203.363 272.877 202.175 271.924 201.261C270.616 200.008 270.128 199.14 269.721 198.077C269.315 197.014 268.17 196.39 268.034 198.511C267.899 200.632 269.228 203.517 270.345 204.467C271.462 205.416 271.842 207.754 271.842 209.142C271.842 210.531 272.629 211.588 274.126 212.624C275.534 213.594 275.858 215.409 276.049 216.483C276.061 216.55 276.073 216.615 276.084 216.676C276.204 217.327 277.492 218.327 278.741 219.297C279.472 219.864 280.189 220.42 280.651 220.891C281.107 221.355 281.855 222.253 282.677 223.241L282.678 223.241C284.114 224.967 285.78 226.968 286.525 227.416C287.259 227.86 289.644 227.766 291.758 227.683H291.758H291.758H291.759C293.003 227.635 294.153 227.59 294.819 227.66C296.614 227.85 297.59 229.889 297.427 232.281C297.265 234.673 293.213 240.493 291.689 242.316C290.69 243.51 288.889 244.901 286.9 246.438C285.853 247.246 284.755 248.095 283.694 248.977C281.302 250.967 277.899 255.766 276.192 258.174C275.708 258.856 275.36 259.347 275.211 259.526C274.527 260.34 275.373 261.647 275.889 262.407C276.263 262.959 276.193 264.261 276.127 265.486V265.486C276.102 265.944 276.078 266.391 276.078 266.784C276.078 267.815 276.757 268.804 277.325 269.632L277.325 269.632L277.325 269.632C277.551 269.962 277.76 270.266 277.901 270.537C278.394 271.486 277.521 279.427 277.006 280.87C276.491 282.313 274.424 283.316 272.222 284.298C270.02 285.274 266.565 289.001 266.131 290.172C265.84 290.944 266.24 292.835 266.577 294.429L266.577 294.43C266.75 295.246 266.906 295.983 266.944 296.453C267.058 297.842 265.859 298.769 264.064 299.637C262.269 300.511 261.016 301.921 261.016 303.092C261.016 304.264 260.5 306.412 258.651 308.831L258.565 308.943L258.565 308.944C256.655 311.45 251.716 317.932 247.965 319.272C245.683 320.085 244.192 319.961 242.848 319.848C241.95 319.773 241.118 319.704 240.16 319.923C239.428 320.091 238.738 320.35 238.08 320.598L238.08 320.598C236.588 321.16 235.254 321.661 233.933 320.905C232.03 319.815 231.346 317.26 231.677 315.302C231.957 313.643 229.286 308.938 227.619 306.003C227.318 305.474 227.051 305.002 226.839 304.617C225.964 303.025 225.705 300.893 225.426 298.595L225.426 298.594C225.261 297.244 225.09 295.836 224.783 294.446C223.953 290.693 222.348 288.404 221.507 287.59C220.666 286.777 220.585 284.461 221.073 279.867C221.489 275.953 222.436 275.251 223.415 274.526C223.585 274.4 223.756 274.273 223.926 274.128C225.07 273.152 224.496 271.383 223.899 270.049C223.302 268.72 223.465 267.928 223.845 267.223C224.224 266.513 223.98 265.102 222.646 263.632C221.876 262.781 221.35 261.519 220.864 260.354C220.512 259.509 220.181 258.715 219.793 258.165C219.445 257.674 218.881 257.191 218.277 256.674C217.279 255.819 216.174 254.872 215.768 253.652C215.277 252.175 215.947 249.985 216.573 247.936L216.573 247.935C216.777 247.269 216.977 246.617 217.13 246.01C217.753 243.536 217.103 242.337 215.85 241.687C215.082 241.283 214.291 241.551 213.265 241.898C212.623 242.116 211.889 242.365 211.011 242.5C209.104 242.795 208.502 241.307 207.961 239.968L207.96 239.967C207.854 239.703 207.749 239.445 207.638 239.208C206.96 237.765 205.788 237.575 203.857 237.928C201.926 238.28 198.937 239.533 197.223 240.293C195.509 241.052 194.284 240.971 193.172 240.401C192.06 239.832 190.156 239.615 188.55 240.265C188.124 240.44 187.697 240.655 187.274 240.868C186.11 241.455 184.975 242.027 183.956 241.708C182.783 241.342 178.057 237.923 175.881 236.348L175.881 236.348L175.88 236.347L175.875 236.343L175.859 236.332C175.471 236.051 175.166 235.83 174.979 235.698C173.753 234.825 173.374 234.12 173.075 232.108C172.869 230.714 171.109 229.307 169.558 228.067L169.557 228.067L169.557 228.066C168.869 227.517 168.222 227 167.771 226.532C166.301 225.008 165.813 223.999 165.894 221.471C165.94 220.036 166.46 218.092 166.926 216.351C167.281 215.026 167.604 213.818 167.662 213.042C167.728 212.166 167.412 211.225 167.062 210.182C166.694 209.088 166.288 207.881 166.247 206.517C166.187 204.561 168.254 201.766 170.046 199.342C170.694 198.466 171.306 197.638 171.768 196.916C173.509 194.199 175.034 193.168 177.371 192.187C179.709 191.21 180.089 190.12 180.007 187.701C179.926 185.276 180.637 184.164 183.001 182.45C184.397 181.439 188.076 180.069 191.745 178.702C194.295 177.752 196.84 176.804 198.612 175.98C202.318 174.254 203.146 174.247 205.261 174.229C205.613 174.226 206.001 174.223 206.444 174.211C207.364 174.187 208.603 174.048 209.936 173.899C213.103 173.544 216.805 173.129 218.03 174.049C219 174.777 219.261 176.887 219.494 178.771C219.68 180.27 219.848 181.626 220.341 182.027C221.179 182.71 223.764 182.73 228.657 182.769H228.657H228.658H228.658H228.659H228.659H228.66H228.66H228.661H228.661H228.662H228.662H228.662H228.663C230.26 182.781 232.102 182.795 234.21 182.836C241.602 182.976 246.117 184.432 249.628 185.564L249.628 185.564C250.187 185.744 250.721 185.916 251.236 186.074C253.934 186.896 254.931 186.424 255.884 185.973C256.258 185.796 256.624 185.623 257.083 185.531C257.911 185.363 258.494 185.596 259.09 185.834C259.67 186.066 260.263 186.302 261.108 186.182C262.822 185.938 263.663 184.333 264.916 180.959C266.169 177.585 266.169 175.22 264.889 174.84C264.263 174.655 263.483 175.047 262.629 175.475C261.735 175.924 260.761 176.413 259.801 176.321C258.866 176.232 258.397 175.866 258.023 175.574C257.647 175.28 257.367 175.062 256.807 175.28C256.591 175.364 256.367 175.479 256.127 175.603C255.125 176.119 253.846 176.778 251.719 175.876C249.083 174.759 246.881 171.901 247.206 170.68C247.269 170.444 247.334 170.232 247.393 170.039C247.639 169.232 247.78 168.769 247.233 168.397C246.95 168.203 246.934 167.786 246.916 167.303C246.89 166.619 246.859 165.802 246.062 165.294C245.045 164.646 244.198 165.226 243.279 165.854C242.967 166.068 242.646 166.287 242.308 166.466C240.979 167.176 240.594 168.288 241.739 169.487C242.883 170.68 243.702 171.846 242.72 172.259C242.223 172.467 241.777 172.242 241.241 171.973C240.719 171.71 240.112 171.404 239.292 171.418C237.633 171.445 236.195 171.06 234.834 168.478C233.896 166.699 233.668 165.331 233.476 164.172C233.389 163.65 233.309 163.169 233.174 162.712C232.74 161.242 230.592 159.528 229.448 159.528C228.303 159.528 227.023 158.682 226.155 157.38C225.287 156.079 222.293 154.419 221.426 154.88C220.558 155.341 223.845 159.284 225.179 160.537C226.513 161.79 229.61 163.775 230.538 164.291C231.441 164.792 230.843 165.479 230.31 166.091L230.267 166.14C229.894 166.573 229.982 167.312 230.083 168.155V168.155V168.155L230.083 168.156C230.129 168.539 230.177 168.944 230.185 169.351C230.212 170.653 229.122 172.042 228.146 171.825C227.516 171.685 227.541 170.636 227.565 169.633C227.578 169.082 227.591 168.545 227.495 168.18C227.224 167.149 224.506 165.137 221.024 163.558C218.419 162.376 217.644 160.827 216.96 159.461L216.96 159.461C216.732 159.004 216.513 158.568 216.24 158.172C215.155 156.594 213.409 156.974 211.89 158.66C210.371 160.347 208.191 159.913 207.214 159.366C206.238 158.818 204.714 159.257 204.443 161.866C204.207 164.13 202.825 164.838 201.007 165.769C200.729 165.91 200.442 166.058 200.147 166.216C198.903 166.885 198.794 168.129 198.666 169.58C198.565 170.73 198.453 172.009 197.755 173.235C196.815 174.892 195.599 174.859 194.181 174.82C193.227 174.794 192.182 174.765 191.067 175.247C188.295 176.446 187.368 176.554 186.988 174.813C186.756 173.748 186.034 173.822 185.122 173.916C184.544 173.975 183.889 174.042 183.235 173.832C182.01 173.438 181.963 172.356 181.913 171.209C181.894 170.776 181.875 170.333 181.792 169.915C181.677 169.34 181.49 169.098 181.362 168.933C181.152 168.66 181.1 168.594 181.792 167.578C182.904 165.945 182.584 162.842 181.879 160.559C181.174 158.275 184.981 156.914 189.548 158.275C194.115 159.631 196.128 158.926 197.869 157.131C199.61 155.336 196.784 151.908 193.79 150.221C190.796 148.534 190.199 148.046 190.525 146.576C190.76 145.516 192.363 145.592 193.663 145.654C194.161 145.677 194.614 145.699 194.929 145.654C195.69 145.545 195.579 145.022 195.471 144.509C195.417 144.254 195.363 144.002 195.417 143.804C195.493 143.525 195.855 143.519 196.486 143.508C197.204 143.496 198.27 143.478 199.659 143.045C202.268 142.231 205.045 138.966 205.316 137.17C205.587 135.375 206.781 133.363 209.558 133.363C212.335 133.363 213.257 132.441 212.714 131.025C212.659 130.881 212.591 130.715 212.517 130.532C211.859 128.923 210.664 125.999 212.714 124.825C214.998 123.518 216.305 125.151 216.088 126.675C216.028 127.101 215.886 127.493 215.75 127.868C215.4 128.836 215.09 129.695 216.305 130.754C217.472 131.771 218.403 131.406 219.407 131.013C219.854 130.838 220.315 130.658 220.818 130.591C221.756 130.466 221.956 130.809 222.194 131.215C222.371 131.516 222.568 131.853 223.102 132.061C223.685 132.291 224.255 131.835 224.995 131.244C225.844 130.566 226.917 129.709 228.488 129.506C229.767 129.341 230.581 129.568 231.188 129.737C231.972 129.956 232.409 130.078 233.055 129.126C233.551 128.397 233.648 127.512 233.753 126.545C233.89 125.282 234.043 123.878 235.121 122.493C236.458 120.776 235.784 119.139 234.719 116.547C234.266 115.446 233.742 114.173 233.272 112.648C231.693 107.533 232.127 104.979 233.868 102.858C234.198 102.457 234.587 102.034 234.983 101.606L234.983 101.605C236.677 99.7689 238.471 97.8235 236.043 96.9835C233.049 95.9475 232.512 99.267 232.181 101.605C231.986 102.988 230.669 104.011 229.413 104.987C228.545 105.66 227.706 106.312 227.284 107.045C226.247 108.84 228.151 112.919 229.35 114.715C230.537 116.493 228.469 118.271 227.264 119.306L227.229 119.336C226.525 119.942 226.497 121.788 226.472 123.407V123.407C226.455 124.542 226.439 125.565 226.193 125.97C225.597 126.946 222.386 129.23 220.699 128.687C219.779 128.391 218.746 126.964 217.654 125.453C216.742 124.193 215.789 122.875 214.824 122.108C213.67 121.193 212.355 121.339 211.107 121.479C210.062 121.596 209.063 121.707 208.245 121.186C206.777 120.255 207.238 117.577 207.544 115.797C207.612 115.4 207.673 115.047 207.703 114.769C207.783 114.016 207.399 113.411 206.983 112.754C206.557 112.082 206.097 111.356 206.07 110.365C206.032 109.008 208.136 107.39 211.098 105.113C212.41 104.104 213.89 102.966 215.427 101.664C220.427 97.4228 223.205 90.0841 223.964 87.1442C224.078 86.7051 224.166 86.3281 224.242 85.9987C224.677 84.127 224.754 83.7946 227.392 82.3602C230.489 80.6733 236.418 79.697 237.562 80.4563C237.68 80.5343 237.79 80.6101 237.898 80.684C238.841 81.3299 239.58 81.836 242.948 82.4687C244.901 82.836 247.077 82.8353 249.052 82.8347C250.868 82.8342 252.515 82.8337 253.661 83.1196C255.058 83.4682 255.658 83.9853 256.262 84.5065C256.692 84.8773 257.124 85.2501 257.848 85.5658C259.584 86.3252 272.965 85.2892 276.284 84.5298C279.599 83.7704 293.034 74.9618 296.625 71.9677C299.236 69.7943 299.056 66.4678 298.931 64.1451C298.884 63.2738 298.844 62.5437 298.962 62.0688C299.396 60.3276 303.747 60.5446 304.783 62.6112C305.651 64.3529 307.448 63.9293 309.849 63.3635C310.297 63.2579 310.766 63.1474 311.253 63.0451C314.356 62.3888 315.007 60.268 314.464 57.876C313.922 55.4785 315.284 53.7374 317.73 52.8153C320.176 51.8878 320.127 49.9297 319.579 47.7547C319.032 45.5796 321.809 41.1753 323.984 41.3922C326.159 41.6092 327.135 40.6817 328.768 38.3439C329.7 37.0089 329.693 35.4969 329.687 34.2425C329.683 33.3003 329.679 32.5034 330.075 32.0357C330.504 31.5312 331.124 30.4895 331.784 29.3802L331.784 29.3793L331.785 29.3782L331.786 29.3774ZM190.432 142.855C193.22 141.412 195.016 141.119 196.29 141.097C196.885 141.087 197.484 140.918 198.026 140.764C198.646 140.588 199.193 140.433 199.577 140.56C200.299 140.799 202.127 140.544 202.479 139.931C202.693 139.559 202.246 139.359 201.858 139.185C201.606 139.073 201.379 138.971 201.373 138.841C201.365 138.683 201.461 138.634 201.563 138.581C201.676 138.524 201.796 138.462 201.796 138.25C201.796 138.059 202.006 137.95 202.263 137.816C202.556 137.663 202.911 137.478 203.087 137.105C203.418 136.406 203.64 135.109 202.626 134.74C202.041 134.528 201.602 134.69 201.254 134.819C200.999 134.914 200.792 134.99 200.613 134.887C200.404 134.766 200.42 134.529 200.441 134.237C200.462 133.941 200.488 133.588 200.282 133.243C200.185 133.08 200.076 132.92 199.964 132.757C199.608 132.238 199.233 131.692 199.192 130.933C199.138 129.935 198.14 129.273 197.511 128.92C197.185 128.738 197.151 128.332 197.118 127.928C197.087 127.551 197.056 127.175 196.789 126.979C196.684 126.901 196.572 126.814 196.455 126.725C195.957 126.34 195.394 125.906 195.108 125.98C195.09 125.985 195.071 125.99 195.051 125.996L194.98 126.015C194.616 126.115 194.095 126.259 194.148 125.97C194.207 125.644 194.815 124.37 195.889 123.372C196.963 122.373 196.995 121.245 196.426 120.99C196.107 120.847 195.634 120.911 195.205 120.968C194.87 121.013 194.561 121.055 194.376 120.99C193.953 120.844 193.562 120.73 193.025 121.028C192.488 121.327 192.027 120.676 192.542 120.123C192.742 119.908 193.039 119.694 193.33 119.484C193.791 119.151 194.238 118.829 194.262 118.533C194.3 118.051 194.224 117.665 193.931 117.758C193.864 117.779 193.773 117.814 193.668 117.855C193.317 117.992 192.819 118.185 192.618 118.072C192.483 117.996 192.363 118.099 192.241 118.205C192.128 118.302 192.013 118.402 191.881 118.365C191.764 118.333 191.686 118.232 191.611 118.133C191.508 117.998 191.407 117.867 191.213 117.92C190.877 118.013 190.584 118.403 190.676 119.119C190.725 119.493 190.426 119.742 190.097 120.016C189.796 120.268 189.47 120.54 189.364 120.947C189.256 121.358 189.36 121.608 189.469 121.872C189.586 122.155 189.71 122.453 189.586 122.981C189.474 123.461 189.209 123.682 189.006 123.85C188.778 124.039 188.629 124.163 188.865 124.516C189.122 124.902 189.409 124.668 189.655 124.467C189.834 124.321 189.992 124.192 190.101 124.332C190.198 124.454 190.119 124.773 190.029 125.138C189.876 125.759 189.691 126.512 190.286 126.642C191.23 126.848 191.669 127.065 191.452 127.586C191.399 127.713 191.279 127.879 191.147 128.061C190.738 128.625 190.218 129.343 191.251 129.528C192.618 129.772 193.025 129.604 193.448 129.197C193.871 128.79 194.332 128.92 194.148 129.181C194.109 129.235 194.041 129.299 193.96 129.375C193.653 129.664 193.172 130.116 193.524 130.786C193.777 131.267 194.166 131.375 194.458 131.456C194.68 131.517 194.846 131.563 194.853 131.746L194.854 131.776C194.871 132.204 194.899 132.918 194.538 133.167C194.49 133.201 194.429 133.246 194.359 133.298C193.901 133.641 193.041 134.284 192.434 133.959C192.37 133.925 192.31 133.893 192.254 133.862L192.252 133.861C191.69 133.557 191.472 133.439 191.289 133.759C191.089 134.111 191.197 134.865 192.103 135.201C193.009 135.538 193.193 136.552 192.011 136.937C190.828 137.322 189.239 138.027 190.514 138.434C191.119 138.627 191.59 138.566 191.996 138.514C192.446 138.456 192.814 138.408 193.193 138.727C193.62 139.087 193.975 138.943 194.243 138.834C194.428 138.759 194.571 138.701 194.669 138.836C194.907 139.166 194.744 139.741 193.893 139.649C193.041 139.557 192.119 139.872 191.121 140.94C190.123 142.009 189.516 143.321 190.438 142.844L190.432 142.855ZM184.96 137.968C184.254 138.678 183.132 138.933 182.285 138.716L182.291 138.727C182.262 138.72 182.234 138.713 182.206 138.706C181.865 138.621 181.572 138.548 181.071 138.011C180.528 137.431 180.897 136.509 181.846 136.373C182.472 136.284 182.518 136.013 182.587 135.605C182.622 135.395 182.664 135.148 182.795 134.871C183.18 134.057 182.931 133.981 182.107 134.019C181.282 134.057 181.119 133.341 181.575 133.021C182.031 132.701 182.399 132.365 181.662 132.305C180.924 132.245 181.103 131.405 181.944 131.112C182.491 130.921 182.712 131.063 182.932 131.206C183.051 131.282 183.169 131.358 183.338 131.383C183.82 131.453 184.488 130.162 183.967 130.124C183.446 130.087 184.493 128.774 185.48 128.389C186.467 128.004 186.858 128.101 187.167 128.324C187.326 128.438 187.454 128.406 187.622 128.365C187.781 128.327 187.975 128.279 188.263 128.34C188.825 128.458 189.185 129.067 189.42 129.462L189.456 129.522C189.561 129.698 189.522 129.789 189.495 129.854C189.461 129.934 189.443 129.976 189.727 130.087C190.243 130.287 189.592 131.236 188.87 131.529C188.149 131.822 188.594 133.769 188.827 134.767C189.06 135.766 188.29 136.97 187.682 136.97C187.075 136.97 185.665 137.257 184.96 137.968ZM158.81 87.2147C157.796 88.0609 156.776 89.3952 158.55 89.4494C160.323 89.5037 160.638 90.0786 160.562 91.9608C160.545 92.3799 160.543 92.7425 160.541 93.0538C160.535 94.1405 160.532 94.6017 159.917 94.6565C159.125 94.7271 158.327 95.4702 159.656 95.6708L159.756 95.6859C161.036 95.8782 162.02 96.026 162.797 97.591C163.369 98.7432 164.603 98.1243 165.583 97.6328C165.969 97.4395 166.315 97.2658 166.567 97.2275C167.042 97.155 167.521 97.0003 168.093 96.8156C168.59 96.655 169.157 96.4716 169.854 96.3C171.351 95.9312 173.124 95.1935 173.178 93.2517C173.213 92.0294 172.604 91.1681 172.038 90.3662C171.704 89.8942 171.385 89.4428 171.22 88.9504C171.17 88.8004 171.123 88.6449 171.076 88.4871L171.076 88.4869L171.076 88.4866C170.702 87.2468 170.285 85.8641 167.879 85.8641C165.942 85.8641 165.566 87.2309 165.293 88.2196C165.184 88.6152 165.092 88.9504 164.923 89.1131C164.621 89.4044 164.487 89.1127 164.337 88.7856C164.194 88.4731 164.037 88.1283 163.703 88.229C163.38 88.3262 163.255 88.7915 163.133 89.2429C162.996 89.7485 162.864 90.2368 162.466 90.1708C162.001 90.0938 161.961 89.6469 161.899 88.9511C161.861 88.5198 161.814 87.9928 161.652 87.3991C161.229 85.8479 159.895 86.3089 158.81 87.2147ZM456.966 166.04C455.955 166.263 454.287 166.63 452.263 168.283H452.257C450.777 169.492 449.892 171.781 451.444 171.819C452.704 171.85 453.792 170.417 454.592 169.364C454.777 169.12 454.947 168.897 455.1 168.717C455.913 167.757 457.427 168.017 457.242 169.308C457.058 170.599 459.2 172.41 459.2 170.046C459.2 168.431 460.234 167.833 461.137 167.31C461.557 167.067 461.948 166.841 462.194 166.536C462.897 165.667 463.052 165.736 463.405 165.894C463.442 165.91 463.481 165.928 463.523 165.945C463.743 166.036 463.899 165.568 464.073 165.049C464.25 164.518 464.445 163.934 464.744 163.84C465.168 163.708 465.198 164.051 465.236 164.473C465.25 164.639 465.266 164.818 465.308 164.985C465.454 165.576 467.228 163.412 466.392 162.669C465.836 162.174 465.586 160.985 465.334 159.794C465.208 159.195 465.082 158.597 464.917 158.086C464.682 157.357 464.961 156.428 465.239 155.505C465.544 154.491 465.846 153.486 465.46 152.765C464.722 151.387 463.002 150.649 462.162 150.796C461.321 150.942 461.077 152.325 462.357 154.934C463.637 157.543 461.126 161.286 459.797 161.779C458.468 162.273 457.53 163.851 457.974 165.18C458.173 165.774 457.784 165.86 456.966 166.04ZM454.129 174.2C454.217 174.005 454.298 173.822 454.374 173.649C454.983 172.268 455.269 171.622 456.103 171.819C457.041 172.042 456.602 170.214 456.103 169.991C455.604 169.769 453.738 170.583 453.331 172.465C452.924 174.347 454.042 174.385 454.123 174.2H454.129ZM452.288 173.743C452.058 173.578 451.78 173.377 451.509 173.072L451.514 173.067C451.237 172.753 451.099 172.702 450.781 172.583C450.67 172.542 450.538 172.493 450.37 172.421C449.937 172.237 449.778 172.495 449.55 172.862C449.436 173.047 449.304 173.259 449.111 173.457C448.536 174.049 447.962 174.954 448.667 175.399C449.372 175.844 449.849 175.101 449.833 174.678C449.817 174.255 450.777 175.085 450.462 175.914C450.147 176.744 449.941 177.997 451.162 178.426C452.382 178.854 453.049 177.395 452.675 176.359C452.382 175.547 452.502 175.258 452.656 174.886C452.699 174.784 452.744 174.675 452.784 174.548C452.897 174.184 452.655 174.009 452.288 173.743ZM461.305 149.836C461.856 149.634 461.6 149.036 461.354 148.459C461.169 148.026 460.988 147.605 461.158 147.373C461.331 147.137 461.643 147.083 461.984 147.024C462.425 146.947 462.912 146.863 463.203 146.364C463.468 145.91 464.001 146.222 464.576 146.559C465.12 146.878 465.702 147.219 466.132 146.955C466.518 146.719 466.445 146.239 466.367 145.722C466.267 145.054 466.157 144.323 467.016 143.978C468.54 143.365 469.799 141.884 468.15 141.146C467.334 140.781 466.86 141.007 466.394 141.23C465.918 141.458 465.449 141.682 464.63 141.271C463.964 140.937 463.46 140.508 463.021 140.136C462.39 139.6 461.896 139.18 461.256 139.324C460.171 139.568 460.985 140.701 461.429 141.244C461.874 141.786 462.368 144.422 461.185 144.965C460.003 145.507 458.82 147.427 459.808 148.046C460.795 148.664 460.675 149.022 460.502 149.483C460.328 149.944 460.681 150.074 461.31 149.841L461.305 149.836ZM460.884 136.756C460.874 137.215 460.866 137.615 460.724 137.588H460.713C459.668 137.395 459.771 136.291 459.849 135.467C459.867 135.273 459.883 135.094 459.883 134.946C459.883 134.557 459.795 134.512 459.681 134.454C459.568 134.397 459.43 134.327 459.33 133.894C459.245 133.527 459.235 133.214 459.225 132.913C459.212 132.504 459.2 132.12 458.999 131.659C458.84 131.292 458.69 131.094 458.548 130.906C458.382 130.686 458.227 130.48 458.077 130.032C457.964 129.691 457.937 129.408 457.904 129.058C457.857 128.556 457.796 127.914 457.448 126.762C457.348 126.432 457.254 126.103 457.162 125.783C456.707 124.201 456.307 122.808 455.598 122.33C454.747 121.755 454.118 119.059 453.955 117.839C453.801 116.683 454.007 116.637 454.623 116.497C454.658 116.489 454.694 116.481 454.731 116.472C455.43 116.309 454.991 115.382 454.6 114.905C454.571 114.869 454.541 114.832 454.51 114.795L454.508 114.793C454.127 114.333 453.662 113.774 454.194 113.483C454.512 113.309 454.636 113.748 454.778 114.253C454.893 114.658 455.019 115.106 455.268 115.311C455.826 115.772 457.101 117.655 457.117 118.897C457.133 120.139 458.001 121.983 458.999 123.388C459.342 123.87 459.895 124.546 460.461 125.237L460.462 125.238C461.544 126.559 462.672 127.936 462.454 128.118C462.282 128.262 462.105 128.156 461.863 128.01C461.64 127.876 461.361 127.709 460.979 127.673C460.182 127.597 459.688 128.41 459.981 129.24C460.193 129.842 460.087 130.397 459.991 130.895C459.955 131.084 459.92 131.265 459.905 131.437C459.851 132.061 460.48 133.818 461.755 134.372C463.029 134.925 463.42 135.532 463.067 135.776C462.887 135.901 462.504 135.774 462.114 135.644C461.742 135.52 461.362 135.393 461.147 135.483C460.909 135.583 460.896 136.211 460.884 136.756ZM433.425 214.04C432.009 214.848 429.4 218.992 431.651 220.799C432.824 221.74 433.085 222.542 433.271 223.111C433.441 223.635 433.547 223.96 434.239 224.015C434.825 224.061 435.191 223.666 435.551 223.278C436.076 222.712 436.586 222.161 437.748 223.017C438.336 223.45 438.877 223.756 439.35 224.023C440.452 224.646 441.181 225.059 441.257 226.38C441.366 228.267 442.771 229.596 442.548 228.338C442.326 227.08 442.364 226.971 443.031 226.749C443.698 226.526 443.991 225.382 441.588 224.384C441.425 224.316 441.261 224.248 441.096 224.18C438.824 223.243 436.399 222.243 435.676 220.766C434.9 219.182 434.716 218.179 435.752 217.219C436.788 216.259 434.689 213.319 433.425 214.04ZM441.219 233.068C441.957 233.138 442.906 232.124 443.14 231.256V231.262C443.206 231.014 443.211 230.8 443.216 230.63C443.226 230.228 443.23 230.077 444.007 230.339C444.945 230.657 445.034 231.807 445.085 232.474V232.475V232.476V232.477C445.094 232.596 445.102 232.7 445.114 232.78C445.139 232.956 445.283 233.136 445.441 233.333C445.76 233.734 446.136 234.204 445.689 234.847C445.257 235.468 445.05 235.083 444.836 234.684C444.719 234.466 444.6 234.245 444.441 234.18C443.991 233.995 443.861 235.015 444.36 235.807C444.859 236.599 443.015 237.326 441.55 236.545C440.764 236.125 440.827 235.623 440.885 235.157C440.935 234.754 440.981 234.378 440.476 234.104C439.865 233.772 439.369 234.202 438.906 234.603C438.543 234.918 438.199 235.216 437.835 235.118C437.005 234.896 438.833 232.748 439.592 232.401C440.022 232.204 440.25 232.421 440.501 232.659C440.693 232.842 440.899 233.037 441.219 233.068ZM438.003 228.284C437.444 228.989 436.582 229.244 436.359 228.745C436.137 228.246 436.674 226.825 437.526 226.987C438.377 227.15 438.372 227.817 438.008 228.278L438.003 228.284ZM437.962 229.596C438.205 229.447 438.407 229.324 438.366 228.745L438.361 228.739C438.323 228.202 438.388 228.164 438.768 228.083C439.147 228.002 439.326 228.49 439.12 228.777C438.914 229.065 438.61 229.792 438.925 230.291C439.24 230.79 439.413 231.397 438.844 231.457C438.274 231.517 437.162 230.589 437.515 230.009C437.649 229.788 437.813 229.688 437.962 229.596ZM439.896 228.219C439.885 228.405 439.767 228.668 439.649 228.931C439.461 229.348 439.273 229.765 439.516 229.878C439.764 229.994 439.868 229.69 439.994 229.318C440.07 229.095 440.153 228.849 440.281 228.653C440.623 228.126 439.923 227.693 439.89 228.219H439.896ZM440.28 230.399C440.411 230.384 440.645 230.359 440.617 230.003V230.009C440.59 229.645 440.612 229.504 440.943 229.445C441.274 229.385 441.648 229.792 441.312 230.209C440.975 230.627 440.682 230.838 440.303 230.54C440.142 230.414 440.183 230.409 440.28 230.399Z" fill="url(#paint0_linear_25_30807)"/>
    <defs>
        <linearGradient id="paint0_linear_25_30807" x1="69.0005" y1="-146" x2="313.003" y2="291.999" gradientUnits="userSpaceOnUse">
            <stop stop-color="#232328" stop-opacity="0.06"/>
            <stop offset="1" stop-color="#07ACFF" stop-opacity="0.48"/>
        </linearGradient>
    </defs>
</svg>